<?xml version="1.0" standalone="no"?>
<!DOCTYPE svg PUBLIC "-//W3C//DTD SVG 1.1//EN" "http://www.w3.org/Graphics/SVG/1.1/DTD/svg11.dtd" >
<svg xmlns="http://www.w3.org/2000/svg">
<metadata>
Created by FontPrep 20130207 at Tue Jun 30 19:19:45 2015
 By Romain Gazielly
Copyright (c) 2012 by The League of Moveable Type
</metadata>
<defs>
<font id="b5877850f340171af1593b7065c4f5cc" horiz-adv-x='1024' >
  <font-face 
    font-family="LeagueGothic-CondensedRegular"
    font-weight="400"
    font-stretch="condensed"
    units-per-em="2048"
    panose-1="0 0 5 6 0 0 0 0 0 0"
    ascent="1505"
    descent="-543"
    x-height="1120"
    cap-height="1505"
    bbox="-61 -512 973 1950"
    underline-thickness="102"
    underline-position="-102"
    unicode-range="U+000D-FB02"
  />
<missing-glyph horiz-adv-x="188" 
 />
    <glyph glyph-name=".notdef" horiz-adv-x="188" 
 />
    <glyph glyph-name=".null" horiz-adv-x="0" 
 />
    <glyph glyph-name="nonmarkingreturn" horiz-adv-x="681" 
 />
    <glyph glyph-name="CR" unicode="&#xd;" horiz-adv-x="221" 
 />
    <glyph glyph-name="space" unicode=" " horiz-adv-x="221" 
 />
    <glyph glyph-name="exclam" unicode="!" horiz-adv-x="292" 
d="M33 0v227h166v-227h-166zM59 406l-32 1099h180l-33 -1099h-115z" />
    <glyph glyph-name="quotedbl" unicode="&#x22;" horiz-adv-x="417" 
d="M375 954h-129l-19 551h166zM168 954h-129l-19 551h166z" />
    <glyph glyph-name="numbersign" unicode="#" horiz-adv-x="800" 
d="M324 891l-23 -258h119q2 55 10 129l12 129h-118zM10 438l17 195h118q2 55 11 129l12 129h-117l15 194h118q4 80 17 209l18 211h154l-33 -420h119q4 80 16 209l19 211h153l-35 -420h117l-16 -194h-115l-12 -129q-8 -84 -11 -129h115l-16 -195h-115l-18 -219
q-12 -147 -17 -219h-155l34 438h-118l-19 -219q-12 -147 -16 -219h-156l37 438h-121z" />
    <glyph glyph-name="dollar" unicode="$" horiz-adv-x="479" 
d="M295 369q1 104 -63 224q-157 298 -180 403q-23 106 -23 192q1 86 35 184t116 125v131h86v-125q76 -10 117 -91t47 -191l-133 -25q-7 59 -21 93t-45 32q-29 0 -44 -52t-15 -117q0 -64 30 -140t74 -157q42 -81 84 -166q78 -161 78 -315q0 -155 -37 -245q-47 -113 -135 -127
v-217h-86v221q-88 23 -131 125q-43 96 -43 227l133 13q4 -80 27 -133t63 -54q66 0 66 185z" />
    <glyph glyph-name="percent" unicode="%" horiz-adv-x="837" 
d="M709 158v436q0 55 -30 55t-30 -55v-436q-4 -57 31 -58q29 1 29 58zM676 -16q-70 0 -110 51t-40 123v436q0 76 42 126t113 50t107 -51t43 -125v-436q-4 -76 -44 -125q-41 -49 -111 -49zM225 911v437q1 55 -29 55t-30 -55v-437q-4 -55 31 -55q28 0 28 55zM295 0h-137
l430 1505h131zM194 735q-72 0 -111 51q-40 51 -40 125v437q0 76 42 125t112 49q139 0 151 -174v-437q-4 -78 -43 -127t-111 -49z" />
    <glyph glyph-name="ampersand" unicode="&#x26;" horiz-adv-x="573" 
d="M158 292q0 -50 16 -90t45 -40q53 0 80 98q-51 113 -100 281q-41 -199 -41 -249zM188 1206q0 -140 29 -231q45 131 45 225q4 145 -37 146q-37 0 -37 -140zM227 1522q172 0 179 -322q0 -76 -22 -164t-39 -130t-60 -146q70 -260 73 -271q33 91 33 185l135 -25
q-4 -127 -92 -391q14 -31 72 -61v-213q-66 20 -86 42q-20 23 -25 29q-4 6 -22 37q-41 -109 -162 -108q-80 0 -133 57q-86 92 -86 242q0 149 121 469q-63 231 -64 442q6 328 178 328z" />
    <glyph glyph-name="quotesingle" unicode="'" horiz-adv-x="247" 
d="M164 954h-129l-19 551h166z" />
    <glyph glyph-name="parenleft" unicode="(" horiz-adv-x="397" 
d="M176 645q0 -330 78 -620q31 -127 74 -234l-123 -106q-102 258 -158 598q-27 160 -27 362q0 452 183 965l125 -109q-82 -205 -127 -506q-25 -156 -25 -350z" />
    <glyph glyph-name="parenright" unicode=")" horiz-adv-x="397" 
d="M162 645q0 301 -78 621q-43 155 -76 235l125 109q102 -274 156 -600q27 -162 26 -365q0 -469 -184 -960l-123 106q70 166 129 506q25 176 25 348z" />
    <glyph glyph-name="asterisk" unicode="*" horiz-adv-x="468" 
d="M150 1350l-11 155h129l-10 -157l96 49l31 -142l-109 -38l89 -134l-99 -100l-63 125l-62 -125l-100 100l96 134l-114 38l28 142z" />
    <glyph glyph-name="plus" unicode="+" horiz-adv-x="698" 
d="M27 649v172h221v346h141v-346h221v-172h-221v-346h-141v346h-221z" />
    <glyph glyph-name="comma" unicode="," horiz-adv-x="247" 
d="M174 227v-227l-68 -266h-98l51 266h-51v227h166z" />
    <glyph glyph-name="hyphen" unicode="-" horiz-adv-x="327" 
d="M27 455v194h215v-194h-215z" />
    <glyph glyph-name="period" unicode="." horiz-adv-x="253" 
d="M14 0v227h166v-227h-166z" />
    <glyph glyph-name="slash" unicode="/" horiz-adv-x="493" 
d="M-14 -147l325 1652h135l-321 -1652h-139z" />
    <glyph glyph-name="zero" unicode="0" horiz-adv-x="495" 
d="M260 289v928q0 90 -34 90t-33 -90v-928q-1 -90 33 -90t34 90zM430 1217v-928q0 -133 -48 -219t-157 -86q-76 0 -124 48q-81 81 -83 257v928q0 131 50 218t157 87q76 0 125 -54q48 -54 64 -116q16 -63 16 -135z" />
    <glyph glyph-name="one" unicode="1" horiz-adv-x="346" 
d="M84 1180h-88v137q61 23 115 110q16 33 26 78h117v-1505h-170v1180z" />
    <glyph glyph-name="two" unicode="2" horiz-adv-x="499" 
d="M188 1028h-170v105q6 389 205 389t199 -375q0 -334 -221 -928h211v-219h-398v219q84 223 121 327t79 276q42 173 43 334t-34 161t-35 -184v-105z" />
    <glyph glyph-name="three" unicode="3" horiz-adv-x="473" 
d="M14 434h166q0 -256 36 -256t36 205q-4 174 -27 233t-94 64v182q90 5 106 110q7 53 7 99v51q0 199 -31 199q-37 0 -37 -250h-168q0 451 203 451q76 0 125 -62t63 -133q15 -71 15 -189t-22 -208t-81 -162q107 -72 107 -371t-97 -380q-42 -34 -104 -33q-203 -1 -203 450z
" />
    <glyph glyph-name="four" unicode="4" horiz-adv-x="479" 
d="M238 522v465l-93 -465h93zM233 0v328h-231v194l211 983h166v-983h61v-194h-61v-328h-146z" />
    <glyph glyph-name="five" unicode="5" horiz-adv-x="483" 
d="M262 336v377q0 47 -10 79t-27 31q-20 0 -31 -41t-12 -69h-147v792h356v-219h-205v-321q2 19 33 39t55 20q154 0 154 -311v-357q-4 -373 -211 -372q-55 0 -94 34t-57 74q-39 89 -39 322v24h168v-100q0 -162 30 -162q37 0 37 160z" />
    <glyph glyph-name="six" unicode="6" horiz-adv-x="481" 
d="M190 264q0 -88 38 -88t38 88v430q0 68 -39 68q-31 -1 -37 -62v-436zM430 657v-368q-2 -121 -55 -213t-162 -92q-76 0 -122 57t-58 119t-13 129v889q4 344 204 344t200 -344v-107h-164q0 258 -35 258t-35 -151v-279q4 11 27 23t45 12q168 -1 168 -277z" />
    <glyph glyph-name="seven" unicode="7" horiz-adv-x="415" 
d="M-12 1286v219h372v-221l-133 -1284h-174l135 1286h-200z" />
    <glyph glyph-name="eight" unicode="8" horiz-adv-x="479" 
d="M264 250v344q0 86 -35 86t-34 -86v-344q0 -29 11 -48q23 -40 47 0q11 19 11 48zM264 946v303q0 84 -35 84t-34 -84v-303q0 -29 11 -48t23 -19t24 19q11 19 11 48zM424 1280v-291q0 -127 -80 -194q86 -49 86 -215v-320q0 -112 -50 -194t-152 -82t-150 86q-49 86 -49 190
v320q0 129 86 215q-80 80 -80 194v291q0 96 50 169t146 73q97 0 145 -74t48 -168z" />
    <glyph glyph-name="nine" unicode="9" horiz-adv-x="481" 
d="M244 1241q0 88 -38 88t-38 -88v-430q0 -68 39 -68q31 1 37 62v436zM4 848v369q2 121 55 213t162 92q76 0 122 -58t58 -118q12 -61 13 -129v-889q-4 -344 -204 -344t-200 344v106h164q0 -258 35 -258t35 152v278q-4 -10 -27 -22t-45 -13q-168 1 -168 277z" />
    <glyph glyph-name="colon" unicode=":" horiz-adv-x="278" 
d="M27 0v227h166v-227h-166zM27 893v227h166v-227h-166z" />
    <glyph glyph-name="semicolon" unicode=";" horiz-adv-x="278" 
d="M193 227v-227l-68 -266h-98l51 266h-51v227h166zM27 893v227h166v-227h-166z" />
    <glyph glyph-name="less" unicode="&#x3c;" horiz-adv-x="696" 
d="M27 655v148l583 508v-219l-426 -363q14 -12 211 -180l215 -182v-220z" />
    <glyph glyph-name="equal" unicode="=" horiz-adv-x="696" 
d="M27 477v172h583v-172h-583zM27 864v172h583v-172h-583z" />
    <glyph glyph-name="greater" unicode="&#x3e;" horiz-adv-x="696" 
d="M610 803v-148l-583 -508v220l424 362l-424 363v219z" />
    <glyph glyph-name="question" unicode="?" horiz-adv-x="313" 
d="M84 0v227h166v-227h-166zM238 406h-146v256q0 192 105 452q83 207 -11 207q-33 0 -61 -55q-2 -4 -31 -90l-123 84q13 66 71 160t148 93q188 0 189 -266q0 -96 -60 -239q-23 -56 -42 -104q-39 -98 -39 -242v-256z" />
    <glyph glyph-name="at" unicode="@" horiz-adv-x="692" 
d="M463 575v449q0 35 -25 35t-24 -35v-449q0 -14 8 -24t16 -10q25 -1 25 34zM633 1184v-795h-137l-27 64q-8 -29 -40 -54t-64 -24q-51 0 -80 53t-29 135v477q0 184 129 185q39 0 72 -29q-4 51 -25 78q-28 53 -106 53t-107 -53q-29 -45 -29 -90v-873q0 -45 29 -84
q31 -55 110 -55t124 72l145 -103q-98 -164 -265 -164t-259 132q-57 88 -58 202v873q0 119 58 211q88 133 250 133t254 -133q55 -90 55 -211z" />
    <glyph glyph-name="A" unicode="A" horiz-adv-x="520" 
d="M262 541l-33 598l-30 -598h63zM160 0h-166l137 1505h199l135 -1505h-166l-23 307h-94z" />
    <glyph glyph-name="B" unicode="B" horiz-adv-x="507" 
d="M201 682v-463q33 0 41 10q22 31 22 226t-22 217q-10 10 -41 10zM201 1286v-401q33 0 41 12q22 31 22 189t-22 188q-12 12 -41 12zM180 1505q246 0 246 -399q0 -129 -16 -195q-27 -84 -72 -116q66 -61 82 -137t16 -259q0 -399 -182 -399h-223v1505h149z" />
    <glyph glyph-name="C" unicode="C" horiz-adv-x="487" 
d="M256 516h166v-227q0 -133 -47 -219t-156 -86q-74 0 -122 51t-63 115t-16 139v928q0 121 48 213t153 92q150 0 194 -212q9 -48 9 -93v-228h-166v228q0 90 -35 90q-29 0 -28 -82v-936q0 -90 28 -90q35 0 35 90v227z" />
    <glyph glyph-name="D" unicode="D" horiz-adv-x="518" 
d="M201 221q50 0 61 46q6 26 6 69v352q0 492 -6 543t-36 51l-25 2v-1063zM195 0h-164v1505h141q100 0 148 -34t82 -142q34 -109 34 -607t-26 -576t-74 -112q-47 -34 -141 -34z" />
    <glyph glyph-name="E" unicode="E" horiz-adv-x="438" 
d="M31 0v1505h340v-227h-170v-395h123v-242h-123v-414h170v-227h-340z" />
    <glyph glyph-name="F" unicode="F" horiz-adv-x="432" 
d="M383 1505v-227h-182v-395h123v-228h-123v-655h-170v1505h352z" />
    <glyph glyph-name="G" unicode="G" horiz-adv-x="503" 
d="M424 965h-170v252q0 90 -32 90t-32 -90v-947q0 -90 35 -90q41 0 41 90v293h-37v187h195v-750h-88l-19 55q-14 -27 -49 -49q-79 -51 -155 9q-91 74 -95 274v928q0 121 50 213t153 92q151 0 194 -206q9 -48 9 -99v-252z" />
    <glyph glyph-name="H" unicode="H" horiz-adv-x="528" 
d="M266 0v655h-65v-655h-170v1505h170v-622h65v622h170v-1505h-170z" />
    <glyph glyph-name="I" unicode="I" horiz-adv-x="292" 
d="M31 0v1505h170v-1505h-170z" />
    <glyph glyph-name="J" unicode="J" horiz-adv-x="315" 
d="M68 1505h170v-1226q0 -145 -56 -224t-190 -67v221q45 -9 60 25t16 79v1192z" />
    <glyph glyph-name="K" unicode="K" horiz-adv-x="522" 
d="M31 1505h164v-432l110 432h166l-149 -551l145 -954h-166l-106 717v-717h-164v1505z" />
    <glyph glyph-name="L" unicode="L" horiz-adv-x="423" 
d="M31 0v1505h170v-1300h176v-205h-346z" />
    <glyph glyph-name="M" unicode="M" horiz-adv-x="655" 
d="M188 0h-157v1505h188l78 -710l78 710h188v-1505h-162v741l-57 -741h-92l-64 741v-741z" />
    <glyph glyph-name="N" unicode="N" horiz-adv-x="546" 
d="M188 0h-157v1505h143l123 -710v710h158v-1505h-144l-123 731v-731z" />
    <glyph glyph-name="O" unicode="O" horiz-adv-x="495" 
d="M260 289v928q0 90 -34 90t-33 -90v-928q-1 -90 33 -90t34 90zM430 1217v-928q0 -133 -48 -219t-157 -86q-76 0 -124 48q-81 81 -83 257v928q0 131 50 218t157 87q76 0 125 -54q48 -54 64 -116q16 -63 16 -135z" />
    <glyph glyph-name="P" unicode="P" horiz-adv-x="493" 
d="M201 1284v-457q41 0 55 29t14 199t-16 207q-10 22 -53 22zM203 1505q231 0 231 -450q0 -252 -72 -367q-51 -82 -161 -86v-602h-170v1505h172z" />
    <glyph glyph-name="Q" unicode="Q" horiz-adv-x="499" 
d="M248 289v928q0 90 -28 90t-27 -90v-928q-1 -90 27 -90t28 90zM18 1217q0 305 199 305q76 0 125 -54q48 -54 64 -116q16 -63 16 -135v-928q0 -90 -31 -178v-5q18 -29 47 -36v-185q-125 0 -166 107h-2q-12 -4 -18 -4l-25 -4h-22l-2 2q-70 4 -114 55t-57 111t-14 137v928z
" />
    <glyph glyph-name="R" unicode="R" horiz-adv-x="505" 
d="M201 1286v-457q31 0 48 26t17 204q0 179 -15 203t-50 24zM201 0h-170v1505h172q117 -1 171 -109t54 -342t-78 -325l105 -729h-166l-88 655v-655z" />
    <glyph glyph-name="S" unicode="S" horiz-adv-x="483" 
d="M219 1319q-31 0 -31 -150q0 -102 84 -308t114 -311q32 -105 32 -208q0 -358 -203 -358q-129 0 -173 130q-38 111 -38 237v69l166 24q0 -258 45 -258q23 0 29 33t6 116t-29 172t-106 275q-92 248 -92 387q0 346 190 353q205 3 205 -398l-168 -24q0 219 -31 219z" />
    <glyph glyph-name="T" unicode="T" horiz-adv-x="450" 
d="M109 1278h-125v227h419v-227h-124v-1278h-170v1278z" />
    <glyph glyph-name="U" unicode="U" horiz-adv-x="512" 
d="M250 1505h170v-1216q0 -305 -202 -305t-202 305v1216h170v-1216q0 -90 32 -90t32 90v1216z" />
    <glyph glyph-name="V" unicode="V" horiz-adv-x="491" 
d="M-8 1505h166l57 -770l57 770h166l-139 -1505h-168z" />
    <glyph glyph-name="W" unicode="W" horiz-adv-x="684" 
d="M424 801q21 397 41 704h160l-111 -1505h-145l-58 721l-57 -721h-143l-115 1505h160l43 -706l49 706h125z" />
    <glyph glyph-name="X" unicode="X" horiz-adv-x="503" 
d="M221 1141q49 287 60 364h168l-144 -714q7 -45 23 -133t24 -126l99 -532h-166l-64 416l-63 -416h-166l145 791q-2 12 -31 150t-40 206l-72 358h168z" />
    <glyph glyph-name="Y" unicode="Y" horiz-adv-x="481" 
d="M307 0h-170v641l-141 864h168l57 -438q13 111 60 438h168l-142 -864v-641z" />
    <glyph glyph-name="Z" unicode="Z" horiz-adv-x="438" 
d="M-6 0v238l207 1048h-178v219h360v-219l-213 -1067h213v-219h-389z" />
    <glyph glyph-name="bracketleft" unicode="[" horiz-adv-x="385" 
d="M307 1505v-196h-121v-1325h121v-197h-276v1718h276z" />
    <glyph glyph-name="backslash" unicode="\" horiz-adv-x="536" 
d="M121 1692l368 -1872h-137l-366 1872h135z" />
    <glyph glyph-name="bracketright" unicode="]" horiz-adv-x="385" 
d="M16 1309v196h277v-1718h-277v197h121v1325h-121z" />
    <glyph glyph-name="asciicircum" unicode="^" horiz-adv-x="722" 
d="M242 1505h178l227 -696h-155l-162 487l-160 -487h-156z" />
    <glyph glyph-name="underscore" unicode="_" horiz-adv-x="724" 
d="M27 -326v172h612v-172h-612z" />
    <glyph glyph-name="grave" unicode="`" horiz-adv-x="675" 
d="M160 1489h164l63 -184h-131z" />
    <glyph glyph-name="a" unicode="a" horiz-adv-x="471" 
d="M229 254v260q-29 -37 -51 -112q-22 -76 -20 -150q0 -74 28 -74q18 0 30 22t13 54zM231 864q0 94 -26 94q-13 0 -21 -32t-8 -62v-73h-156v67q0 109 48 194t139 85q90 0 135 -81t41 -173v-688q0 -113 10 -195h-137q-18 31 -25 68q-33 -84 -104 -84q-117 0 -117 273t156 407
q57 48 65 79v121z" />
    <glyph glyph-name="b" unicode="b" horiz-adv-x="473" 
d="M193 883v-627q1 -78 29 -78t28 78v627q0 74 -29 73q-28 1 -28 -73zM31 0v1505h162v-432q4 20 32 42q29 22 51 22q125 0 125 -219v-751q0 -96 -10 -116t-23 -43t-54 -24q-42 0 -76 28t-45 49v-61h-162z" />
    <glyph glyph-name="c" unicode="c" horiz-adv-x="448" 
d="M20 825q0 105 28 179t68 103q40 30 100 30q124 0 160 -100q25 -74 25 -201v-109h-155v147q0 82 -31 82q-13 0 -23 -26t-10 -56v-616q0 -88 32 -88t32 88v156h155v-129q0 -182 -46 -241t-148 -60q-181 0 -187 311v530z" />
    <glyph glyph-name="d" unicode="d" horiz-adv-x="473" 
d="M252 256v627q0 74 -29 73q-29 0 -28 -73v-627q1 -78 29 -78t28 78zM414 1505v-1505h-162v61q-10 -23 -54 -58t-100 -12q-18 8 -32 36q-15 28 -18 57q-5 48 -5 83v751q0 219 125 219q24 0 52 -22t32 -42v432h162z" />
    <glyph glyph-name="e" unicode="e" horiz-adv-x="456" 
d="M178 842v-158h70v158q0 115 -41 114q-29 1 -29 -114zM248 401h153v-141q0 -276 -202 -276q-68 0 -110 46t-55 104t-14 132v584q0 115 48 201t141 86q121 0 162 -94q30 -73 30 -187v-334h-223v-243q0 -113 31 -113q39 0 39 113v122z" />
    <glyph glyph-name="f" unicode="f" horiz-adv-x="346" 
d="M57 1186q0 330 154 328q47 0 82 -21v-170q-37 23 -56 3t-20 -128v-78h64v-186h-64v-934h-160v934h-63v186h63v66z" />
    <glyph glyph-name="g" unicode="g" horiz-adv-x="501" 
d="M145 -150q0 -78 64 -77q33 1 55 23t21 52q-1 60 -54 80l-49 17q-37 -41 -37 -95zM233 537v317q-1 102 -29 102t-28 -102v-317q0 -100 27 -101q30 1 30 101zM391 879v-338q-6 -105 -55 -191t-143 -86h-11q-12 -20 -12 -49q0 -47 85 -71t120 -62q63 -78 63 -199t-56 -203
t-168 -81q-112 0 -168 58q-56 59 -56 155t106 174h2q-88 43 -88 142t84 175q-78 119 -78 244v305q5 154 79 237q44 48 120 48t115 -70q59 70 129 70v-185q-57 0 -76 -24q8 -16 8 -49z" />
    <glyph glyph-name="h" unicode="h" horiz-adv-x="468" 
d="M193 883v-883h-162v1505h162v-432q4 20 32 42q29 22 66 22t73 -54t35 -165v-918h-153v883q0 74 -27 73q-26 1 -26 -73z" />
    <glyph glyph-name="i" unicode="i" horiz-adv-x="270" 
d="M193 0h-162v1120h162v-1120zM31 1298v207h162v-207h-162z" />
    <glyph glyph-name="j" unicode="j" horiz-adv-x="280" 
d="M27 1120h161v-1149q0 -147 -16 -213t-53 -105q-37 -38 -83 -38t-81 16l4 187q17 0 29 -4t19 9t11 17q9 9 9 50v1230zM27 1298v207h161v-207h-161z" />
    <glyph glyph-name="k" unicode="k" horiz-adv-x="446" 
d="M31 1505h155v-618l76 233h156l-137 -385l133 -735h-156l-72 475v-475h-155v1505z" />
    <glyph glyph-name="l" unicode="l" horiz-adv-x="280" 
d="M193 0h-162v1505h162v-1505z" />
    <glyph glyph-name="m" unicode="m" horiz-adv-x="673" 
d="M399 883v-883h-147v887q0 70 -31 69q-29 0 -28 -73v-883h-162v1120h162v-59q18 31 50 53q33 22 63 23q30 0 50 -25t25 -57q14 33 53 57t74 25q102 0 102 -219v-918h-149v883q0 74 -31 73q-31 1 -31 -73z" />
    <glyph glyph-name="n" unicode="n" 
d="M193 883v-883h-162v1120h162v-57q16 25 50 49t58 25q111 0 111 -219v-918h-160v885q0 72 -31 71q-28 1 -28 -73z" />
    <glyph glyph-name="o" unicode="o" horiz-adv-x="456" 
d="M212 956q-38 0 -38 -94v-604q-4 -92 35 -92q19 0 29 34t8 58v604q4 94 -34 94zM399 848v-576q0 -139 -43 -214t-147 -74q-188 0 -189 295v563q0 295 193 295q113 0 149 -75t37 -214z" />
    <glyph glyph-name="p" unicode="p" horiz-adv-x="473" 
d="M193 881v-635q-1 -68 29 -68t30 68v635q0 76 -29 75q-30 1 -30 -75zM31 -385v1505h162v-57q12 27 45 51t61 23q113 0 113 -219v-715q-6 -219 -113 -219q-29 0 -61 24t-45 58v-451h-162z" />
    <glyph glyph-name="q" unicode="q" horiz-adv-x="473" 
d="M250 246v635q0 76 -31 75q-29 0 -29 -75v-635q0 -68 30 -68t30 68zM412 1120v-1505h-162v451q-14 -33 -46 -58t-61 -24q-106 0 -112 219v715q0 219 112 219q29 0 62 -24t45 -50v57h162z" />
    <glyph glyph-name="r" unicode="r" horiz-adv-x="364" 
d="M326 1137v-246q-68 39 -103 1t-35 -114v-778h-157v1120h157v-61q46 78 138 78z" />
    <glyph glyph-name="s" unicode="s" horiz-adv-x="440" 
d="M381 834h-139q0 131 -37 131q-29 0 -29 -91t20 -132q45 -97 58 -117q123 -203 123 -377t-91 -237q-40 -27 -98 -27t-99 30q-85 63 -85 312h148q0 -170 38 -170q33 0 33 135q0 81 -89 247t-99 229t-10 103q0 115 44 191t132 76q180 0 180 -303z" />
    <glyph glyph-name="t" unicode="t" horiz-adv-x="358" 
d="M72 1397h157v-277h86v-186h-86v-934h-157v934h-68v186h68v277z" />
    <glyph glyph-name="u" unicode="u" 
d="M242 238v882h161v-1120h-161v57q-16 -25 -50 -49t-59 -24q-111 0 -110 219v917h159v-884q0 -72 30 -72t30 74z" />
    <glyph glyph-name="v" unicode="v" horiz-adv-x="421" 
d="M270 0h-159l-119 1120h151l47 -657l50 657h151z" />
    <glyph glyph-name="w" unicode="w" horiz-adv-x="604" 
d="M451 0h-134l-47 532l-45 -532h-131l-100 1120h145l39 -514l45 514h99l43 -514l38 514h146z" />
    <glyph glyph-name="x" unicode="x" horiz-adv-x="444" 
d="M205 303l-41 -303h-152l115 578l-125 542h152l51 -280l55 280h152l-127 -542l114 -578h-149z" />
    <glyph glyph-name="y" unicode="y" horiz-adv-x="466" 
d="M213 459l53 661h160l-139 -1204q-22 -251 -149 -308q-56 -26 -115 -3v182q47 -18 71 10q37 55 37 170l-135 1153h158z" />
    <glyph glyph-name="z" unicode="z" horiz-adv-x="380" 
d="M-10 0v168l170 764h-144v188h312v-168l-170 -764h170v-188h-338z" />
    <glyph glyph-name="braceleft" unicode="{" 
d="M252 1153v-397q0 -76 -30 -142t-72 -79q46 -31 74 -91t28 -131v-397q2 -76 10 -112q19 -85 135 -85v-172q-195 0 -253 98q-30 52 -39 111t-9 160v397q0 39 -14 78q-20 59 -64 62v163q45 0 64 60q14 37 14 80v397q4 205 62 289t239 80v-172q-93 -2 -119 -50t-26 -147z" />
    <glyph glyph-name="bar" unicode="|" horiz-adv-x="274" 
d="M182 -512h-151v2204h151v-2204z" />
    <glyph glyph-name="braceright" unicode="}" 
d="M317 756q0 -43 15 -80q18 -59 63 -60v-163q-43 -2 -63 -62q-14 -39 -15 -78v-397q0 -100 -9 -160t-39 -111q-57 -98 -253 -98v172q90 0 116 43t30 154v397q0 72 28 131q29 59 74 91q-43 13 -73 79t-29 142v397q0 99 -26 147t-120 50v172q182 4 240 -80t61 -289v-397z" />
    <glyph glyph-name="asciitilde" unicode="~" horiz-adv-x="829" 
d="M162 1612q41 47 116 47q75 1 153 -87t108 -87q33 0 67 90q10 16 18 53t11 45q2 8 2 10l117 -79q-35 -152 -113 -256q-37 -48 -96 -48t-97 26t-94 88q-55 62 -87 61q-32 0 -72 -91q-23 -65 -31 -108l-115 82q29 139 113 254z" />
    <glyph glyph-name="uni0093" 
d="M236 1012v227l67 266h98l-43 -266h43v-227h-165zM14 1012v227l68 266h98l-43 -266h43v-227h-166z" />
    <glyph glyph-name="uni0094" horiz-adv-x="466" 
d="M401 1505v-227l-67 -266h-98l43 266h-43v227h165zM180 1505v-227l-67 -266h-99l43 266h-43v227h166z" />
    <glyph glyph-name="exclamdown" unicode="&#xa1;" horiz-adv-x="292" 
d="M27 -385l32 1100h115l33 -1100h-180zM33 893v227h166v-227h-166z" />
    <glyph glyph-name="cent" unicode="&#xa2;" horiz-adv-x="444" 
d="M176 1069v-616q0 -88 32 -88t32 88v155h155v-129q0 -202 -64 -260q-30 -27 -75 -37v-305h-109v301q-74 27 -103 120q-30 93 -30 191v531q0 98 30 189t101 116v242h111v-240q97 -21 121 -113q18 -70 18 -184v-108h-155v147q0 82 -31 82q-13 1 -23 -25t-10 -57z" />
    <glyph glyph-name="sterling" unicode="&#xa3;" horiz-adv-x="550" 
d="M92 786q-53 221 -53 368t39 245q47 121 165 123t171 -123q39 -103 39 -279h-166q0 197 -43 197t-43 -168q0 -106 47 -363h125v-137h-105q16 -102 16 -189t-38 -204q22 -22 37 -35q14 -12 24 -22l17 43q16 41 18 149l150 -29q-8 -182 -54 -280t-116 -98q-40 0 -96 51
t-68 51q-23 0 -56 -127l-118 109q20 84 73 163q16 25 54 45q40 172 4 373h-113v137h90z" />
    <glyph glyph-name="yen" unicode="&#xa5;" horiz-adv-x="493" 
d="M420 752v-138h-107v-137h107v-137h-107v-340h-170v340h-104v137h104v137h-104v138h88l-131 753h168l63 -438l68 438h168l-133 -753h90z" />
    <glyph glyph-name="dieresis" unicode="&#xa8;" horiz-adv-x="675" 
d="M338 1305v200h151v-200h-151zM125 1305v200h151v-200h-151z" />
    <glyph glyph-name="copyright" unicode="&#xa9;" horiz-adv-x="1048" 
d="M481 1018v-531q0 -37 13 -57v-6q2 0 4 12t6 26t0 25v125h119v-125q-6 -102 -52 -165q-25 -31 -79 -31q-130 0 -134 196v531q0 100 52 166q25 31 82 30q127 0 131 -196v-125h-119v125q2 31 -4 42t-6 15l-7 -20v-2q-6 -12 -6 -35zM121 754q0 -272 116 -462t258 -190
t259 193q110 191 110 459t-110 458q-115 190 -259 190t-259 -188t-115 -460zM14 753q0 318 138 543q133 226 341 226t344 -226t136 -543t-136 -543t-344 -226t-341 225q-138 226 -138 544z" />
    <glyph glyph-name="registered" unicode="&#xae;" horiz-adv-x="1048" 
d="M489 805q41 0 41 129t-41 129h-8v-258h8zM356 1192h138q156 0 155 -258q0 -143 -53 -221h2l64 -400h-130l-51 338v-338h-125v879zM121 754q0 -272 116 -462t258 -190t259 193q110 191 110 459t-110 458q-115 190 -259 190t-259 -188t-115 -460zM14 753q0 318 138 543
q133 226 341 226t344 -226t136 -543t-136 -543t-344 -226t-341 225q-138 226 -138 544z" />
    <glyph glyph-name="macron" unicode="&#xaf;" horiz-adv-x="675" 
d="M170 1315v162h274v-162h-274z" />
    <glyph glyph-name="acute" unicode="&#xb4;" horiz-adv-x="675" 
d="M291 1489h164l-97 -184h-131z" />
    <glyph glyph-name="periodcentered" unicode="&#xb7;" horiz-adv-x="190" 
d="M-18 649v228h165v-228h-165z" />
    <glyph glyph-name="cedilla" unicode="&#xb8;" horiz-adv-x="675" 
d="M377 -111v-141l-27 -133h-100l33 133h-45v141h139z" />
    <glyph glyph-name="questiondown" unicode="&#xbf;" horiz-adv-x="448" 
d="M113 715h145v-256q0 -190 -104 -453q-83 -207 10 -207q33 0 61 56q2 4 31 90l123 -84q-13 -66 -71 -160t-148 -94q-188 0 -189 266q0 96 60 240q23 57 51 128q29 71 31 218v256zM266 1120v-227h-166v227h166z" />
    <glyph glyph-name="Agrave" unicode="&#xc0;" horiz-adv-x="520" 
d="M262 541l-33 598l-30 -598h63zM160 0h-166l137 1505h199l135 -1505h-166l-23 307h-94zM68 1823h163l66 -185h-131z" />
    <glyph glyph-name="Aacute" unicode="&#xc1;" horiz-adv-x="520" 
d="M262 541l-33 598l-30 -598h63zM160 0h-166l137 1505h199l135 -1505h-166l-23 307h-94zM221 1823h164l-96 -185h-131z" />
    <glyph glyph-name="Acircumflex" unicode="&#xc2;" horiz-adv-x="520" 
d="M262 541l-33 598l-30 -598h63zM160 0h-166l137 1505h199l135 -1505h-166l-23 307h-94zM150 1823h165l84 -185h-133l-35 80l-34 -80h-134z" />
    <glyph glyph-name="Atilde" unicode="&#xc3;" horiz-adv-x="520" 
d="M262 541l-33 598l-30 -598h63zM160 0h-166l137 1505h199l135 -1505h-166l-23 307h-94zM178 1823q25 1 58 -17t51 -18t45 20t37 39v-170q-31 -51 -82 -51q-25 0 -58 20t-51 19t-46 -23t-38 -38v176q31 43 84 43z" />
    <glyph glyph-name="Adieresis" unicode="&#xc4;" horiz-adv-x="520" 
d="M260 541l-31 536l-28 -536h59zM160 0h-166l137 1505h199l135 -1505h-166l-25 307h-90zM256 1638v201h150v-201h-150zM57 1638v201h152v-201h-152z" />
    <glyph glyph-name="Aring" unicode="&#xc5;" horiz-adv-x="520" 
d="M260 541l-31 536l-28 -536h59zM160 0h-166l137 1505h199l135 -1505h-166l-25 307h-90zM201 1761q0 -29 9 -47t20 -18t22 19q10 19 10 46t-10 45q-22 40 -42 1q-9 -17 -9 -46zM121 1761q0 61 32 103q31 42 77 41q46 0 78 -41q32 -40 32 -102t-32 -103t-78 -41t-78 41
t-31 102z" />
    <glyph glyph-name="AE" unicode="&#xc6;" horiz-adv-x="720" 
d="M313 541v561l-65 -561h65zM313 0v307h-100l-53 -307h-168l252 1505h409v-227h-170v-395h123v-242h-123v-414h170v-227h-340z" />
    <glyph glyph-name="Ccedilla" unicode="&#xc7;" horiz-adv-x="487" 
d="M283 -111v-141l-27 -133h-100l24 133h-37v141h140zM256 516h166v-227q0 -133 -47 -219t-156 -86q-74 0 -122 51t-63 115t-16 139v928q0 121 48 213t153 92q150 0 194 -212q9 -48 9 -93v-228h-166v228q0 90 -35 90q-29 0 -28 -82v-936q0 -90 28 -90q35 0 35 90v227z" />
    <glyph glyph-name="Egrave" unicode="&#xc8;" horiz-adv-x="438" 
d="M31 0v1505h340v-227h-170v-395h123v-242h-123v-414h170v-227h-340zM49 1823h164l66 -185h-132z" />
    <glyph glyph-name="Eacute" unicode="&#xc9;" horiz-adv-x="438" 
d="M31 0v1505h340v-227h-170v-395h123v-242h-123v-414h170v-227h-340zM186 1823h164l-96 -185h-131z" />
    <glyph glyph-name="Ecircumflex" unicode="&#xca;" horiz-adv-x="438" 
d="M31 0v1505h340v-227h-170v-395h123v-242h-123v-414h170v-227h-340zM123 1823h166l84 -185h-133l-35 80l-35 -80h-133z" />
    <glyph glyph-name="Edieresis" unicode="&#xcb;" horiz-adv-x="438" 
d="M31 0v1505h340v-227h-170v-395h123v-242h-123v-414h170v-227h-340zM229 1638v201h150v-201h-150zM31 1638v201h151v-201h-151z" />
    <glyph glyph-name="Igrave" unicode="&#xcc;" horiz-adv-x="303" 
d="M41 0v1505h170v-1505h-170zM-20 1823h163l64 -185h-129z" />
    <glyph glyph-name="Iacute" unicode="&#xcd;" horiz-adv-x="303" 
d="M31 0v1505h170v-1505h-170zM96 1823h164l-96 -185h-131z" />
    <glyph glyph-name="Icircumflex" unicode="&#xce;" horiz-adv-x="284" 
d="M27 0v1505h168v-1505h-168zM27 1823h166l83 -185h-133l-34 80l-35 -80h-133z" />
    <glyph glyph-name="Idieresis" unicode="&#xcf;" horiz-adv-x="284" 
d="M27 0v1505h170v-1505h-170zM139 1638v201h150v-201h-150zM-59 1638v201h151v-201h-151z" />
    <glyph glyph-name="Eth" unicode="&#xd0;" horiz-adv-x="518" 
d="M201 883h30v-228h-30v-434q50 0 61 46q6 26 6 69v352q0 492 -6 543t-36 51l-25 2v-401zM31 1505h123q198 0 240 -128t42 -579t-12 -525q-27 -164 -60 -199q-58 -61 -107 -67q-50 -7 -103 -7h-123v655h-37v228h37v622z" />
    <glyph glyph-name="Ntilde" unicode="&#xd1;" horiz-adv-x="546" 
d="M188 0h-157v1505h143l123 -710v710h158v-1505h-144l-123 731v-731zM188 1823q25 1 58 -17t51 -18t45 20t37 39v-170q-31 -51 -82 -51q-25 0 -57 20t-52 19q-18 -1 -46 -23t-38 -38v176q31 43 84 43z" />
    <glyph glyph-name="Ograve" unicode="&#xd2;" horiz-adv-x="495" 
d="M260 289v928q0 90 -34 90t-33 -90v-928q-1 -90 33 -90t34 90zM430 1217v-928q0 -133 -48 -219t-157 -86q-76 0 -124 48q-81 81 -83 257v928q0 131 50 218t157 87q76 0 125 -54q48 -54 64 -116q16 -63 16 -135zM55 1823h164l66 -185h-131z" />
    <glyph glyph-name="Oacute" unicode="&#xd3;" horiz-adv-x="495" 
d="M260 289v928q0 90 -34 90t-33 -90v-928q-1 -90 33 -90t34 90zM430 1217v-928q0 -133 -48 -219t-157 -86q-76 0 -124 48q-81 81 -83 257v928q0 131 50 218t157 87q76 0 125 -54q48 -54 64 -116q16 -63 16 -135zM217 1823h164l-98 -185h-131z" />
    <glyph glyph-name="Ocircumflex" unicode="&#xd4;" horiz-adv-x="495" 
d="M260 289v928q0 90 -34 90t-33 -90v-928q-1 -90 33 -90t34 90zM430 1217v-928q0 -133 -48 -219t-157 -86q-76 0 -124 48q-81 81 -83 257v928q0 131 50 218t157 87q76 0 125 -54q48 -54 64 -116q16 -63 16 -135zM141 1823h166l84 -185h-133l-35 80l-35 -80h-133z" />
    <glyph glyph-name="Otilde" unicode="&#xd5;" horiz-adv-x="495" 
d="M260 289v928q0 90 -34 90t-33 -90v-928q-1 -90 33 -90t34 90zM430 1217v-928q0 -133 -48 -219t-157 -86q-76 0 -124 48q-81 81 -83 257v928q0 131 50 218t157 87q76 0 125 -54q48 -54 64 -116q16 -63 16 -135zM164 1823q26 1 58 -17t50 -18t45 20t37 39v-170
q-31 -51 -82 -51q-26 0 -58 20t-50 19t-46 -23t-38 -38v176q31 43 84 43z" />
    <glyph glyph-name="Odieresis" unicode="&#xd6;" horiz-adv-x="495" 
d="M260 289v928q0 90 -34 90t-33 -90v-928q-1 -90 33 -90t34 90zM430 1217v-928q0 -133 -48 -219t-157 -86q-76 0 -124 48q-81 81 -83 257v928q0 131 50 218t157 87q76 0 125 -54q48 -54 64 -116q16 -63 16 -135zM250 1638v201h149v-201h-149zM51 1638v201h152v-201h-152z
" />
    <glyph glyph-name="Oslash" unicode="&#xd8;" horiz-adv-x="495" 
d="M199 289q-1 -90 33 -90t34 90v399l-67 -350v-49zM266 1217q0 90 -34 90t-33 -90v-381l67 344v37zM436 1217v-928q0 -133 -48 -219t-157 -86q-51 0 -96 24l-6 -28h-98l24 129q-31 72 -30 180v928q0 131 50 218t156 87q53 0 97 -27l6 31h94l-25 -129q33 -76 33 -180z" />
    <glyph glyph-name="Ugrave" unicode="&#xd9;" horiz-adv-x="512" 
d="M250 1505h170v-1216q0 -305 -202 -305t-202 305v1216h170v-1216q0 -90 32 -90t32 90v1216zM72 1823h164l63 -185h-131z" />
    <glyph glyph-name="Uacute" unicode="&#xda;" horiz-adv-x="512" 
d="M250 1505h170v-1216q0 -305 -202 -305t-202 305v1216h170v-1216q0 -90 32 -90t32 90v1216zM229 1823h164l-96 -185h-131z" />
    <glyph glyph-name="Ucircumflex" unicode="&#xdb;" horiz-adv-x="512" 
d="M250 1505h170v-1216q0 -305 -202 -305t-202 305v1216h170v-1216q0 -90 32 -90t32 90v1216zM131 1823h166l84 -185h-133l-35 80l-35 -80h-133z" />
    <glyph glyph-name="Udieresis" unicode="&#xdc;" horiz-adv-x="512" 
d="M250 1505h170v-1216q0 -305 -202 -305t-202 305v1216h170v-1216q0 -90 32 -90t32 90v1216zM242 1638v201h149v-201h-149zM43 1638v201h152v-201h-152z" />
    <glyph glyph-name="Yacute" unicode="&#xdd;" horiz-adv-x="483" 
d="M307 0h-170v641l-141 864h168l57 -438q13 111 60 438h168l-142 -864v-641zM199 1823h163l-98 -185h-131z" />
    <glyph glyph-name="Thorn" unicode="&#xde;" horiz-adv-x="495" 
d="M266 807q0 143 -18 184q-16 41 -47 47v-452q35 8 47 41q18 37 18 180zM31 0v1505h170v-241q100 -6 157 -95q76 -121 76 -355t-76 -355q-61 -88 -157 -99v-360h-170z" />
    <glyph glyph-name="germandbls" unicode="&#xdf;" horiz-adv-x="514" 
d="M223 979v141q23 0 38 32t15 80t-15 77t-40 28q-45 0 -45 -102v-1235h-162v1235q0 121 52 204t158 83t153 -84t47 -194t-59 -181q51 -53 73 -160t23 -395q0 -288 -51 -408q-25 -56 -70 -78t-117 -22v193q45 -1 61 75t17 314t-17 318q-18 79 -61 79z" />
    <glyph glyph-name="agrave" unicode="&#xe0;" horiz-adv-x="471" 
d="M229 254v260q-29 -37 -51 -112q-22 -76 -20 -150q0 -74 28 -74q18 0 30 22t13 54zM231 864q0 94 -26 94q-13 0 -21 -32t-8 -62v-73h-156v67q0 109 48 194t139 85q90 0 135 -81t41 -173v-688q0 -113 10 -195h-137q-18 31 -25 68q-33 -84 -104 -84q-117 0 -117 273t156 407
q57 48 65 79v121zM66 1489h163l64 -184h-131z" />
    <glyph glyph-name="aacute" unicode="&#xe1;" horiz-adv-x="471" 
d="M229 254v260q-29 -37 -51 -112q-22 -76 -20 -150q0 -74 28 -74q18 0 30 22t13 54zM231 864q0 94 -26 94q-13 0 -21 -32t-8 -62v-73h-156v67q0 109 48 194t139 85q90 0 135 -81t41 -173v-688q0 -113 10 -195h-137q-18 31 -25 68q-33 -84 -104 -84q-117 0 -117 273t156 407
q57 48 65 79v121zM186 1489h164l-98 -184h-131z" />
    <glyph glyph-name="acircumflex" unicode="&#xe2;" horiz-adv-x="471" 
d="M229 254v260q-29 -37 -51 -112q-22 -76 -20 -150q0 -74 28 -74q18 0 30 22t13 54zM231 864q0 94 -26 94q-13 0 -21 -32t-8 -62v-73h-156v67q0 109 48 194t139 85q90 0 135 -81t41 -173v-688q0 -113 10 -195h-137q-18 31 -25 68q-33 -84 -104 -84q-117 0 -117 273t156 407
q57 48 65 79v121zM123 1489h166l84 -184h-133l-35 79l-35 -79h-133z" />
    <glyph glyph-name="atilde" unicode="&#xe3;" horiz-adv-x="471" 
d="M229 254v260q-29 -37 -51 -112q-22 -76 -20 -150q0 -74 28 -74q18 0 30 22t13 54zM231 864q0 94 -26 94q-13 0 -21 -32t-8 -62v-73h-156v67q0 109 48 194t139 85q90 0 135 -81t41 -173v-688q0 -113 10 -195h-137q-18 31 -25 68q-33 -84 -104 -84q-117 0 -117 273t156 407
q57 48 65 79v121zM150 1487q26 1 58 -17t50 -18t45 20t37 39v-170q-31 -51 -82 -51q-26 0 -58 20t-50 19q-18 0 -47 -22q-27 -23 -37 -39v176q31 43 84 43z" />
    <glyph glyph-name="adieresis" unicode="&#xe4;" horiz-adv-x="471" 
d="M229 254v260q-29 -37 -51 -112q-22 -76 -20 -150q0 -74 28 -74q18 0 30 22t13 54zM231 864q0 94 -26 94q-13 0 -21 -32t-8 -62v-73h-156v67q0 109 48 194t139 85q90 0 135 -81t41 -173v-688q0 -113 10 -195h-137q-18 31 -25 68q-33 -84 -104 -84q-117 0 -117 273t156 407
q57 48 65 79v121zM233 1305v200h150v-200h-150zM35 1305v200h151v-200h-151z" />
    <glyph glyph-name="aring" unicode="&#xe5;" horiz-adv-x="471" 
d="M229 254v260q-29 -37 -51 -112q-22 -76 -20 -150q0 -74 28 -74q18 0 30 22t13 54zM231 864q0 94 -26 94q-13 0 -21 -32t-8 -62v-73h-156v67q0 109 48 194t139 85q90 0 135 -81t41 -173v-688q0 -113 10 -195h-137q-18 31 -25 68q-33 -84 -104 -84q-117 0 -117 273t156 407
q57 48 65 79v121zM176 1421q0 -29 9 -47t21 -18t21 19q10 19 11 46q0 27 -10 45q-22 38 -43 1q-9 -17 -9 -46zM96 1421q0 61 32 103t78 41q46 0 78 -41q32 -40 32 -102t-32 -103t-78 -41t-78 41t-32 102z" />
    <glyph glyph-name="ae" unicode="&#xe6;" horiz-adv-x="681" 
d="M233 254v260q-29 -37 -51 -112q-22 -76 -20 -150q0 -74 28 -74q18 0 30 22t13 54zM397 842v-158h70v158q0 115 -41 114q-29 1 -29 -114zM467 401h154v-141q0 -276 -203 -276q-78 0 -121 55q-43 -55 -117 -55t-111 58q-38 58 -46 112t-9 106q0 270 156 404q57 49 66 79
v121q0 94 -27 94q-13 0 -21 -32t-8 -62v-73h-155v67q0 109 48 194t142 85q57 0 102 -45q49 45 111 45q122 0 162 -94q29 -71 31 -187v-334h-224v-243q0 -113 31 -113q39 0 39 113v122z" />
    <glyph glyph-name="ccedilla" unicode="&#xe7;" horiz-adv-x="448" 
d="M264 -111v-141l-26 -133h-101l25 133h-37v141h139zM20 825q0 105 28 179t68 103q40 30 100 30q124 0 160 -100q25 -74 25 -201v-109h-155v147q0 82 -31 82q-13 0 -23 -26t-10 -56v-616q0 -88 32 -88t32 88v156h155v-129q0 -182 -46 -241t-148 -60q-181 0 -187 311v530z
" />
    <glyph glyph-name="egrave" unicode="&#xe8;" horiz-adv-x="456" 
d="M178 842v-158h70v158q0 115 -41 114q-29 1 -29 -114zM248 401h153v-141q0 -276 -202 -276q-68 0 -110 46t-55 104t-14 132v584q0 115 48 201t141 86q121 0 162 -94q30 -73 30 -187v-334h-223v-243q0 -113 31 -113q39 0 39 113v122zM45 1489h164l63 -184h-131z" />
    <glyph glyph-name="eacute" unicode="&#xe9;" horiz-adv-x="456" 
d="M178 842v-158h70v158q0 115 -41 114q-29 1 -29 -114zM248 401h153v-141q0 -276 -202 -276q-68 0 -110 46t-55 104t-14 132v584q0 115 48 201t141 86q121 0 162 -94q30 -73 30 -187v-334h-223v-243q0 -113 31 -113q39 0 39 113v122zM205 1489h164l-99 -184h-131z" />
    <glyph glyph-name="ecircumflex" unicode="&#xea;" horiz-adv-x="456" 
d="M178 842v-158h70v158q0 115 -41 114q-29 1 -29 -114zM248 401h153v-141q0 -276 -202 -276q-68 0 -110 46t-55 104t-14 132v584q0 115 48 201t141 86q121 0 162 -94q30 -73 30 -187v-334h-223v-243q0 -113 31 -113q39 0 39 113v122zM127 1489h166l84 -184h-133l-35 79
l-35 -79h-133z" />
    <glyph glyph-name="edieresis" unicode="&#xeb;" horiz-adv-x="456" 
d="M178 842v-158h70v158q0 115 -41 114q-29 1 -29 -114zM248 401h153v-141q0 -276 -202 -276q-68 0 -110 46t-55 104t-14 132v584q0 115 48 201t141 86q121 0 162 -94q30 -73 30 -187v-334h-223v-243q0 -113 31 -113q39 0 39 113v122zM236 1305v200h149v-200h-149zM37 1305
v200h151v-200h-151z" />
    <glyph glyph-name="igrave" unicode="&#xec;" horiz-adv-x="284" 
d="M193 0h-162v1120h162v-1120zM-37 1489h164l66 -184h-132z" />
    <glyph glyph-name="iacute" unicode="&#xed;" horiz-adv-x="284" 
d="M193 0h-162v1120h162v-1120zM94 1489h164l-96 -184h-131z" />
    <glyph glyph-name="icircumflex" unicode="&#xee;" horiz-adv-x="284" 
d="M193 0h-162v1120h162v-1120zM31 1489h166l84 -184h-134l-34 79l-35 -79h-133z" />
    <glyph glyph-name="idieresis" unicode="&#xef;" horiz-adv-x="284" 
d="M193 0h-162v1120h162v-1120zM137 1305v200h150v-200h-150zM-61 1305v200h151v-200h-151z" />
    <glyph glyph-name="eth" unicode="&#xf0;" horiz-adv-x="464" 
d="M240 258v604q0 94 -35 94q-15 0 -25 -36t-10 -58v-604q0 -92 35 -92q11 0 23 32t12 60zM393 928v-656q0 -106 -46 -197t-144 -91t-143 89q-44 89 -44 206v579q6 279 134 279q33 0 71 -35q-4 37 -20 127l-43 -64l-45 88l65 93q-9 26 -33 61l86 131l33 -68l55 82l46 -90
l-58 -88q86 -229 86 -446z" />
    <glyph glyph-name="ntilde" unicode="&#xf1;" 
d="M193 883v-883h-162v1120h162v-57q16 25 50 49t58 25q111 0 111 -219v-918h-160v885q0 72 -31 71q-28 1 -28 -73zM154 1495q26 0 58 -17q32 -18 50 -18t45 20t37 40v-170q-31 -51 -82 -52q-26 0 -58 20t-50 19t-46 -23t-38 -38v176q31 43 84 43z" />
    <glyph glyph-name="ograve" unicode="&#xf2;" horiz-adv-x="456" 
d="M212 956q-38 0 -38 -94v-604q-4 -92 35 -92q19 0 29 34t8 58v604q4 94 -34 94zM399 848v-576q0 -139 -43 -214t-147 -74q-188 0 -189 295v563q0 295 193 295q113 0 149 -75t37 -214zM43 1489h164l63 -184h-131z" />
    <glyph glyph-name="oacute" unicode="&#xf3;" horiz-adv-x="456" 
d="M212 956q-38 0 -38 -94v-604q-4 -92 35 -92q19 0 29 34t8 58v604q4 94 -34 94zM399 848v-576q0 -139 -43 -214t-147 -74q-188 0 -189 295v563q0 295 193 295q113 0 149 -75t37 -214zM201 1489h164l-97 -184h-131z" />
    <glyph glyph-name="ocircumflex" unicode="&#xf4;" horiz-adv-x="456" 
d="M212 956q-38 0 -38 -94v-604q-4 -92 35 -92q19 0 29 34t8 58v604q4 94 -34 94zM399 848v-576q0 -139 -43 -214t-147 -74q-188 0 -189 295v563q0 295 193 295q113 0 149 -75t37 -214zM127 1489h166l84 -184h-133l-35 79l-35 -79h-133z" />
    <glyph glyph-name="otilde" unicode="&#xf5;" horiz-adv-x="456" 
d="M212 956q-38 0 -38 -94v-604q-4 -92 35 -92q19 0 29 34t8 58v604q4 94 -34 94zM399 848v-576q0 -139 -43 -214t-147 -74q-188 0 -189 295v563q0 295 193 295q113 0 149 -75t37 -214zM143 1493q25 0 58 -17q33 -18 51 -18t45 20t37 40v-170q-31 -51 -82 -52q-26 0 -58 20
t-50 19t-47 -23q-28 -22 -38 -38v176q31 43 84 43z" />
    <glyph glyph-name="odieresis" unicode="&#xf6;" horiz-adv-x="456" 
d="M212 956q-38 0 -38 -94v-604q-4 -92 35 -92q19 0 29 34t8 58v604q4 94 -34 94zM399 848v-576q0 -139 -43 -214t-147 -74q-188 0 -189 295v563q0 295 193 295q113 0 149 -75t37 -214zM236 1305v200h149v-200h-149zM37 1305v200h151v-200h-151z" />
    <glyph glyph-name="oslash" unicode="&#xf8;" horiz-adv-x="468" 
d="M215 166q20 0 30 35q9 35 7 57v229l-62 -307q10 -14 25 -14zM180 862v-282l68 344q-6 33 -31 32q-37 0 -37 -94zM406 848v-576q0 -139 -44 -214t-147 -74q-31 0 -61 10l-13 -70h-92l25 129q-47 70 -47 226v563q0 295 192 295q35 -1 70 -11l14 70h88l-26 -129
q41 -63 41 -219z" />
    <glyph glyph-name="ugrave" unicode="&#xf9;" 
d="M242 238v882h161v-1120h-161v57q-16 -25 -50 -49t-59 -24q-111 0 -110 219v917h159v-884q0 -72 30 -72t30 74zM51 1489h164l64 -184h-132z" />
    <glyph glyph-name="uacute" unicode="&#xfa;" 
d="M242 238v882h161v-1120h-161v57q-16 -25 -50 -49t-59 -24q-111 0 -110 219v917h159v-884q0 -72 30 -72t30 74zM211 1489h164l-99 -184h-131z" />
    <glyph glyph-name="ucircumflex" unicode="&#xfb;" 
d="M242 238v882h161v-1120h-161v57q-16 -25 -50 -49t-59 -24q-111 0 -110 219v917h159v-884q0 -72 30 -72t30 74zM127 1489h166l84 -184h-133l-35 79l-35 -79h-133z" />
    <glyph glyph-name="udieresis" unicode="&#xfc;" 
d="M242 238v882h161v-1120h-161v57q-16 -25 -50 -49t-59 -24q-111 0 -110 219v917h159v-884q0 -72 30 -72t30 74zM233 1305v200h150v-200h-150zM35 1305v200h151v-200h-151z" />
    <glyph glyph-name="yacute" unicode="&#xfd;" horiz-adv-x="462" 
d="M213 459l53 661h160l-139 -1204q-22 -251 -149 -308q-56 -26 -115 -3v182q47 -18 71 10q37 55 37 170l-135 1153h158zM195 1489h163l-96 -184h-131z" />
    <glyph glyph-name="thorn" unicode="&#xfe;" horiz-adv-x="473" 
d="M190 883v-627q0 -78 29 -78t29 78v627q0 74 -29 73q-29 1 -29 -73zM29 -385v1890h161v-432q4 20 33 42t51 22q125 0 125 -219v-751q0 -96 -10 -116t-23 -44t-54 -23q-42 0 -76 28t-46 49v-446h-161z" />
    <glyph glyph-name="ydieresis" unicode="&#xff;" horiz-adv-x="442" 
d="M213 459l53 661h160l-139 -1204q-22 -251 -149 -308q-56 -26 -115 -3v182q47 -18 71 10q37 55 37 170l-135 1153h158zM233 1305v200h150v-200h-150zM35 1305v200h151v-200h-151z" />
    <glyph glyph-name="Amacron" unicode="&#x100;" horiz-adv-x="520" 
d="M262 541l-33 598l-30 -598h63zM160 0h-166l137 1505h199l135 -1505h-166l-23 307h-94zM94 1700v162h275v-162h-275z" />
    <glyph glyph-name="amacron" unicode="&#x101;" horiz-adv-x="471" 
d="M229 254v260q-29 -37 -51 -112q-22 -76 -20 -150q0 -74 28 -74q18 0 30 22t13 54zM231 864q0 94 -26 94q-13 0 -21 -32t-8 -62v-73h-156v67q0 109 48 194t139 85q90 0 135 -81t41 -173v-688q0 -113 10 -195h-137q-18 31 -25 68q-33 -84 -104 -84q-117 0 -117 273t156 407
q57 48 65 79v121zM70 1315v162h274v-162h-274z" />
    <glyph glyph-name="Abreve" unicode="&#x102;" horiz-adv-x="520" 
d="M262 541l-33 598l-30 -598h63zM160 0h-166l137 1505h199l135 -1505h-166l-23 307h-94zM233 1831q27 0 72 63l80 -114q-63 -98 -152 -99q-47 0 -89 29t-62 70l84 116q31 -66 67 -65z" />
    <glyph glyph-name="abreve" unicode="&#x103;" horiz-adv-x="471" 
d="M229 254v260q-29 -37 -51 -112q-22 -76 -20 -150q0 -74 28 -74q18 0 30 22t13 54zM231 864q0 94 -26 94q-13 0 -21 -32t-8 -62v-73h-156v67q0 109 48 194t139 85q90 0 135 -81t41 -173v-688q0 -113 10 -195h-137q-18 31 -25 68q-33 -84 -104 -84q-117 0 -117 273t156 407
q57 48 65 79v121zM209 1450q14 0 27 11t45 52l79 -114q-63 -98 -151 -99q-47 0 -89 29t-63 70l84 117q31 -66 68 -66z" />
    <glyph glyph-name="Aogonek" unicode="&#x104;" horiz-adv-x="520" 
d="M262 541l-33 598l-30 -598h63zM352 -166q0 -82 43 -82q14 0 70 41l-8 -153q-43 -25 -95 -25t-92 50q-39 50 -39 132t84 203h-16l-23 307h-94l-22 -307h-166l137 1505h199l135 -1505h-59q-54 -84 -54 -166z" />
    <glyph glyph-name="aogonek" unicode="&#x105;" horiz-adv-x="471" 
d="M229 254v260q-29 -37 -51 -112q-22 -76 -20 -150q0 -74 28 -74q18 0 30 22t13 54zM319 -248q14 0 70 41l-10 -153q-41 -25 -93 -25t-92 50q-38 50 -38 124t41 148q37 59 59 63q-18 31 -25 68q-33 -84 -104 -84q-117 0 -117 273t156 407q57 48 65 79v121q0 94 -26 94
q-13 0 -21 -32t-8 -62v-73h-156v67q0 109 48 194t139 85q90 0 135 -81t41 -173v-688q0 -113 10 -195h-63q-52 -80 -53 -164t42 -84z" />
    <glyph glyph-name="Cacute" unicode="&#x106;" horiz-adv-x="487" 
d="M256 516h166v-227q0 -133 -47 -219t-156 -86q-74 0 -122 51t-63 115t-16 139v928q0 121 48 213t153 92q150 0 194 -212q9 -48 9 -93v-228h-166v228q0 90 -35 90q-29 0 -28 -82v-936q0 -90 28 -90q35 0 35 90v227zM164 1874h164l-99 -184h-129z" />
    <glyph glyph-name="cacute" unicode="&#x107;" horiz-adv-x="448" 
d="M20 825q0 105 28 179t68 103q40 30 100 30q124 0 160 -100q25 -74 25 -201v-109h-155v147q0 82 -31 82q-13 0 -23 -26t-10 -56v-616q0 -88 32 -88t32 88v156h155v-129q0 -182 -46 -241t-148 -60q-181 0 -187 311v530zM143 1489h164l-96 -184h-131z" />
    <glyph glyph-name="Ccircumflex" unicode="&#x108;" horiz-adv-x="487" 
d="M256 516h166v-227q0 -133 -47 -219t-156 -86q-74 0 -122 51t-63 115t-16 139v928q0 121 48 213t153 92q150 0 194 -212q9 -48 9 -93v-228h-166v228q0 90 -35 90q-29 0 -28 -82v-936q0 -90 28 -90q35 0 35 90v227zM131 1823h166l84 -185h-133l-35 80l-35 -80h-133z" />
    <glyph glyph-name="ccircumflex" unicode="&#x109;" horiz-adv-x="448" 
d="M20 825q0 105 28 179t68 103q40 30 100 30q124 0 160 -100q25 -74 25 -201v-109h-155v147q0 82 -31 82q-13 0 -23 -26t-10 -56v-616q0 -88 32 -88t32 88v156h155v-129q0 -182 -46 -241t-148 -60q-181 0 -187 311v530zM129 1489h166l84 -184h-133l-35 79l-35 -79h-133z
" />
    <glyph glyph-name="Cdotaccent" unicode="&#x10a;" horiz-adv-x="487" 
d="M256 516h166v-227q0 -133 -47 -219t-156 -86q-74 0 -122 51t-63 115t-16 139v928q0 121 48 213t153 92q150 0 194 -212q9 -48 9 -93v-228h-166v228q0 90 -35 90q-29 0 -28 -82v-936q0 -90 28 -90q35 0 35 90v227zM133 1683v207h162v-207h-162z" />
    <glyph glyph-name="cdotaccent" unicode="&#x10b;" horiz-adv-x="448" 
d="M20 825q0 105 28 179t68 103q40 30 100 30q124 0 160 -100q25 -74 25 -201v-109h-155v147q0 82 -31 82q-13 0 -23 -26t-10 -56v-616q0 -88 32 -88t32 88v156h155v-129q0 -182 -46 -241t-148 -60q-181 0 -187 311v530zM135 1298v207h160v-207h-160z" />
    <glyph glyph-name="Ccaron" unicode="&#x10c;" horiz-adv-x="487" 
d="M256 516h166v-227q0 -133 -47 -219t-156 -86q-74 0 -122 51t-63 115t-16 139v928q0 121 48 213t153 92q150 0 194 -212q9 -48 9 -93v-228h-166v228q0 90 -35 90q-29 0 -28 -82v-936q0 -90 28 -90q35 0 35 90v227zM301 1690h-166l-86 184h133l35 -80l35 80h133z" />
    <glyph glyph-name="ccaron" unicode="&#x10d;" horiz-adv-x="448" 
d="M20 825q0 105 28 179t68 103q40 30 100 30q124 0 160 -100q25 -74 25 -201v-109h-155v147q0 82 -31 82q-13 0 -23 -26t-10 -56v-616q0 -88 32 -88t32 88v156h155v-129q0 -182 -46 -241t-148 -60q-181 0 -187 311v530zM283 1305h-166l-86 184h133l35 -80l34 80h134z" />
    <glyph glyph-name="Dcaron" unicode="&#x10e;" horiz-adv-x="518" 
d="M201 221q50 0 61 46q6 26 6 69v352q0 492 -6 543t-36 51l-25 2v-1063zM195 0h-164v1505h141q100 0 148 -34t82 -142q34 -109 34 -607t-26 -576t-74 -112q-47 -34 -141 -34zM307 1690h-166l-86 184h133l35 -80l35 80h133z" />
    <glyph glyph-name="dcaron" unicode="&#x10f;" horiz-adv-x="659" 
d="M219 246v628q0 25 -6 47t-12 21q-14 0 -15 -68v-628q0 -68 16 -68t17 68zM592 1505v-227l-68 -266h-98l51 266h-51v227h166zM381 1505v-1505h-162v27q-25 -25 -38 -34t-42 -9q-63 0 -90 75q-23 55 -22 144v715q-1 86 25 152t87 67q35 0 80 -41v409h162z" />
    <glyph glyph-name="Dcroat" unicode="&#x110;" horiz-adv-x="518" 
d="M201 840h32v-162h-32v-457q50 0 61 46q6 26 6 69v352q0 492 -6 543t-36 51l-25 2v-444zM31 1505h141q100 0 148 -34t82 -142q34 -109 34 -607t-26 -576t-74 -112q-47 -34 -141 -34h-164v678h-72v162h72v665z" />
    <glyph glyph-name="dcroat" unicode="&#x111;" horiz-adv-x="473" 
d="M219 246v628q0 25 -6 47t-12 21q-14 0 -15 -68v-628q0 -68 16 -68t17 68zM410 1417v-194h-29v-1223h-162v27q-25 -25 -38 -34t-42 -9q-63 0 -90 75q-23 55 -22 144v715q-1 86 25 152t87 67q35 0 80 -41v127h-24v194h24v88h162v-88h29z" />
    <glyph glyph-name="Emacron" unicode="&#x112;" horiz-adv-x="438" 
d="M31 0v1505h340v-227h-170v-395h123v-242h-123v-414h170v-227h-340zM53 1700v162h275v-162h-275z" />
    <glyph glyph-name="emacron" unicode="&#x113;" horiz-adv-x="456" 
d="M178 842v-158h70v158q0 115 -41 114q-29 1 -29 -114zM248 401h153v-141q0 -276 -202 -276q-68 0 -110 46t-55 104t-14 132v584q0 115 48 201t141 86q121 0 162 -94q30 -73 30 -187v-334h-223v-243q0 -113 31 -113q39 0 39 113v122zM76 1315v162h274v-162h-274z" />
    <glyph glyph-name="Ebreve" unicode="&#x114;" horiz-adv-x="438" 
d="M31 0v1505h340v-227h-170v-395h123v-242h-123v-414h170v-227h-340zM178 1688q-56 0 -94 40t-45 54l84 121q35 -61 46 -67t25 -5q14 0 37 22l31 48l80 -119q-29 -49 -86 -80h2q-24 -14 -80 -14z" />
    <glyph glyph-name="ebreve" unicode="&#x115;" horiz-adv-x="456" 
d="M178 842v-158h70v158q0 115 -41 114q-29 1 -29 -114zM248 401h153v-141q0 -276 -202 -276q-68 0 -110 46t-55 104t-14 132v584q0 115 48 201t141 86q121 0 162 -94q30 -73 30 -187v-334h-223v-243q0 -113 31 -113q39 0 39 113v122zM213 1452q31 0 72 64l80 -115
q-63 -98 -152 -98q-47 1 -89 29t-63 69l84 117q31 -66 68 -66z" />
    <glyph glyph-name="Edotaccent" unicode="&#x116;" horiz-adv-x="438" 
d="M31 0v1505h340v-227h-170v-395h123v-242h-123v-414h170v-227h-340zM109 1683v207h161v-207h-161z" />
    <glyph glyph-name="edotaccent" unicode="&#x117;" horiz-adv-x="456" 
d="M178 842v-158h70v158q0 115 -41 114q-29 1 -29 -114zM248 401h153v-141q0 -276 -202 -276q-68 0 -110 46t-55 104t-14 132v584q0 115 48 201t141 86q121 0 162 -94q30 -73 30 -187v-334h-223v-243q0 -113 31 -113q39 0 39 113v122zM133 1298v207h162v-207h-162z" />
    <glyph glyph-name="Eogonek" unicode="&#x118;" horiz-adv-x="438" 
d="M371 0h-60q-51 -67 -51 -158q0 -90 43 -90q14 0 70 41l-11 -153q-43 -25 -95 -25t-91 50t-39 120t43 152q4 5 18 25t27 38h-194v1505h340v-227h-170v-395h123v-242h-123v-414h170v-227z" />
    <glyph glyph-name="eogonek" unicode="&#x119;" horiz-adv-x="456" 
d="M178 842v-158h70v158q0 115 -41 114q-29 1 -29 -114zM20 266v584q0 115 48 201t141 86q121 0 162 -94q30 -73 30 -187v-334h-223v-243q0 -113 31 -113q39 0 39 113v122h153v-141q0 -209 -116 -260h37q-54 -82 -54 -165t43 -83q14 0 70 41l-10 -153q-41 -25 -93 -25
t-93 51q-40 51 -40 134t72 184h-27q-170 8 -170 282z" />
    <glyph glyph-name="Ecaron" unicode="&#x11a;" horiz-adv-x="438" 
d="M31 0v1505h340v-227h-170v-395h123v-242h-123v-414h170v-227h-340zM283 1690h-166l-86 184h133l35 -80l34 80h134z" />
    <glyph glyph-name="ecaron" unicode="&#x11b;" horiz-adv-x="456" 
d="M178 842v-158h70v158q0 115 -41 114q-29 1 -29 -114zM248 401h153v-141q0 -276 -202 -276q-68 0 -110 46t-55 104t-14 132v584q0 115 48 201t141 86q121 0 162 -94q30 -73 30 -187v-334h-223v-243q0 -113 31 -113q39 0 39 113v122zM293 1305h-166l-86 184h133l35 -80
l35 80h133z" />
    <glyph glyph-name="Gcircumflex" unicode="&#x11c;" horiz-adv-x="503" 
d="M424 965h-170v252q0 90 -32 90t-32 -90v-947q0 -90 35 -90q41 0 41 90v293h-37v187h195v-750h-88l-19 55q-14 -27 -49 -49q-79 -51 -155 9q-91 74 -95 274v928q0 121 50 213t153 92q151 0 194 -206q9 -48 9 -99v-252zM137 1823h166l84 -185h-133l-35 80l-35 -80h-133z
" />
    <glyph glyph-name="gcircumflex" unicode="&#x11d;" horiz-adv-x="481" 
d="M145 -150q0 -78 64 -77q33 1 55 23t21 52q-1 60 -54 80l-49 17q-37 -41 -37 -95zM233 537v317q-1 102 -29 102t-28 -102v-317q0 -100 27 -101q30 1 30 101zM391 879v-338q-6 -105 -55 -191t-143 -86h-11q-12 -20 -12 -49q0 -47 85 -71t120 -62q63 -78 63 -199t-56 -203
t-168 -81q-112 0 -168 58q-56 59 -56 155t106 174h2q-88 43 -88 142t84 175q-78 119 -78 244v305q5 154 79 237q44 48 120 48t115 -70q59 70 129 70v-185q-57 0 -76 -24q8 -16 8 -49zM127 1489h166l84 -184h-133l-35 79l-35 -79h-133z" />
    <glyph glyph-name="Gbreve" unicode="&#x11e;" horiz-adv-x="503" 
d="M424 965h-170v252q0 90 -32 90t-32 -90v-947q0 -90 35 -90q41 0 41 90v293h-37v187h195v-750h-88l-19 55q-14 -27 -49 -49q-79 -51 -155 9q-91 74 -95 274v928q0 121 50 213t153 92q151 0 194 -206q9 -48 9 -99v-252zM223 1835q27 0 72 63l80 -114q-63 -98 -152 -98
q-47 0 -89 28t-62 70l84 117q31 -66 67 -66z" />
    <glyph glyph-name="gbreve" unicode="&#x11f;" horiz-adv-x="481" 
d="M145 -150q0 -78 64 -77q33 1 55 23t21 52q-1 60 -54 80l-49 17q-37 -41 -37 -95zM233 537v317q-1 102 -29 102t-28 -102v-317q0 -100 27 -101q30 1 30 101zM391 879v-338q-6 -105 -55 -191t-143 -86h-11q-12 -20 -12 -49q0 -47 85 -71t120 -62q63 -78 63 -199t-56 -203
t-168 -81q-112 0 -168 58q-56 59 -56 155t106 174h2q-88 43 -88 142t84 175q-78 119 -78 244v305q5 154 79 237q44 48 120 48t115 -70q59 70 129 70v-185q-57 0 -76 -24q8 -16 8 -49zM218 1452q35 0 73 64l80 -115q-63 -98 -152 -98q-47 1 -89 29t-62 69l84 117
q31 -66 66 -66z" />
    <glyph glyph-name="Gdotaccent" unicode="&#x120;" horiz-adv-x="503" 
d="M424 965h-170v252q0 90 -32 90t-32 -90v-947q0 -90 35 -90q41 0 41 90v293h-37v187h195v-750h-88l-19 55q-14 -27 -49 -49q-79 -51 -155 9q-91 74 -95 274v928q0 121 50 213t153 92q151 0 194 -206q9 -48 9 -99v-252zM143 1683v207h160v-207h-160z" />
    <glyph glyph-name="gdotaccent" unicode="&#x121;" horiz-adv-x="481" 
d="M145 -150q0 -78 64 -77q33 1 55 23t21 52q-1 60 -54 80l-49 17q-37 -41 -37 -95zM233 537v317q-1 102 -29 102t-28 -102v-317q0 -100 27 -101q30 1 30 101zM391 879v-338q-6 -105 -55 -191t-143 -86h-11q-12 -20 -12 -49q0 -47 85 -71t120 -62q63 -78 63 -199t-56 -203
t-168 -81q-112 0 -168 58q-56 59 -56 155t106 174h2q-88 43 -88 142t84 175q-78 119 -78 244v305q5 154 79 237q44 48 120 48t115 -70q59 70 129 70v-185q-57 0 -76 -24q8 -16 8 -49zM131 1298v207h162v-207h-162z" />
    <glyph glyph-name="Gcommaaccent" unicode="&#x122;" horiz-adv-x="503" 
d="M283 -111v-141l-27 -133h-100l32 133h-45v141h140zM424 965h-170v252q0 90 -32 90t-32 -90v-947q0 -90 35 -90q41 0 41 90v293h-37v187h195v-750h-88l-19 55q-14 -27 -49 -49q-79 -51 -155 9q-91 74 -95 274v928q0 121 50 213t153 92q151 0 194 -206q9 -48 9 -99v-252z
" />
    <glyph glyph-name="gcommaaccent" unicode="&#x123;" horiz-adv-x="481" 
d="M145 -150q0 -78 64 -77q33 1 55 23t21 52q-1 60 -54 80l-49 17q-37 -41 -37 -95zM233 537v317q-1 102 -29 102t-28 -102v-317q0 -100 27 -101q30 1 30 101zM391 879v-338q-6 -105 -55 -191t-143 -86h-11q-12 -20 -12 -49q0 -47 85 -71t120 -62q63 -78 63 -199t-56 -203
t-168 -81q-112 0 -168 58q-56 59 -56 155t106 174h2q-88 43 -88 142t84 175q-78 119 -78 244v305q5 154 79 237q44 48 120 48t115 -70q59 70 129 70v-185q-57 0 -76 -24q8 -16 8 -49zM131 1397v227l68 266h98l-43 -266h43v-227h-166z" />
    <glyph glyph-name="Hcircumflex" unicode="&#x124;" horiz-adv-x="528" 
d="M266 0v655h-65v-655h-170v1505h170v-622h65v622h170v-1505h-170zM154 1823h165l84 -185h-133l-34 80l-35 -80h-133z" />
    <glyph glyph-name="hcircumflex" unicode="&#x125;" 
d="M399 918v-918h-153v883q0 74 -27 73q-27 0 -26 -73v-883h-162v1505h162v-16h100l84 -184h-148l-22 41l-14 -37v-234q4 20 32 41q29 20 66 20t73 -53t35 -165z" />
    <glyph glyph-name="Hbar" unicode="&#x126;" horiz-adv-x="528" 
d="M266 883v239h-65v-239h65zM485 1284v-162h-49v-1122h-170v655h-65v-655h-170v1122h-47v162h47v221h170v-221h65v221h170v-221h49z" />
    <glyph glyph-name="hbar" unicode="&#x127;" 
d="M193 883v-883h-162v1253h-47v162h47v90h162v-90h67v-162h-67v-178q4 20 32 41q29 20 66 20t73 -53q36 -54 35 -165v-918h-153v883q0 74 -27 73q-26 1 -26 -73z" />
    <glyph glyph-name="Itilde" unicode="&#x128;" horiz-adv-x="292" 
d="M31 0v1505h170v-1505h-170zM63 1878q25 0 58 -17t51 -17t45 20t37 39v-170q-31 -51 -82 -52q-26 -1 -58 19t-50 20t-47 -22q-27 -23 -37 -39v176q31 43 83 43z" />
    <glyph glyph-name="itilde" unicode="&#x129;" horiz-adv-x="284" 
d="M193 0h-162v1120h162v-1120zM59 1495q25 0 58 -17q33 -18 51 -18t45 20t37 40v-170q-31 -51 -82 -52q-26 0 -58 20t-50 19t-47 -23q-28 -22 -38 -38v176q31 43 84 43z" />
    <glyph glyph-name="Imacron" unicode="&#x12a;" horiz-adv-x="292" 
d="M31 0v1505h170v-1505h-170zM-20 1700v162h274v-162h-274z" />
    <glyph glyph-name="imacron" unicode="&#x12b;" horiz-adv-x="284" 
d="M193 0h-162v1120h162v-1120zM-25 1315v162h275v-162h-275z" />
    <glyph glyph-name="Ibreve" unicode="&#x12c;" horiz-adv-x="292" 
d="M31 0v1505h170v-1505h-170zM115 1837q35 0 73 64l80 -115q-63 -98 -151 -98q-47 0 -89 28t-63 70l84 117q31 -66 66 -66z" />
    <glyph glyph-name="ibreve" unicode="&#x12d;" horiz-adv-x="284" 
d="M193 0h-162v1120h162v-1120zM117 1452q35 0 73 64l80 -115q-63 -98 -151 -98q-47 1 -89 29t-63 69l84 117q31 -66 66 -66z" />
    <glyph glyph-name="Iogonek" unicode="&#x12e;" horiz-adv-x="292" 
d="M6 -335q-39 50 -39 135t84 200h-20v1505h170v-1505h-60q-53 -82 -53 -165t43 -83q14 0 70 41l-8 -153q-43 -25 -95 -25t-92 50z" />
    <glyph glyph-name="iogonek" unicode="&#x12f;" horiz-adv-x="284" 
d="M117 -165q0 -83 43 -83q14 0 69 41l-10 -153q-41 -25 -93 -25t-92 50q-38 50 -38 130t49 154q23 33 37 51h-51v1120h162v-1120h-23q-53 -82 -53 -165zM193 1505v-207h-162v207h162z" />
    <glyph glyph-name="Idotaccent" unicode="&#x130;" horiz-adv-x="292" 
d="M31 0v1505h170v-1505h-170zM37 1683v207h162v-207h-162z" />
    <glyph glyph-name="dotlessi" unicode="&#x131;" horiz-adv-x="284" 
d="M193 0h-162v1120h162v-1120z" />
    <glyph glyph-name="IJ" unicode="&#x132;" horiz-adv-x="546" 
d="M313 313v1192h170v-1226q0 -145 -55 -224t-190 -67v221q45 -9 60 25t15 79zM31 0v1505h170v-1505h-170z" />
    <glyph glyph-name="ij" unicode="&#x133;" horiz-adv-x="501" 
d="M252 1120h162v-1149q0 -147 -16 -213t-54 -105q-37 -38 -83 -38t-81 16l4 187q16 0 28 -4t20 9t14 19t6 30v1248zM193 0h-162v1120h162v-1120zM252 1298v207h162v-207h-162zM31 1298v207h162v-207h-162z" />
    <glyph glyph-name="Jcircumflex" unicode="&#x134;" horiz-adv-x="315" 
d="M61 313v1192h170v-1226q0 -145 -55 -224t-190 -67v221q45 -9 60 25t15 79zM57 1823h166l84 -185h-133l-35 80l-35 -80h-133z" />
    <glyph glyph-name="jcircumflex" unicode="&#x135;" horiz-adv-x="280" 
d="M190 1120v-1149q0 -147 -16 -213t-53 -105q-37 -38 -83 -38t-81 16l4 187q29 -10 49 4t19 104v1194h161zM188 1321v-23h-161v23h-84l84 184h166l86 -184h-91z" />
    <glyph glyph-name="Kcommaaccent" unicode="&#x136;" horiz-adv-x="522" 
d="M283 -111v-141l-27 -133h-100l24 133h-37v141h140zM31 1505h164v-432l110 432h166l-149 -551l145 -954h-166l-106 717v-717h-164v1505z" />
    <glyph glyph-name="kcommaaccent" unicode="&#x137;" horiz-adv-x="446" 
d="M283 -111v-141l-27 -133h-100l24 133h-37v141h140zM31 1505h155v-618l76 233h156l-137 -385l133 -735h-156l-72 475v-475h-155v1505z" />
    <glyph glyph-name="kgreenlandic" unicode="&#x138;" horiz-adv-x="446" 
d="M31 1505h155v-618l76 233h156l-137 -385l133 -735h-156l-72 475v-475h-155v1505z" />
    <glyph glyph-name="Lacute" unicode="&#x139;" horiz-adv-x="423" 
d="M31 0v1505h170v-1300h176v-205h-346zM131 1874h164l-96 -184h-131z" />
    <glyph glyph-name="lacute" unicode="&#x13a;" horiz-adv-x="284" 
d="M193 0h-162v1505h162v-1505zM61 1716h164l-96 -184h-131z" />
    <glyph glyph-name="Lcommaaccent" unicode="&#x13b;" horiz-adv-x="423" 
d="M283 -111v-141l-27 -133h-100l24 133h-37v141h140zM31 0v1505h170v-1300h176v-205h-346z" />
    <glyph glyph-name="lcommaaccent" unicode="&#x13c;" horiz-adv-x="284" 
d="M184 -96v-142l-26 -133h-101l25 133h-37v142h139zM193 0h-162v1505h162v-1505z" />
    <glyph glyph-name="Lcaron" unicode="&#x13d;" horiz-adv-x="485" 
d="M31 0v1505h170v-1300h176v-205h-346zM434 1737v-228l-67 -266h-99l43 266h-43v228h166z" />
    <glyph glyph-name="lcaron" unicode="&#x13e;" horiz-adv-x="468" 
d="M434 1505v-227l-67 -266h-99l43 266h-43v227h166zM193 0h-162v1505h162v-1505z" />
    <glyph glyph-name="Ldot" unicode="&#x13f;" horiz-adv-x="456" 
d="M252 674v227h166v-227h-166zM31 0v1505h170v-1300h176v-205h-346z" />
    <glyph glyph-name="ldot" unicode="&#x140;" horiz-adv-x="456" 
d="M254 649v228h166v-228h-166zM193 0h-162v1505h162v-1505z" />
    <glyph glyph-name="Lslash" unicode="&#x141;" horiz-adv-x="438" 
d="M45 844v661h170v-454l72 94v-262l-74 -99h2v-579h176v-205h-346v580l-47 -68v270l49 62h-2z" />
    <glyph glyph-name="lslash" unicode="&#x142;" horiz-adv-x="342" 
d="M221 0h-162v594q-7 -8 -29 -37t-30 -41v262l61 82h-2v645h162v-438q6 8 29 37t31 41v-262l-62 -82h2v-801z" />
    <glyph glyph-name="Nacute" unicode="&#x143;" horiz-adv-x="546" 
d="M188 0h-157v1505h143l123 -710v710h158v-1505h-144l-123 731v-731zM193 1874h163l-96 -184h-131z" />
    <glyph glyph-name="nacute" unicode="&#x144;" 
d="M193 883v-883h-162v1120h162v-57q16 25 50 49t58 25q111 0 111 -219v-918h-160v885q0 72 -31 71q-28 1 -28 -73zM158 1489h164l-99 -184h-129z" />
    <glyph glyph-name="Ncommaaccent" unicode="&#x145;" horiz-adv-x="546" 
d="M283 -111v-141l-27 -133h-100l24 133h-37v141h140zM188 0h-157v1505h143l123 -710v710h158v-1505h-144l-123 731v-731z" />
    <glyph glyph-name="ncommaaccent" unicode="&#x146;" 
d="M283 -111v-141l-27 -133h-100l24 133h-37v141h140zM193 883v-883h-162v1120h162v-57q16 25 50 49t58 25q111 0 111 -219v-918h-160v885q0 72 -31 71q-28 1 -28 -73z" />
    <glyph glyph-name="Ncaron" unicode="&#x147;" horiz-adv-x="546" 
d="M188 0h-157v1505h143l123 -710v710h158v-1505h-144l-123 731v-731zM328 1690h-166l-86 184h133l35 -80l35 80h133z" />
    <glyph glyph-name="ncaron" unicode="&#x148;" 
d="M193 883v-883h-162v1120h162v-57q16 25 50 49t58 25q111 0 111 -219v-918h-160v885q0 72 -31 71q-28 1 -28 -73zM289 1305h-166l-86 184h133l35 -80l35 80h133z" />
    <glyph glyph-name="napostrophe" unicode="&#x149;" 
d="M193 883v-883h-162v1120h162v-57q16 25 50 49t58 25q111 0 111 -219v-918h-160v885q0 72 -31 71q-28 1 -28 -73zM125 1442v-142l-29 -133h-98l25 133h-39v142h141z" />
    <glyph glyph-name="Eng" unicode="&#x14a;" horiz-adv-x="546" 
d="M297 1505h158v-1505q-4 -102 -37 -172q-45 -90 -170 -74v213q33 -10 51 33l-111 721v-721h-157v1505h145l121 -714v714z" />
    <glyph glyph-name="eng" unicode="&#x14b;" 
d="M193 883v-883h-162v1120h162v-57q16 25 50 49t58 25q111 0 111 -219v-957q0 -102 -48 -173t-178 -58v178q39 -8 60 20h-2q8 20 8 60v899q0 70 -31 69q-28 1 -28 -73z" />
    <glyph glyph-name="Omacron" unicode="&#x14c;" horiz-adv-x="495" 
d="M260 289v928q0 90 -34 90t-33 -90v-928q-1 -90 33 -90t34 90zM430 1217v-928q0 -133 -48 -219t-157 -86q-76 0 -124 48q-81 81 -83 257v928q0 131 50 218t157 87q76 0 125 -54q48 -54 64 -116q16 -63 16 -135zM82 1700v162h274v-162h-274z" />
    <glyph glyph-name="omacron" unicode="&#x14d;" horiz-adv-x="456" 
d="M212 956q-38 0 -38 -94v-604q-4 -92 35 -92q19 0 29 34t8 58v604q4 94 -34 94zM399 848v-576q0 -139 -43 -214t-147 -74q-188 0 -189 295v563q0 295 193 295q113 0 149 -75t37 -214zM61 1315v162h275v-162h-275z" />
    <glyph glyph-name="Obreve" unicode="&#x14e;" horiz-adv-x="495" 
d="M260 289v928q0 90 -34 90t-33 -90v-928q-1 -90 33 -90t34 90zM430 1217v-928q0 -133 -48 -219t-157 -86q-76 0 -124 48q-81 81 -83 257v928q0 131 50 218t157 87q76 0 125 -54q48 -54 64 -116q16 -63 16 -135zM218 1837q35 0 73 64l80 -115q-63 -98 -152 -98
q-47 0 -89 28t-62 70l84 117q31 -66 66 -66z" />
    <glyph glyph-name="obreve" unicode="&#x14f;" horiz-adv-x="456" 
d="M212 956q-38 0 -38 -94v-604q-4 -92 35 -92q19 0 29 34t8 58v604q4 94 -34 94zM399 848v-576q0 -139 -43 -214t-147 -74q-188 0 -189 295v563q0 295 193 295q113 0 149 -75t37 -214zM197 1452q35 0 73 64l80 -115q-63 -98 -151 -98q-47 1 -89 29t-63 69l84 117
q31 -66 66 -66z" />
    <glyph glyph-name="Ohungarumlaut" unicode="&#x150;" horiz-adv-x="495" 
d="M260 289v928q0 90 -34 90t-33 -90v-928q-1 -90 33 -90t34 90zM430 1217v-928q0 -133 -48 -219t-157 -86q-76 0 -124 48q-81 81 -83 257v928q0 131 50 218t157 87q76 0 125 -54q48 -54 64 -116q16 -63 16 -135zM301 1874h164l-98 -184h-131zM78 1874h164l-99 -184h-129z
" />
    <glyph glyph-name="ohungarumlaut" unicode="&#x151;" horiz-adv-x="456" 
d="M212 956q-38 0 -38 -94v-604q-4 -92 35 -92q19 0 29 34t8 58v604q4 94 -34 94zM399 848v-576q0 -139 -43 -214t-147 -74q-188 0 -189 295v563q0 295 193 295q113 0 149 -75t37 -214zM279 1489h163l-96 -184h-131zM57 1489h164l-98 -184h-131z" />
    <glyph glyph-name="OE" unicode="&#x152;" horiz-adv-x="651" 
d="M264 309v887q0 29 -10 70t-26 41t-25 -40q-10 -40 -10 -71v-887q0 -43 10 -77t24 -33q21 1 29 41t8 69zM604 0h-377q-205 10 -204 309v887q0 309 204 309h377v-227h-170v-395h123v-242h-123v-414h170v-227z" />
    <glyph glyph-name="oe" unicode="&#x153;" horiz-adv-x="659" 
d="M410 842v-158h69v158q0 115 -41 114q-28 1 -28 -114zM214 956q-38 0 -38 -94v-604q-4 -92 35 -92q19 0 29 34t8 58v604q4 94 -34 94zM479 401h154v-141q0 -276 -203 -276q-61 0 -102 36q-47 -37 -117 -36q-188 0 -188 295v563q0 295 192 295q76 0 121 -41q45 41 105 41
q59 0 101 -25q90 -55 91 -256v-334h-223v-243q0 -113 30 -113q39 0 39 113v122z" />
    <glyph glyph-name="Racute" unicode="&#x154;" horiz-adv-x="505" 
d="M201 1286v-457q31 0 48 26t17 204q0 179 -15 203t-50 24zM201 0h-170v1505h172q117 -1 171 -109t54 -342t-78 -325l105 -729h-166l-88 655v-655zM172 1874h164l-96 -184h-131z" />
    <glyph glyph-name="racute" unicode="&#x155;" horiz-adv-x="364" 
d="M326 1137v-246q-68 39 -103 1t-35 -114v-778h-157v1120h157v-61q46 78 138 78zM102 1489h164l-98 -184h-129z" />
    <glyph glyph-name="Rcommaaccent" unicode="&#x156;" horiz-adv-x="505" 
d="M283 -111v-141l-27 -133h-100l24 133h-37v141h140zM201 1286v-457q31 0 48 26t17 204q0 179 -15 203t-50 24zM201 0h-170v1505h172q117 -1 171 -109t54 -342t-78 -325l105 -729h-166l-88 655v-655z" />
    <glyph glyph-name="rcommaaccent" unicode="&#x157;" horiz-adv-x="364" 
d="M182 -98v-142l-26 -133h-101l25 133h-39v142h141zM326 1137v-246q-68 39 -103 1t-35 -114v-778h-157v1120h157v-61q46 78 138 78z" />
    <glyph glyph-name="Rcaron" unicode="&#x158;" horiz-adv-x="505" 
d="M201 1286v-457q31 0 48 26t17 204q0 179 -15 203t-50 24zM201 0h-170v1505h172q117 -1 171 -109t54 -342t-78 -325l105 -729h-166l-88 655v-655zM307 1690h-166l-86 184h133l35 -80l35 80h133z" />
    <glyph glyph-name="rcaron" unicode="&#x159;" horiz-adv-x="364" 
d="M326 1137v-246q-68 39 -103 1t-35 -114v-778h-157v1120h157v-61q46 78 138 78zM238 1305h-166l-86 184h133l35 -80l34 80h134z" />
    <glyph glyph-name="Sacute" unicode="&#x15a;" horiz-adv-x="483" 
d="M219 1319q-31 0 -31 -150q0 -102 84 -308t114 -311q32 -105 32 -208q0 -358 -203 -358q-129 0 -173 130q-38 111 -38 237v69l166 24q0 -258 45 -258q23 0 29 33t6 116t-29 172t-106 275q-92 248 -92 387q0 346 190 353q205 3 205 -398l-168 -24q0 219 -31 219zM162 1874
h164l-99 -184h-131z" />
    <glyph glyph-name="sacute" unicode="&#x15b;" horiz-adv-x="440" 
d="M381 834h-139q0 131 -37 131q-29 0 -29 -91t20 -132q45 -97 58 -117q123 -203 123 -377t-91 -237q-40 -27 -98 -27t-99 30q-85 63 -85 312h148q0 -170 38 -170q33 0 33 135q0 81 -89 247t-99 229t-10 103q0 115 44 191t132 76q180 0 180 -303zM139 1489h164l-96 -184
h-131z" />
    <glyph glyph-name="Scircumflex" unicode="&#x15c;" horiz-adv-x="483" 
d="M219 1319q-31 0 -31 -150q0 -102 84 -308t114 -311q32 -105 32 -208q0 -358 -203 -358q-129 0 -173 130q-38 111 -38 237v69l166 24q0 -258 45 -258q23 0 29 33t6 116t-29 172t-106 275q-92 248 -92 387q0 346 190 353q205 3 205 -398l-168 -24q0 219 -31 219zM131 1823
h166l84 -185h-133l-35 80l-35 -80h-133z" />
    <glyph glyph-name="scircumflex" unicode="&#x15d;" horiz-adv-x="440" 
d="M381 834h-139q0 131 -37 131q-29 0 -29 -91t20 -132q45 -97 58 -117q123 -203 123 -377t-91 -237q-40 -27 -98 -27t-99 30q-85 63 -85 312h148q0 -170 38 -170q33 0 33 135q0 81 -89 247t-99 229t-10 103q0 115 44 191t132 76q180 0 180 -303zM111 1489h165l84 -184h-133
l-34 79l-35 -79h-133z" />
    <glyph glyph-name="Scedilla" unicode="&#x15e;" horiz-adv-x="483" 
d="M283 -111v-141l-27 -133h-100l24 133h-37v141h140zM219 1319q-31 0 -31 -150q0 -102 84 -308t114 -311q32 -105 32 -208q0 -358 -203 -358q-129 0 -173 130q-38 111 -38 237v69l166 24q0 -258 45 -258q23 0 29 33t6 116t-29 172t-106 275q-92 248 -92 387q0 346 190 353
q205 3 205 -398l-168 -24q0 219 -31 219z" />
    <glyph glyph-name="scedilla" unicode="&#x15f;" horiz-adv-x="440" 
d="M260 -111v-141l-27 -133h-100l25 133h-37v141h139zM381 834h-139q0 131 -37 131q-29 0 -29 -91t20 -132q45 -97 58 -117q123 -203 123 -377t-91 -237q-40 -27 -98 -27t-99 30q-85 63 -85 312h148q0 -170 38 -170q33 0 33 135q0 81 -89 247t-99 229t-10 103q0 115 44 191
t132 76q180 0 180 -303z" />
    <glyph glyph-name="Scaron" unicode="&#x160;" horiz-adv-x="483" 
d="M219 1319q-31 0 -31 -150q0 -102 84 -308t114 -311q32 -105 32 -208q0 -358 -203 -358q-129 0 -173 130q-38 111 -38 237v69l166 24q0 -258 45 -258q23 0 29 33t6 116t-29 172t-106 275q-92 248 -92 387q0 346 190 353q205 3 205 -398l-168 -24q0 219 -31 219zM295 1638
h-166l-86 185h133l35 -80l35 80h133z" />
    <glyph glyph-name="scaron" unicode="&#x161;" horiz-adv-x="440" 
d="M381 834h-139q0 131 -37 131q-29 0 -29 -91t20 -132q45 -97 58 -117q123 -203 123 -377t-91 -237q-40 -27 -98 -27t-99 30q-85 63 -85 312h148q0 -170 38 -170q33 0 33 135q0 81 -89 247t-99 229t-10 103q0 115 44 191t132 76q180 0 180 -303zM270 1305h-166l-86 184h134
l34 -80l35 80h133z" />
    <glyph glyph-name="Tcaron" unicode="&#x164;" horiz-adv-x="450" 
d="M109 1278h-125v227h419v-227h-124v-1278h-170v1278zM281 1690h-166l-86 184h133l35 -80l34 80h134z" />
    <glyph glyph-name="tcaron" unicode="&#x165;" horiz-adv-x="575" 
d="M72 1397h157v-277h86v-186h-86v-934h-157v934h-68v186h68v277zM530 1505v-227l-67 -266h-98l51 266h-51v227h165z" />
    <glyph glyph-name="Tbar" unicode="&#x166;" horiz-adv-x="450" 
d="M403 1278h-124v-152h57v-161h-57v-965h-170v965h-48v161h48v152h-125v227h419v-227z" />
    <glyph glyph-name="tbar" unicode="&#x167;" horiz-adv-x="362" 
d="M229 1120h86v-186h-86v-934h-157v934h-68v186h68v195h-58v162h277v-162h-62v-195z" />
    <glyph glyph-name="Utilde" unicode="&#x168;" horiz-adv-x="512" 
d="M250 1505h170v-1216q0 -305 -202 -305t-202 305v1216h170v-1216q0 -90 32 -90t32 90v1216zM172 1880q26 0 58 -17t50 -17t46 20q27 20 36 39v-170q-31 -51 -81 -52q-25 -1 -58 19t-51 20t-46 -22t-38 -39v176q31 43 84 43z" />
    <glyph glyph-name="utilde" unicode="&#x169;" 
d="M242 238v882h161v-1120h-161v57q-16 -25 -50 -49t-59 -24q-111 0 -110 219v917h159v-884q0 -72 30 -72t30 74zM152 1495q26 0 58 -17q32 -18 50 -18t45 20t37 40v-170q-31 -51 -82 -52q-26 0 -58 20t-50 19q-18 0 -47 -22q-27 -23 -37 -39v176q31 43 84 43z" />
    <glyph glyph-name="Umacron" unicode="&#x16a;" horiz-adv-x="512" 
d="M250 1505h170v-1216q0 -305 -202 -305t-202 305v1216h170v-1216q0 -90 32 -90t32 90v1216zM88 1700v162h277v-162h-277z" />
    <glyph glyph-name="umacron" unicode="&#x16b;" 
d="M242 238v882h161v-1120h-161v57q-16 -25 -50 -49t-59 -24q-111 0 -110 219v917h159v-884q0 -72 30 -72t30 74zM72 1315v162h274v-162h-274z" />
    <glyph glyph-name="Ubreve" unicode="&#x16c;" horiz-adv-x="512" 
d="M250 1505h170v-1216q0 -305 -202 -305t-202 305v1216h170v-1216q0 -90 32 -90t32 90v1216zM224 1837q35 0 73 64l80 -115q-63 -98 -152 -98q-47 0 -89 28t-62 70l84 117q31 -66 66 -66z" />
    <glyph glyph-name="ubreve" unicode="&#x16d;" 
d="M242 238v882h161v-1120h-161v57q-16 -25 -50 -49t-59 -24q-111 0 -110 219v917h159v-884q0 -72 30 -72t30 74zM209 1452q31 0 72 64l79 -115q-63 -98 -151 -98q-47 1 -89 29t-63 69l84 117q31 -66 68 -66z" />
    <glyph glyph-name="Uring" unicode="&#x16e;" horiz-adv-x="512" 
d="M250 1505h170v-1216q0 -305 -202 -305t-202 305v1216h170v-1216q0 -90 32 -90t32 90v1216zM201 1806q0 -72 26 -71q11 -1 19 21t8 50t-8 51q-8 22 -19 21q-26 0 -26 -72zM117 1806q0 61 31 103q32 41 79 41t78 -40t31 -104t-31 -103q-31 -40 -78 -40t-79 41
q-31 41 -31 102z" />
    <glyph glyph-name="uring" unicode="&#x16f;" 
d="M242 238v882h161v-1120h-161v57q-16 -25 -50 -49t-59 -24q-111 0 -110 219v917h159v-884q0 -72 30 -72t30 74zM182 1421q0 -72 27 -71q10 0 24 37t0 72q-14 34 -24 34q-27 0 -27 -72zM98 1421q0 61 32 103t79 41q47 0 78 -40q31 -39 31 -103t-32 -104q-30 -40 -77 -40
t-79 41t-32 102z" />
    <glyph glyph-name="Uhungarumlaut" unicode="&#x170;" horiz-adv-x="512" 
d="M250 1505h170v-1216q0 -305 -202 -305t-202 305v1216h170v-1216q0 -90 32 -90t32 90v1216zM307 1874h164l-96 -184h-131zM84 1874h164l-96 -184h-132z" />
    <glyph glyph-name="uhungarumlaut" unicode="&#x171;" 
d="M242 238v882h161v-1120h-161v57q-16 -25 -50 -49t-59 -24q-111 0 -110 219v917h159v-884q0 -72 30 -72t30 74zM289 1489h164l-97 -184h-131zM66 1489h163l-96 -184h-131z" />
    <glyph glyph-name="Uogonek" unicode="&#x172;" horiz-adv-x="512" 
d="M309 -163q0 -85 43 -85q14 0 70 41l-8 -153q-44 -25 -96 -25t-91 50t-39 120t43 152q4 12 31 49q-10 -2 -37 -2h-8q-201 2 -201 305v1216h170v-1216q0 -82 29 -90q4 0 10 2q5 1 15 25t10 67v1212h170v-1216q0 -233 -119 -289h59q-51 -78 -51 -163z" />
    <glyph glyph-name="uogonek" unicode="&#x173;" 
d="M242 238v882h161v-1120h-61q-51 -67 -51 -158q0 -90 43 -90q14 0 69 41l-10 -153q-43 -25 -95 -25t-92 50q-38 50 -38 120t43 152q3 5 17 25t28 38h-14v57q-16 -25 -50 -49t-59 -24q-111 0 -110 219v917h159v-884q0 -72 30 -72t30 74z" />
    <glyph glyph-name="Wcircumflex" unicode="&#x174;" horiz-adv-x="684" 
d="M422 801q21 397 41 704h160l-111 -1505h-145l-58 721l-57 -721h-143l-115 1505h160l43 -706l49 706h125zM223 1823h166l84 -185h-133l-35 80l-35 -80h-133z" />
    <glyph glyph-name="wcircumflex" unicode="&#x175;" horiz-adv-x="604" 
d="M451 0h-134l-47 532l-45 -532h-131l-100 1120h145l39 -514l45 514h99l43 -514l38 514h146zM186 1489h166l84 -184h-133l-35 79l-35 -79h-133z" />
    <glyph glyph-name="Ycircumflex" unicode="&#x176;" horiz-adv-x="481" 
d="M307 0h-170v641l-141 864h168l57 -438q13 111 60 438h168l-142 -864v-641zM137 1823h166l84 -185h-133l-35 80l-35 -80h-133z" />
    <glyph glyph-name="ycircumflex" unicode="&#x177;" horiz-adv-x="442" 
d="M213 459l53 661h160l-139 -1204q-22 -251 -149 -308q-56 -26 -115 -3v182q47 -18 71 10q37 55 37 170l-135 1153h158zM131 1489h166l84 -184h-133l-35 79l-35 -79h-133z" />
    <glyph glyph-name="Ydieresis" unicode="&#x178;" horiz-adv-x="483" 
d="M307 0h-170v641l-141 864h168l57 -438q13 111 60 438h168l-142 -864v-641zM246 1638v201h149v-201h-149zM47 1638v201h152v-201h-152z" />
    <glyph glyph-name="Zacute" unicode="&#x179;" horiz-adv-x="438" 
d="M-6 0v238l207 1048h-178v219h360v-219l-213 -1067h213v-219h-389zM139 1874h164l-98 -184h-129z" />
    <glyph glyph-name="zacute" unicode="&#x17a;" horiz-adv-x="380" 
d="M-10 0v168l170 764h-144v188h312v-168l-170 -764h170v-188h-338zM111 1489h163l-96 -184h-131z" />
    <glyph glyph-name="Zdotaccent" unicode="&#x17b;" horiz-adv-x="438" 
d="M-6 0v238l207 1048h-178v219h360v-219l-213 -1067h213v-219h-389zM121 1683v207h162v-207h-162z" />
    <glyph glyph-name="zdotaccent" unicode="&#x17c;" horiz-adv-x="380" 
d="M-10 0v168l170 764h-144v188h312v-168l-170 -764h170v-188h-338zM94 1298v207h160v-207h-160z" />
    <glyph glyph-name="Zcaron" unicode="&#x17d;" horiz-adv-x="438" 
d="M-6 0v238l207 1048h-178v219h360v-219l-213 -1067h213v-219h-389zM287 1638h-166l-86 185h133l35 -80l35 80h133z" />
    <glyph glyph-name="zcaron" unicode="&#x17e;" horiz-adv-x="380" 
d="M-10 0v168l170 764h-144v188h312v-168l-170 -764h170v-188h-338zM248 1305h-166l-86 184h133l35 -80l35 80h133z" />
    <glyph glyph-name="longs" unicode="&#x17f;" horiz-adv-x="346" 
d="M135 0h-131v1174q0 176 45 246t129 69q47 0 107 -21l-17 -163q-42 16 -74 16t-46 -34t-13 -130v-1157z" />
    <glyph glyph-name="uni021A" unicode="&#x21a;" horiz-adv-x="450" 
d="M283 -111v-141l-27 -133h-100l24 133h-37v141h140zM109 1278h-125v227h419v-227h-124v-1278h-170v1278z" />
    <glyph glyph-name="uni021B" unicode="&#x21b;" horiz-adv-x="362" 
d="M283 -111v-141l-27 -133h-100l24 133h-37v141h140zM72 1397h157v-277h86v-186h-86v-934h-157v934h-68v186h68v277z" />
    <glyph glyph-name="circumflex" unicode="&#x2c6;" horiz-adv-x="673" 
d="M225 1489h166l84 -184h-133l-35 79l-35 -79h-133z" />
    <glyph glyph-name="caron" unicode="&#x2c7;" horiz-adv-x="673" 
d="M391 1305h-166l-86 184h133l35 -80l35 80h133z" />
    <glyph glyph-name="breve" unicode="&#x2d8;" horiz-adv-x="675" 
d="M306 1452q35 0 73 64l80 -115q-63 -98 -152 -98q-47 1 -89 29t-62 69l84 117q31 -66 66 -66z" />
    <glyph glyph-name="dotaccent" unicode="&#x2d9;" horiz-adv-x="673" 
d="M225 1298v207h162v-207h-162z" />
    <glyph glyph-name="ring" unicode="&#x2da;" horiz-adv-x="673" 
d="M276 1421q0 -29 10 -47t20 -18q11 0 22 19q10 19 10 46t-10 45q-22 40 -42 1q-10 -17 -10 -46zM197 1421q0 61 31 103q32 41 78 41t78 -41q32 -40 32 -102t-32 -103t-78 -41t-78 41q-31 41 -31 102z" />
    <glyph glyph-name="ogonek" unicode="&#x2db;" horiz-adv-x="675" 
d="M190 -211q0 109 89 211h83q-29 -41 -40 -102q-10 -35 -11 -68q0 -78 43 -78q14 0 72 37l-10 -149q-44 -25 -96 -25t-91 50t-39 124z" />
    <glyph glyph-name="tilde" unicode="&#x2dc;" horiz-adv-x="675" 
d="M254 1495q26 0 58 -17q32 -18 50 -18t46 20t36 40v-170q-31 -51 -82 -52q-26 0 -58 20t-50 19t-46 -23t-38 -38v176q31 43 84 43z" />
    <glyph glyph-name="hungarumlaut" unicode="&#x2dd;" horiz-adv-x="675" 
d="M397 1489h164l-96 -184h-131zM174 1489h164l-96 -184h-131z" />
    <glyph glyph-name="endash" unicode="&#x2013;" horiz-adv-x="544" 
d="M27 649v195h432v-195h-432z" />
    <glyph glyph-name="emdash" unicode="&#x2014;" horiz-adv-x="645" 
d="M27 649v195h530v-195h-530z" />
    <glyph glyph-name="quoteleft" unicode="&#x2018;" horiz-adv-x="247" 
d="M10 1012v227l68 266h98l-43 -266h43v-227h-166z" />
    <glyph glyph-name="quoteright" unicode="&#x2019;" horiz-adv-x="247" 
d="M174 1505v-227l-68 -266h-98l43 266h-43v227h166z" />
    <glyph glyph-name="quotesinglbase" unicode="&#x201a;" horiz-adv-x="247" 
d="M174 227v-227l-68 -266h-98l43 266h-43v227h166z" />
    <glyph glyph-name="quotedblleft" unicode="&#x201c;" 
d="M236 1012v227l67 266h98l-43 -266h43v-227h-165zM14 1012v227l68 266h98l-43 -266h43v-227h-166z" />
    <glyph glyph-name="quotedblright" unicode="&#x201d;" horiz-adv-x="466" 
d="M401 1505v-227l-67 -266h-98l43 266h-43v227h165zM180 1505v-227l-67 -266h-99l43 266h-43v227h166z" />
    <glyph glyph-name="quotedblbase" unicode="&#x201e;" horiz-adv-x="436" 
d="M360 227v-227l-67 -266h-98l43 266h-43v227h165zM180 227v-227l-67 -266h-99l43 266h-43v227h166z" />
    <glyph glyph-name="uni201F" unicode="&#x201f;" horiz-adv-x="466" 
d="M256 1505h166v-227h-51l51 -266h-98l-68 266v227zM14 1505h166v-227h-51l51 -266h-98l-68 266v227z" />
    <glyph glyph-name="bullet" unicode="&#x2022;" horiz-adv-x="458" 
d="M27 821q0 72 50 122t122 50t122 -50t50 -122t-50 -122t-122 -50t-122 50t-50 122z" />
    <glyph glyph-name="ellipsis" unicode="&#x2026;" horiz-adv-x="651" 
d="M440 0v227h166v-227h-166zM227 0v227h166v-227h-166zM14 0v227h166v-227h-166z" />
    <glyph glyph-name="perthousand" unicode="&#x2030;" horiz-adv-x="1705" 
 />
    <glyph glyph-name="Euro" unicode="&#x20ac;" horiz-adv-x="548" 
d="M14 821v137h64v238q0 180 78 274q40 52 116 52t113 -46t61 -118q20 -76 23 -162v-84h-162v84q0 53 -18 94h2q-13 16 -19 16t-15 -40t-9 -70v-238h139v-137h-139v-137h139v-137h-139v-238q0 -57 18 -94h-2l10 -16q16 0 24 42t9 68v84h162v-84q-2 -88 -23 -164
q-20 -59 -59 -110t-115 -51t-116 53q-79 104 -78 272v238h-64v137h64v137h-64z" />
    <glyph glyph-name="trademark" unicode="&#x2122;" horiz-adv-x="624" 
d="M573 1505v-684h-88v361q-30 -267 -36 -361h-39l-37 361v-361h-86v684h102l43 -280l47 280h94zM88 1401h-61v104h229v-104h-63v-580h-105v580z" />
    <glyph glyph-name="minus" unicode="&#x2212;" horiz-adv-x="526" 
d="M27 649v172h413v-172h-413z" />
    <glyph glyph-name="fi" unicode="&#xfb01;" horiz-adv-x="524" 
d="M57 1186q0 330 154 328q47 0 82 -21v-170q-37 23 -56 3t-20 -128v-78h223v-1120h-159v934h-64v-934h-160v934h-63v186h63v66z" />
    <glyph glyph-name="fl" unicode="&#xfb02;" horiz-adv-x="524" 
d="M281 1120v209q-31 10 -47 -7t-17 -124v-78h64zM442 0h-161v934h-64v-934h-160v934h-63v186h63v66q0 234 73 298q34 30 87 29l64 -8h161v-1505z" />
    </font>
</defs>
</svg>
