<?xml version="1.0" standalone="no"?>
<!DOCTYPE svg PUBLIC "-//W3C//DTD SVG 1.1//EN" "http://www.w3.org/Graphics/SVG/1.1/DTD/svg11.dtd" >
<svg xmlns="http://www.w3.org/2000/svg">
<metadata>
Created by FontPrep 20130207 at Tue Jun 30 19:19:44 2015
 By Romain Gazielly
Copyright (c) 2012 by The League of Moveable Type
</metadata>
<defs>
<font id="3bfcfe5caefb6255cef1067fd1481ebf" horiz-adv-x='1024' >
  <font-face 
    font-family="LeagueGothic-CondensedItalic"
    font-weight="400"
    font-style="italic"
    font-stretch="condensed"
    units-per-em="2048"
    panose-1="0 0 5 6 0 0 0 0 0 0"
    ascent="1505"
    descent="-543"
    x-height="1120"
    cap-height="1505"
    bbox="-182 -512 1080.44 1950"
    underline-thickness="102"
    underline-position="-102"
    unicode-range="U+000D-FB02"
  />
<missing-glyph horiz-adv-x="188" 
 />
    <glyph glyph-name=".notdef" horiz-adv-x="188" 
 />
    <glyph glyph-name=".null" horiz-adv-x="0" 
 />
    <glyph glyph-name="nonmarkingreturn" horiz-adv-x="681" 
 />
    <glyph glyph-name="CR" unicode="&#xd;" horiz-adv-x="221" 
 />
    <glyph glyph-name="space" unicode=" " horiz-adv-x="221" 
 />
    <glyph glyph-name="exclam" unicode="!" horiz-adv-x="292" 
d="M-47 0l47 227h166l-49 -227h-164zM66 406l200 1099h180l-266 -1099h-114z" />
    <glyph glyph-name="quotedbl" unicode="&#x22;" horiz-adv-x="462" 
d="M492 954h-130l99 551h166zM285 954h-129l98 551h166z" />
    <glyph glyph-name="numbersign" unicode="#" horiz-adv-x="800" 
d="M432 891l-78 -258h119q18 72 39 129l39 129h-119zM23 438l57 195h119q18 72 39 129l38 129h-116l55 194h119q23 83 39 135t22 74l64 211h153l-123 -420h119q29 106 62 209l63 211h154l-125 -420h117l-58 -194h-114l-39 -129q-27 -80 -39 -129h114l-57 -195h-115l-65 -219
q-12 -41 -34 -117t-30 -102h-155l129 438h-119l-66 -219q-11 -41 -33 -117t-30 -102h-156l131 438h-120z" />
    <glyph glyph-name="dollar" unicode="$" horiz-adv-x="479" 
d="M455 517q0 -87 -15 -146q-32 -151 -96 -253t-154 -116l-45 -217h-86l45 221q-82 23 -102 123t4 229l135 13q-14 -82 -2 -129q10 -57 54 -58q33 0 61 54q90 175 18 389q-16 49 -53 176q-33 143 -33 222t13 130q23 115 79 215t144 127l29 131h86l-27 -125q74 -10 100 -96
q20 -76 4 -186l-139 -25q8 51 0 89t-38 37q-31 -1 -57 -52q-84 -160 -4 -404q20 -64 32 -100q10 -37 12 -43q35 -119 35 -206z" />
    <glyph glyph-name="percent" unicode="%" horiz-adv-x="837" 
d="M737 649q-29 0 -43 -55l-92 -436q-18 -57 19 -58q29 1 41 58l92 436q12 55 -17 55zM593 -16q-71 0 -99 51t-15 123l92 436q17 76 69 126t123 50t97 -51t17 -125l-93 -436q-18 -76 -69 -125t-122 -49zM414 1403q-28 0 -43 -55l-92 -437q-15 -55 17 -55t42 55l92 437
q12 55 -16 55zM213 0h-137l751 1505h131zM270 735q-72 0 -100 51t-14 125l92 437q16 76 68 125t122 49q140 0 115 -174l-92 -437q-19 -78 -69 -127t-122 -49z" />
    <glyph glyph-name="ampersand" unicode="&#x26;" horiz-adv-x="573" 
d="M172 162q55 0 100 98q-29 127 -39 281q-82 -193 -94 -244t-4 -93t37 -42zM344 975q72 135 89 207t18 117q0 46 -21 47q-37 0 -67 -142t-19 -229zM-35 197q0 49 10 94q31 152 218 461q-16 221 28 442q80 328 251 328t108 -322q-27 -129 -124 -296q-30 -50 -91 -144
q14 -258 16 -271q52 87 72 185l131 -25q-17 -87 -53 -157q-35 -72 -41 -82t-22 -39q-15 -29 -19 -37q-3 -8 -21 -39t-20 -37q6 -29 59 -61l-45 -213q-61 20 -78 44t-33 64q-63 -109 -184 -108q-162 0 -162 213z" />
    <glyph glyph-name="quotesingle" unicode="'" horiz-adv-x="198" 
d="M287 954h-129l98 551h166z" />
    <glyph glyph-name="parenleft" unicode="(" horiz-adv-x="397" 
d="M475 1610l103 -109q-123 -197 -236 -506q-59 -156 -98 -350q-102 -467 -31 -854l-145 -106q-47 258 -31 598q8 162 51 362q104 478 387 965z" />
    <glyph glyph-name="parenright" unicode=")" horiz-adv-x="397" 
d="M258 1501l148 109q78 -490 -23 -965q-72 -334 -229 -663q-59 -123 -158 -297l-100 106q100 156 235 506q171 491 152 969q-9 153 -25 235z" />
    <glyph glyph-name="asterisk" unicode="*" horiz-adv-x="468" 
d="M303 1350l23 155h129l-43 -157l106 49v-142l-117 -38l60 -134l-119 -100l-37 125l-88 -125l-80 100l125 134l-106 38l59 142z" />
    <glyph glyph-name="plus" unicode="+" horiz-adv-x="698" 
d="M86 649l37 172h221l74 346h141l-74 -346h222l-37 -172h-221l-74 -346h-142l74 346h-221z" />
    <glyph glyph-name="comma" unicode="," horiz-adv-x="247" 
d="M223 227l-49 -227l-123 -266h-96l104 266h-51l49 227h166z" />
    <glyph glyph-name="hyphen" unicode="-" horiz-adv-x="327" 
d="M63 455l41 194h215l-40 -194h-216z" />
    <glyph glyph-name="period" unicode="." horiz-adv-x="253" 
d="M2 0l47 227h166l-47 -227h-166z" />
    <glyph glyph-name="slash" unicode="/" horiz-adv-x="493" 
d="M-117 -147l676 1652h135l-674 -1652h-137z" />
    <glyph glyph-name="zero" unicode="0" horiz-adv-x="495" 
d="M424 1307q-34 0 -53 -90l-199 -928q-16 -90 16 -90q14 1 30 27t22 63l198 928q20 90 -14 90zM141 -16q-75 0 -113 47t-39 115t11 143l197 928q27 131 95 218q69 87 175 87q76 0 115 -52q40 -52 38 -120q-2 -67 -12 -133l-198 -928q-29 -133 -95 -219t-174 -86z" />
    <glyph glyph-name="one" unicode="1" horiz-adv-x="346" 
d="M254 1180h-88l29 137q63 23 139 110q20 31 43 78h117l-322 -1505h-170z" />
    <glyph glyph-name="two" unicode="2" horiz-adv-x="499" 
d="M465 1522q201 0 119 -375q-72 -336 -418 -928h211l-47 -219h-396l48 219q296 499 368 691q72 193 82 300t-10 107t-44 -72t-30 -112l-22 -105h-170l22 105q86 389 287 389z" />
    <glyph glyph-name="three" unicode="3" horiz-adv-x="473" 
d="M174 178q33 0 73 188t29 248q-10 61 -81 66l38 182q61 4 99 50t65 192q2 12 4 18q41 199 13 199q-37 0 -90 -250h-168q92 451 297 451q75 0 113 -62t33 -136q-5 -75 -13 -138q-35 -166 -77 -256t-116 -162q92 -72 25 -383q-26 -115 -54 -195t-88 -143t-143 -63
q-202 -1 -106 450h166q-39 -159 -35 -207q4 -49 16 -49z" />
    <glyph glyph-name="four" unicode="4" horiz-adv-x="479" 
d="M268 522l99 465l-191 -465h92zM152 0l71 328h-229l39 194l420 983h165l-208 -983h61l-41 -194h-61l-72 -328h-145z" />
    <glyph glyph-name="five" unicode="5" horiz-adv-x="483" 
d="M412 1024q152 0 88 -311l-76 -357q-86 -373 -291 -372q-190 0 -98 432q2 16 4 22h168l-21 -100q-33 -149 -4 -162q37 0 72 160l80 377q20 111 -15 110q-20 0 -39 -41t-26 -69h-148l168 792h357l-47 -219h-205l-68 -321q8 19 42 39t59 20z" />
    <glyph glyph-name="six" unicode="6" horiz-adv-x="481" 
d="M186 176q38 0 56 88l92 430q8 68 -25 68q-28 -1 -51 -62l-92 -436q-18 -88 20 -88zM129 -16q-145 0 -140 212q1 46 11 93l190 889q76 344 275 344t129 -344l-23 -107h-163q53 258 16 258q-31 0 -64 -151l-59 -279q4 11 30 23t48 12q169 -1 110 -277l-79 -368
q-27 -121 -100 -213t-181 -92z" />
    <glyph glyph-name="seven" unicode="7" horiz-adv-x="415" 
d="M-27 0l408 1286h-201l47 219h373l-47 -221l-408 -1284h-172z" />
    <glyph glyph-name="eight" unicode="8" horiz-adv-x="479" 
d="M294 680q-36 0 -54 -88q-32 -147 -50 -233t-22 -107q-16 -70 18 -70q12 0 28 20t20 40t16 74t20 96q8 43 22 101q13 58 17 81q21 86 -15 86zM432 1333q-38 1 -58 -99t-38 -188t-21 -98q-16 -70 21 -69q12 0 28 19q15 19 21 48l29 139q23 98 35 164q20 84 -17 84zM145 -16
q-69 0 -107 46t-40 107t4 123l70 320q27 129 131 215q-63 80 -39 194l61 291q20 96 86 169t162 73t129 -74t12 -168l-61 -291q-27 -127 -121 -194q76 -49 41 -215l-70 -320q-23 -112 -91 -194t-167 -82z" />
    <glyph glyph-name="nine" unicode="9" horiz-adv-x="481" 
d="M406 1329q-38 0 -56 -88l-90 -430q-14 -68 25 -68q33 1 49 62l92 436q18 88 -20 88zM463 1522q75 0 111 -56t31 -123q-5 -68 -13 -126l-189 -889q-81 -344 -277 -344t-126 344l23 106h163q-8 -43 -14 -72t-18 -108t14 -78q33 0 65 152l58 278q-4 -10 -30 -22t-48 -13
q-170 1 -111 277l80 369q27 121 100 213t181 92z" />
    <glyph glyph-name="colon" unicode=":" horiz-adv-x="278" 
d="M-33 0l47 227h166l-49 -227h-164zM156 893l49 227h166l-49 -227h-166z" />
    <glyph glyph-name="semicolon" unicode=";" horiz-adv-x="278" 
d="M195 227l-50 -227l-122 -266h-97l105 266h-49l47 227h166zM170 893l49 227h166l-49 -227h-166z" />
    <glyph glyph-name="less" unicode="&#x3c;" horiz-adv-x="696" 
d="M88 655l31 148l692 508l-47 -219l-504 -363q26 -25 54 -55t65 -68q37 -37 55 -57l176 -182l-47 -220z" />
    <glyph glyph-name="equal" unicode="=" horiz-adv-x="696" 
d="M47 477l37 172h584l-37 -172h-584zM129 864l37 172h584l-37 -172h-584z" />
    <glyph glyph-name="greater" unicode="&#x3e;" horiz-adv-x="696" 
d="M702 803l-30 -148l-690 -508l45 220l499 362l-346 363l47 219z" />
    <glyph glyph-name="question" unicode="?" horiz-adv-x="313" 
d="M2 0l49 227h166l-49 -227h-166zM385 1321q-31 0 -72 -55q-4 -6 -51 -90l-104 84q23 61 98 153q86 100 174 100q186 0 133 -266q-23 -100 -110 -239q-12 -20 -68 -109t-88 -237l-55 -256h-146l56 256q37 178 159 382q122 205 111 252q-6 25 -37 25z" />
    <glyph glyph-name="at" unicode="@" horiz-adv-x="692" 
d="M582 1059q-24 0 -31 -35l-96 -449q-2 -14 4 -24t14 -10q25 -1 31 34l96 449q6 35 -18 35zM526 1327q-78 0 -116 -53q-37 -43 -50 -90l-184 -873q-10 -43 10 -84q20 -55 98 -55t140 72l123 -103q-133 -164 -299 -164t-232 132q-35 82 -14 202l184 873q25 119 103 211
q119 133 279 133t225 -133q37 -86 10 -211l-168 -795h-137l-15 64q-12 -29 -50 -54t-71 -24q-51 0 -68 55t1 133l100 477q41 184 170 185q37 0 66 -29q4 49 -8 78q-19 53 -97 53z" />
    <glyph glyph-name="A" unicode="A" horiz-adv-x="520" 
d="M297 541l94 598l-158 -598h64zM78 0h-164l457 1505h198l-186 -1505h-166l43 307h-94z" />
    <glyph glyph-name="B" unicode="B" horiz-adv-x="507" 
d="M264 682l-98 -463q33 0 43 10q31 31 71 226t23 217q-8 10 -39 10zM393 1286l-86 -401q33 0 45 12q29 33 62 189t18 188q-10 12 -39 12zM172 0h-221l319 1505h150q115 0 158 -88q45 -104 2 -311q-25 -123 -58 -195q-47 -84 -96 -116q51 -59 52 -130t-38 -261t-90 -275
q-76 -129 -178 -129z" />
    <glyph glyph-name="C" unicode="C" horiz-adv-x="487" 
d="M135 -16q-75 0 -111 49t-35 118t11 138l197 928q27 121 93 213q67 92 171 92q75 0 113 -56t36 -123q-2 -68 -10 -126l-49 -228h-166l49 228q20 90 -16 90q-29 0 -45 -82l-201 -936q-18 -90 10 -90q35 0 54 90l49 227h166l-50 -227q-63 -305 -266 -305z" />
    <glyph glyph-name="D" unicode="D" horiz-adv-x="518" 
d="M184 221q6 0 14 1q23 3 39 43q15 41 108 479t99 491q0 47 -25 47l-26 2l-227 -1063h18zM113 0h-162l319 1505h142q100 0 141 -34t51 -121q10 -123 -88 -598q-115 -532 -164 -619q-71 -133 -239 -133z" />
    <glyph glyph-name="E" unicode="E" horiz-adv-x="438" 
d="M-49 0l319 1505h340l-49 -227h-170l-84 -395h123l-51 -242h-123l-88 -414h170l-49 -227h-338z" />
    <glyph glyph-name="F" unicode="F" horiz-adv-x="432" 
d="M623 1505l-50 -227h-182l-84 -395h123l-47 -228h-123l-141 -655h-168l319 1505h353z" />
    <glyph glyph-name="G" unicode="G" horiz-adv-x="503" 
d="M420 1307q-30 0 -51 -90l-201 -947q-20 -90 14 -90q41 0 62 90l61 293h-37l39 187h195l-160 -750h-88l-6 55q-20 -27 -60 -49t-67 -22q-70 0 -104 55t-29 123q4 68 12 127l197 928q27 121 94 213q68 92 172 92q76 0 115 -52q40 -52 36 -120t-12 -133l-53 -252h-170
l53 252q18 90 -12 90z" />
    <glyph glyph-name="H" unicode="H" horiz-adv-x="528" 
d="M184 0l142 655h-66l-141 -655h-168l319 1505h170l-133 -622h66l133 622h170l-322 -1505h-170z" />
    <glyph glyph-name="I" unicode="I" horiz-adv-x="292" 
d="M-49 0l319 1505h170l-321 -1505h-168z" />
    <glyph glyph-name="J" unicode="J" horiz-adv-x="315" 
d="M-88 -12l45 221q41 -9 65 25t31 79l254 1192h170l-260 -1226q-67 -316 -305 -291z" />
    <glyph glyph-name="K" unicode="K" horiz-adv-x="522" 
d="M270 1505h164l-92 -432l203 432h166l-267 -551l-59 -954h-166l47 717l-153 -717h-162z" />
    <glyph glyph-name="L" unicode="L" horiz-adv-x="423" 
d="M-49 0l319 1505h170l-276 -1300h176l-45 -205h-344z" />
    <glyph glyph-name="M" unicode="M" horiz-adv-x="655" 
d="M262 0h-92l94 741l-158 -741h-155l319 1505h189l-74 -710l229 710h189l-322 -1505h-157l153 741z" />
    <glyph glyph-name="N" unicode="N" horiz-adv-x="546" 
d="M229 0l33 731l-156 -731h-155l319 1505h144l-29 -710l152 710h157l-321 -1505h-144z" />
    <glyph glyph-name="O" unicode="O" horiz-adv-x="495" 
d="M424 1307q-34 0 -53 -90l-199 -928q-16 -90 16 -90q14 1 30 27t22 63l198 928q20 90 -14 90zM141 -16q-75 0 -113 47t-39 115t11 143l197 928q27 131 95 218q69 87 175 87q76 0 115 -52q40 -52 38 -120q-2 -67 -12 -133l-198 -928q-29 -133 -95 -219t-174 -86z" />
    <glyph glyph-name="P" unicode="P" horiz-adv-x="493" 
d="M393 1284l-98 -457q43 0 61 28t56 199t28 208q-4 22 -47 22zM442 1505q102 0 140 -90q49 -115 -5 -363t-149 -364q-68 -82 -180 -86l-129 -602h-168l319 1505h172z" />
    <glyph glyph-name="Q" unicode="Q" horiz-adv-x="499" 
d="M422 1307q-28 0 -47 -90l-197 -928q-20 -90 8 -90t47 90l197 928q20 90 -8 90zM465 1522q76 0 115 -52q38 -52 36 -120q-2 -67 -12 -133l-196 -928q-16 -84 -68 -178l-2 -2v-3q12 -29 39 -36l-39 -185q-125 0 -143 107h-2q-12 -4 -19 -4l-27 -4h-20l-2 2q-67 4 -101 53
t-32 115t12 135l197 928q29 133 93 219q65 86 171 86z" />
    <glyph glyph-name="R" unicode="R" horiz-adv-x="505" 
d="M393 1286l-96 -457q29 0 53 27t61 205q36 178 25 205q-10 20 -43 20zM442 1505q231 0 133 -434q-53 -250 -151 -342l-51 -729h-166l53 655l-141 -655h-168l319 1505h172z" />
    <glyph glyph-name="S" unicode="S" horiz-adv-x="483" 
d="M416 1319q-30 0 -60 -150q-20 -100 27 -358t43 -335q-4 -78 -16 -134q-78 -358 -279 -358q-73 0 -109 43q-74 87 -14 376q2 10 4 17l172 24q-6 -32 -12 -62q-40 -196 2 -196q23 0 36 33q12 33 26 97t17 122q3 74 -52 344q-41 242 -11 387q16 80 43 151q27 72 86 136
t136 66q206 3 120 -398l-172 -24q43 219 13 219z" />
    <glyph glyph-name="T" unicode="T" horiz-adv-x="450" 
d="M299 1278h-125l49 227h420l-49 -227h-125l-272 -1278h-170z" />
    <glyph glyph-name="U" unicode="U" horiz-adv-x="512" 
d="M134 -16q-200 0 -134 305l256 1216h170l-258 -1216q-18 -90 14 -90t49 90l258 1216h170l-258 -1216q-67 -305 -267 -305z" />
    <glyph glyph-name="V" unicode="V" horiz-adv-x="491" 
d="M231 1505h166l-106 -770l221 770h166l-461 -1505h-168z" />
    <glyph glyph-name="W" unicode="W" horiz-adv-x="684" 
d="M514 801l191 704h159l-432 -1505h-145l96 721l-211 -721h-143l207 1505h159l-108 -706l200 706h125z" />
    <glyph glyph-name="X" unicode="X" horiz-adv-x="503" 
d="M383 1141l137 364h168l-295 -714q0 -83 -8 -259l-16 -532h-166l26 416l-153 -416h-164l313 791q0 244 4 356l4 358h168z" />
    <glyph glyph-name="Y" unicode="Y" horiz-adv-x="481" 
d="M367 1067l153 438h168l-326 -864l-137 -641h-170l138 641l43 864h167z" />
    <glyph glyph-name="Z" unicode="Z" horiz-adv-x="438" 
d="M-86 0l51 238l428 1048h-178l47 219h361l-48 -219l-440 -1067h213l-47 -219h-387z" />
    <glyph glyph-name="bracketleft" unicode="[" horiz-adv-x="385" 
d="M557 1505l-41 -196h-121l-282 -1325h120l-40 -197h-275l363 1718h276z" />
    <glyph glyph-name="backslash" unicode="\" horiz-adv-x="536" 
d="M399 1692l-28 -1872h-138l31 1872h135z" />
    <glyph glyph-name="bracketright" unicode="]" horiz-adv-x="385" 
d="M225 1309l41 196h277l-365 -1718h-274l41 197h118l283 1325h-121z" />
    <glyph glyph-name="asciicircum" unicode="^" horiz-adv-x="722" 
d="M438 1505h178l78 -696h-155l-58 487l-264 -487h-156z" />
    <glyph glyph-name="underscore" unicode="_" horiz-adv-x="724" 
d="M-16 -326l34 172h613l-37 -172h-610z" />
    <glyph glyph-name="grave" unicode="`" horiz-adv-x="675" 
d="M328 1489h164l22 -184h-131z" />
    <glyph glyph-name="a" unicode="a" horiz-adv-x="471" 
d="M223 254l56 260q-37 -37 -74 -112q-37 -74 -45 -110q-25 -111 4 -114q18 0 36 22t23 54zM387 1137q90 0 118 -81t5 -173l-145 -688q-18 -84 -33 -195h-137q-10 53 -9 68q-51 -84 -123 -84q-109 0 -59 276q61 272 242 404q66 44 84 79l24 121q8 27 7 61t-13 33
q-29 0 -49 -94l-14 -73h-156l14 67q23 109 88 194q66 85 156 85z" />
    <glyph glyph-name="b" unicode="b" horiz-adv-x="473" 
d="M178 178q28 0 45 78l135 627q16 74 -14 73q-29 1 -43 -73l-135 -627q-16 -78 12 -78zM438 1137q127 0 78 -219l-151 -715q-3 -6 -7 -28t-7 -33t-8 -31q-5 -21 -11 -33t-14 -30t-32 -41q-23 -23 -60 -23q-36 0 -66 28t-35 49l-12 -61h-160l317 1505h162l-92 -432
q8 20 42 42t56 22z" />
    <glyph glyph-name="c" unicode="c" horiz-adv-x="448" 
d="M190 170q32 0 50 88l32 156h156l-27 -129q-31 -138 -66 -197q-36 -59 -81 -82t-111 -22q-180 0 -120 311l112 530q74 311 256 312q132 0 144 -100q9 -79 -17 -201l-22 -109h-156l31 147q16 82 -13 82q-14 0 -30 -26t-21 -56l-131 -616q-18 -88 14 -88z" />
    <glyph glyph-name="d" unicode="d" horiz-adv-x="473" 
d="M180 178q28 0 45 78l135 627q14 74 -14 73q-27 0 -43 -73l-135 -627q-16 -78 12 -78zM330 1137q22 0 46 -22t23 -42l93 432h161l-319 -1505h-162l12 61q-12 -23 -54 -51t-79 -26q-71 0 -63 100q4 48 18 119l152 715q49 219 172 219z" />
    <glyph glyph-name="e" unicode="e" horiz-adv-x="456" 
d="M297 842l-35 -158h70l35 158q25 115 -17 114q-30 1 -53 -114zM135 -16q-172 0 -119 282l125 584q25 115 89 201q65 86 152 86t124 -44q37 -45 33 -107t-17 -130l-69 -334h-224l-53 -243q-20 -113 8 -113q37 0 62 113l26 122h154l-31 -141q-59 -276 -260 -276z" />
    <glyph glyph-name="f" unicode="f" horiz-adv-x="346" 
d="M135 0h-158l197 934h-63l41 186h63l12 66q40 183 95 256t135 71q43 0 71 -20l-34 -170q-33 23 -58 1t-45 -126l-16 -78h63l-41 -186h-63z" />
    <glyph glyph-name="g" unicode="g" horiz-adv-x="501" 
d="M176 -72l-45 17q-47 -43 -57 -95q-18 -78 47 -77q33 -1 59 21t33 54q12 60 -37 80zM368 956q-30 0 -51 -102l-67 -317q-20 -100 6 -101q31 1 51 101l68 317q23 102 -7 102zM209 264h-10q-16 -20 -23 -49q-10 -49 68 -70q82 -25 108 -63q48 -78 22 -200t-100 -203
t-184 -81t-155 59q-45 57 -25 153t143 176h2q-77 41 -57 141t121 176q-53 119 -27 244l66 305q25 109 88 197t155 88t115 -70q74 70 143 70l-38 -185q-59 0 -80 -24q4 -14 -2 -49l-72 -338q-31 -109 -97 -193t-161 -84z" />
    <glyph glyph-name="h" unicode="h" horiz-adv-x="468" 
d="M446 1137q32 0 52 -24q45 -53 16 -195l-197 -918h-153l188 883q18 74 -10 73q-27 1 -43 -73l-188 -883h-160l319 1505h162l-92 -432q8 20 41 42t65 22z" />
    <glyph glyph-name="i" unicode="i" horiz-adv-x="270" 
d="M111 0h-160l237 1120h162zM225 1298l45 207h162l-45 -207h-162z" />
    <glyph glyph-name="j" unicode="j" horiz-adv-x="280" 
d="M-113 -385q-37 0 -69 16l45 187q59 -23 84 76q0 2 6 32l252 1194h162l-244 -1149q-31 -143 -66 -221q-66 -135 -170 -135zM242 1298l45 207h162l-46 -207h-161z" />
    <glyph glyph-name="k" unicode="k" horiz-adv-x="446" 
d="M270 1505h156l-131 -618l125 233h155l-219 -385l-24 -735h-156l31 475l-103 -475h-153z" />
    <glyph glyph-name="l" unicode="l" horiz-adv-x="280" 
d="M111 0h-160l319 1505h162z" />
    <glyph glyph-name="m" unicode="m" horiz-adv-x="673" 
d="M483 1137q33 0 49 -25t13 -57q20 33 64 57t79 25q102 0 55 -219l-194 -918h-150l189 883q14 74 -17 73q-13 0 -27 -25t-18 -48l-188 -883h-148l189 887q16 70 -17 69q-27 0 -43 -73l-188 -883h-160l236 1120h162l-13 -59q61 76 127 76z" />
    <glyph glyph-name="n" unicode="n" 
d="M481 1137q111 0 64 -219l-195 -918h-160l189 885q14 72 -17 71q-29 1 -43 -73l-188 -883h-160l236 1120h162l-13 -57q25 27 63 51t62 23z" />
    <glyph glyph-name="o" unicode="o" horiz-adv-x="456" 
d="M354 956q-38 0 -57 -94l-129 -604q-20 -92 16 -92q20 0 37 34t19 58l129 604q23 94 -15 94zM393 1137q78 0 113 -40q36 -41 32 -105t-20 -144l-121 -576q-31 -139 -89 -214t-163 -74q-184 0 -127 295l121 563q61 295 254 295z" />
    <glyph glyph-name="p" unicode="p" horiz-adv-x="473" 
d="M220 178q30 0 44 68l133 635q16 76 -12 75q-31 1 -47 -75l-133 -635q-15 -68 15 -68zM500 1137q115 0 65 -219l-151 -715q-51 -219 -160 -219q-28 0 -54 24t-34 58l-96 -451h-160l317 1505h162l-12 -57q18 27 57 51t66 23z" />
    <glyph glyph-name="q" unicode="q" horiz-adv-x="473" 
d="M218 178q30 0 44 68l133 635q16 76 -14 75q-29 0 -45 -75l-133 -635q-15 -68 15 -68zM344 1137q28 0 56 -24t34 -50l12 57h162l-319 -1505h-162l96 451q-23 -33 -59 -58t-66 -24q-104 0 -65 219l151 715q49 219 160 219z" />
    <glyph glyph-name="r" unicode="r" horiz-adv-x="364" 
d="M506 1137l-51 -246q-59 39 -103 1t-59 -114l-166 -778h-156l236 1120h158l-13 -61q62 78 154 78z" />
    <glyph glyph-name="s" unicode="s" horiz-adv-x="440" 
d="M164 156q33 0 61 135q12 66 -32 241q-4 16 -31 99t-24 141q10 179 95 290q59 75 148 75q178 0 117 -303h-140q20 79 11 105q-8 25 -19 26q-27 0 -55 -117q-16 -74 31 -223q122 -306 -24 -541q-63 -100 -178 -100q-58 0 -91 30q-69 61 -21 312h148q-35 -170 4 -170z" />
    <glyph glyph-name="t" unicode="t" horiz-adv-x="358" 
d="M293 1397h158l-58 -277h86l-41 -186h-86l-198 -934h-156l197 934h-68l41 186h68z" />
    <glyph glyph-name="u" unicode="u" 
d="M186 164q28 0 47 74l187 882h162l-238 -1120h-162l13 57q-23 -25 -62 -49t-63 -24q-102 0 -64 219l195 917h159l-188 -884q-14 -72 14 -72z" />
    <glyph glyph-name="v" unicode="v" horiz-adv-x="421" 
d="M209 0h-160l121 1120h152l-93 -657l189 657h151z" />
    <glyph glyph-name="w" unicode="w" horiz-adv-x="604" 
d="M389 0h-133l68 532l-160 -532h-131l139 1120h145l-71 -514l155 514h99l-68 -514l150 514h145z" />
    <glyph glyph-name="x" unicode="x" horiz-adv-x="444" 
d="M209 303q-91 -267 -107 -303h-149l235 578l-8 542h152l-8 -280l114 280h152l-244 -542l-8 -578h-150z" />
    <glyph glyph-name="y" unicode="y" horiz-adv-x="466" 
d="M272 459l193 661h160l-396 -1204q-37 -135 -102 -217q-49 -65 -111 -91t-114 -3l39 182q45 -18 71 10q45 51 74 170l109 1153h157z" />
    <glyph glyph-name="z" unicode="z" horiz-adv-x="380" 
d="M-70 0l37 168l330 764h-143l41 188h311l-37 -168l-332 -764h170l-41 -188h-336z" />
    <glyph glyph-name="braceleft" unicode="{" 
d="M664 1522l-37 -172q-94 -2 -130 -50t-59 -147l-84 -397q-16 -76 -60 -142t-89 -79q39 -31 54 -91t1 -131l-84 -397q-26 -96 -6 -146t111 -51l-37 -172q-245 0 -247 168q-1 82 23 201l84 397q10 35 2 78q-4 59 -49 62l35 163q47 0 76 60q25 43 31 80l84 397
q47 205 123 289t258 80z" />
    <glyph glyph-name="bar" unicode="|" horiz-adv-x="274" 
d="M10 -512h-149l465 2204h151z" />
    <glyph glyph-name="braceright" unicode="}" 
d="M246 1350l37 172q125 2 182 -38t60 -123t-21 -208l-84 -397q-8 -53 -2 -80q8 -59 51 -60l-35 -163q-67 -3 -108 -140l-84 -397q-43 -201 -117 -285t-260 -84l37 172q90 0 124 43t60 154l84 397q14 72 56 131t93 91q-39 13 -55 79t0 142l84 397q26 83 8 139t-110 58z" />
    <glyph glyph-name="asciitilde" unicode="~" horiz-adv-x="829" 
d="M471 1659q74 0 139 -92l8 -11q49 -72 78 -71q31 0 86 90q23 33 36 66q13 32 16 36q2 4 2 6l100 -79q-70 -154 -166 -256q-50 -48 -100 -48q-83 -1 -126 51q-15 17 -40 50q-51 74 -82 74t-92 -91q-36 -59 -54 -108l-96 82q53 135 166 254q51 47 125 47z" />
    <glyph glyph-name="uni0093" 
d="M315 1012l50 227l122 266h99l-99 -266h43l-49 -227h-166zM94 1012l49 227l123 266h99l-99 -266h43l-49 -227h-166z" />
    <glyph glyph-name="uni0094" horiz-adv-x="466" 
d="M586 1505l-47 -227l-125 -266h-99l101 266h-43l47 227h166zM365 1505l-48 -227l-124 -266h-99l101 266h-43l47 227h166z" />
    <glyph glyph-name="exclamdown" unicode="&#xa1;" horiz-adv-x="292" 
d="M-92 -385l264 1100h115l-201 -1100h-178zM182 893l49 227h166l-49 -227h-166z" />
    <glyph glyph-name="cent" unicode="&#xa2;" horiz-adv-x="444" 
d="M208 365q32 0 50 88l33 155h155l-26 -129q-20 -86 -38 -136t-59 -98q-42 -48 -106 -63l-65 -305h-111l68 301q-47 18 -67 78q-31 95 -1 233l113 531q20 98 69 189t127 116l51 242h111l-51 -240q89 -20 95 -113q4 -66 -19 -184l-23 -108h-156l31 147q16 82 -12 82
q-13 1 -29 -25t-22 -57l-131 -616q-19 -88 13 -88z" />
    <glyph glyph-name="sterling" unicode="&#xa3;" horiz-adv-x="550" 
d="M444 1317q-34 0 -61 -103q-6 -23 -12 -43l-6 -22q-23 -100 -29 -363h125l-31 -137h-104q-4 -102 -22 -186t-83 -207q35 -43 49 -57l25 43q23 37 51 149l143 -29q-47 -182 -113 -280t-138 -98q-39 0 -84 51q-46 51 -58 51q-25 0 -82 -127l-94 109q37 82 107 163
q20 25 63 45q42 102 60 184t22 189h-113l31 137h90q-2 20 2 154q9 286 113 459q75 121 193 123t143 -123q18 -109 -21 -279h-166q49 197 0 197z" />
    <glyph glyph-name="yen" unicode="&#xa5;" horiz-adv-x="493" 
d="M373 1067l162 438h167l-292 -753h90l-31 -138h-107l-28 -137h106l-28 -137h-107l-74 -340h-170l74 340h-104l28 137h105l29 137h-105l31 138h88l29 753h167z" />
    <glyph glyph-name="dieresis" unicode="&#xa8;" horiz-adv-x="675" 
d="M465 1305l43 200h151l-43 -200h-151zM252 1305l43 200h151l-43 -200h-151z" />
    <glyph glyph-name="copyright" unicode="&#xa9;" horiz-adv-x="1048" 
d="M473 291q-92 0 -100 98q-4 47 8 98l113 531q20 96 86 166q31 31 90 30q86 0 94 -98q4 -53 -6 -98l-27 -125h-119l27 125q8 29 5 41t-3 16l-10 -20q0 -2 -4 -9t-11 -28l-112 -531q-8 -31 0 -57l-2 -6q4 0 8 12t10 24t6 27l27 125h119l-27 -125q-27 -102 -86 -165
q-31 -31 -86 -31zM436 102q143 0 299 193q152 193 208 460t-13 457q-72 190 -216 190t-301 -188q-157 -190 -212 -462q-59 -270 17 -460t218 -190zM410 -16q-102 0 -179 59q-76 59 -116 166q-89 228 -22 544t253 543q178 226 386 226t297 -226t24 -544q-70 -316 -253 -542
t-390 -226z" />
    <glyph glyph-name="registered" unicode="&#xae;" horiz-adv-x="1048" 
d="M635 1063h-8l-56 -258h9q23 0 38 41q18 31 30 89t7 85q0 43 -20 43zM666 1192q156 0 100 -258q-27 -139 -100 -221h2l-21 -400h-129l21 338l-72 -338h-125l186 879h138zM436 102q143 0 299 193q152 193 208 460t-13 457q-72 190 -216 190t-301 -188q-157 -190 -212 -462
q-59 -270 17 -460t218 -190zM410 -16q-102 0 -179 59q-76 59 -116 166q-89 228 -22 544t253 543q178 226 386 226t297 -226t24 -544q-70 -316 -253 -542t-390 -226z" />
    <glyph glyph-name="macron" unicode="&#xaf;" horiz-adv-x="675" 
d="M301 1315l33 162h274l-33 -162h-274z" />
    <glyph glyph-name="acute" unicode="&#xb4;" horiz-adv-x="675" 
d="M459 1489h164l-138 -184h-131z" />
    <glyph glyph-name="periodcentered" unicode="&#xb7;" horiz-adv-x="190" 
d="M37 649l49 228h166l-49 -228h-166z" />
    <glyph glyph-name="cedilla" unicode="&#xb8;" horiz-adv-x="675" 
d="M379 -111l-31 -141l-55 -133h-100l61 133h-45l31 141h139z" />
    <glyph glyph-name="questiondown" unicode="&#xbf;" horiz-adv-x="448" 
d="M81 -201q30 0 75 56q10 14 19 31q9 16 19 34t11 25l104 -84q-23 -61 -101 -157t-171 -97q-188 0 -129 266q16 86 106 240q8 11 22 35t44 70q60 97 90 241l55 256h146l-56 -256q-43 -207 -200 -453q-38 -68 -59 -119q-34 -88 25 -88zM465 1120l-49 -227h-166l49 227h166z
" />
    <glyph glyph-name="Agrave" unicode="&#xc0;" horiz-adv-x="520" 
d="M279 541l94 598l-158 -598h64zM61 0h-163l454 1505h199l-184 -1505h-166l43 307h-94zM356 1823h164l27 -185h-131z" />
    <glyph glyph-name="Aacute" unicode="&#xc1;" horiz-adv-x="520" 
d="M279 541l94 598l-158 -598h64zM61 0h-163l454 1505h199l-184 -1505h-166l43 307h-94zM510 1823h164l-135 -185h-131z" />
    <glyph glyph-name="Acircumflex" unicode="&#xc2;" horiz-adv-x="520" 
d="M279 541l94 598l-158 -598h64zM61 0h-163l454 1505h199l-184 -1505h-166l43 307h-94zM438 1823h166l45 -185h-133l-16 80l-54 -80h-133z" />
    <glyph glyph-name="Atilde" unicode="&#xc3;" horiz-adv-x="520" 
d="M279 541l94 598l-158 -598h64zM61 0h-163l454 1505h199l-184 -1505h-166l41 307h-95zM467 1823q25 1 53 -17t47 -18q18 0 49 20t46 39l-35 -170q-43 -51 -95 -51q-26 0 -54 20t-46 19q-18 1 -51 -23t-45 -38l37 176q39 43 94 43z" />
    <glyph glyph-name="Adieresis" unicode="&#xc4;" horiz-adv-x="520" 
d="M276 541l84 536l-143 -536h59zM61 0h-163l454 1505h199l-184 -1505h-166l41 307h-90zM506 1638l43 201h149l-43 -201h-149zM307 1638l43 201h152l-43 -201h-152z" />
    <glyph glyph-name="Aring" unicode="&#xc5;" horiz-adv-x="520" 
d="M272 541l84 536l-143 -536h59zM57 0h-163l454 1505h199l-185 -1505h-165l41 307h-91zM488 1696q11 0 26 19q36 49 20 91q-7 18 -18 19q-29 -1 -43 -64q-6 -29 -1 -47t16 -18zM534 1905q46 0 70 -41q24 -40 8 -102q-14 -62 -54 -103t-86 -41t-70 41q-23 41 -9 102t54 103
q41 42 87 41z" />
    <glyph glyph-name="AE" unicode="&#xc6;" horiz-adv-x="720" 
d="M467 1102l-184 -561h65q10 51 60 285t59 276zM231 0l66 307h-100l-119 -307h-166l571 1505h410l-49 -227h-170l-84 -395h123l-51 -242h-123l-88 -414h170l-50 -227h-340z" />
    <glyph glyph-name="Ccedilla" unicode="&#xc7;" horiz-adv-x="487" 
d="M199 -111l-31 -141l-55 -133h-101l54 133h-37l30 141h140zM154 -16q-74 0 -111 49t-36 118t11 138l197 928q27 121 94 213q68 92 172 92q76 0 114 -56t35 -123q-3 -68 -12 -126l-47 -228h-165l47 228q20 90 -15 90q-27 0 -47 -82l-198 -936q-18 -90 10 -90q35 0 53 90
l49 227h166l-49 -227q-28 -133 -94 -219t-174 -86z" />
    <glyph glyph-name="Egrave" unicode="&#xc8;" horiz-adv-x="438" 
d="M-66 0l318 1505h340l-47 -227h-170l-84 -395h123l-52 -242h-122l-88 -414h170l-50 -227h-338zM338 1823h164l26 -185h-131z" />
    <glyph glyph-name="Eacute" unicode="&#xc9;" horiz-adv-x="438" 
d="M-66 0l318 1505h340l-47 -227h-170l-84 -395h123l-52 -242h-122l-88 -414h170l-50 -227h-338zM475 1823h164l-135 -185h-131z" />
    <glyph glyph-name="Ecircumflex" unicode="&#xca;" horiz-adv-x="438" 
d="M-66 0l318 1505h340l-47 -227h-170l-84 -395h123l-52 -242h-122l-88 -414h170l-50 -227h-338zM412 1823h166l45 -185h-134l-16 80l-53 -80h-133z" />
    <glyph glyph-name="Edieresis" unicode="&#xcb;" horiz-adv-x="438" 
d="M-66 0l318 1505h340l-49 -227h-170l-84 -395h123l-52 -242h-122l-88 -414h169l-47 -227h-338zM479 1638l43 201h150l-43 -201h-150zM281 1638l43 201h151l-43 -201h-151z" />
    <glyph glyph-name="Igrave" unicode="&#xcc;" horiz-adv-x="303" 
d="M-55 0l317 1505h170l-319 -1505h-168zM268 1823h164l25 -185h-129z" />
    <glyph glyph-name="Iacute" unicode="&#xcd;" horiz-adv-x="303" 
d="M-66 0l318 1505h170l-320 -1505h-168zM385 1823h164l-135 -185h-131z" />
    <glyph glyph-name="Icircumflex" unicode="&#xce;" horiz-adv-x="284" 
d="M-70 0l318 1505h168l-320 -1505h-166zM315 1823h166l45 -185h-133l-16 80l-53 -80h-134z" />
    <glyph glyph-name="Idieresis" unicode="&#xcf;" horiz-adv-x="284" 
d="M-70 0l318 1505h170l-320 -1505h-168zM389 1638l43 201h150l-43 -201h-150zM190 1638l43 201h152l-43 -201h-152z" />
    <glyph glyph-name="Eth" unicode="&#xd0;" horiz-adv-x="518" 
d="M393 1284l-86 -401h31l-47 -228h-31l-94 -434q63 12 84 72q37 89 101 406q63 317 77 381t17 132t-52 72zM393 1505q199 0 215 -142t-92 -611q-88 -409 -115 -482q-60 -159 -94 -188q-75 -64 -128 -73q-54 -9 -107 -9h-121l139 655h-37l47 228h37l133 622h123z" />
    <glyph glyph-name="Ntilde" unicode="&#xd1;" horiz-adv-x="546" 
d="M213 0l31 731l-154 -731h-156l318 1505h143l-28 -710l151 710h158l-320 -1505h-143zM477 1823q25 1 53 -17t48 -18q18 0 49 20t45 39l-35 -170q-43 -51 -94 -51q-25 0 -54 20t-47 19q-18 1 -51 -23t-45 -38l37 176q39 43 94 43z" />
    <glyph glyph-name="Ograve" unicode="&#xd2;" horiz-adv-x="495" 
d="M408 1307q-34 0 -54 -90l-196 -928q-20 -90 14 -90t53 90l197 928q20 90 -14 90zM125 -16q-74 0 -113 47t-39 115t13 143l194 928q27 131 96 218q70 87 177 87q77 0 115 -52t36 -120q-2 -67 -12 -133l-197 -928q-31 -133 -97 -219t-173 -86zM346 1823h164l27 -185h-131z
" />
    <glyph glyph-name="Oacute" unicode="&#xd3;" horiz-adv-x="495" 
d="M408 1307q-34 0 -54 -90l-196 -928q-20 -90 14 -90t53 90l197 928q20 90 -14 90zM125 -16q-74 0 -113 47t-39 115t13 143l194 928q27 131 96 218q70 87 177 87q77 0 115 -52t36 -120q-2 -67 -12 -133l-197 -928q-31 -133 -97 -219t-173 -86zM508 1823h164l-137 -185h-132
z" />
    <glyph glyph-name="Ocircumflex" unicode="&#xd4;" horiz-adv-x="495" 
d="M408 1307q-34 0 -54 -90l-196 -928q-20 -90 14 -90t53 90l197 928q20 90 -14 90zM125 -16q-74 0 -113 47t-39 115t13 143l194 928q27 131 96 218q70 87 177 87q77 0 115 -52t36 -120q-2 -67 -12 -133l-197 -928q-31 -133 -97 -219t-173 -86zM432 1823h166l45 -185h-133
l-18 80l-52 -80h-133z" />
    <glyph glyph-name="Otilde" unicode="&#xd5;" horiz-adv-x="495" 
d="M408 1307q-37 0 -56 -90l-196 -928q-8 -41 -3 -66t19 -24q31 0 51 90l197 928q20 90 -12 90zM123 -16q-74 0 -113 47t-39 115t13 143l194 928q27 131 96 218q70 87 177 87q77 0 115 -52t36 -120q-2 -67 -12 -133l-197 -928q-29 -131 -95 -218t-175 -87zM453 1823
q25 1 55 -17t47 -18q18 0 49 20t45 39l-37 -170q-43 -51 -92 -51q-26 0 -54 20t-56 19q-28 0 -88 -61l38 176q37 43 93 43z" />
    <glyph glyph-name="Odieresis" unicode="&#xd6;" horiz-adv-x="495" 
d="M408 1307q-32 0 -56 -90l-196 -928q-8 -41 -3 -66t19 -24q31 0 51 90l197 928q20 90 -12 90zM124 -16q-108 0 -138 90t-2 215l194 928q29 131 97 218q69 87 176 87q77 0 115 -52t36 -120q-2 -67 -12 -133l-197 -928q-29 -133 -95 -219t-174 -86zM500 1638l43 201h149
l-43 -201h-149zM301 1638l43 201h152l-43 -201h-152z" />
    <glyph glyph-name="Oslash" unicode="&#xd8;" horiz-adv-x="495" 
d="M195 199q14 1 29 27t22 63l86 399l-142 -350l-12 -49q-16 -90 17 -90zM430 1307q-34 0 -53 -90l-82 -381l141 344l8 37q20 90 -14 90zM147 -16q-49 0 -92 24l-12 -28h-96l53 129q-14 66 4 180l199 928q27 131 95 218q69 87 175 87q51 0 92 -27l13 31h94l-54 -129
q16 -67 -4 -180l-198 -928q-28 -133 -94 -219t-175 -86z" />
    <glyph glyph-name="Ugrave" unicode="&#xd9;" horiz-adv-x="512" 
d="M118 -16q-200 0 -134 305l256 1216h170l-258 -1216q-18 -90 14 -90t49 90l258 1216h170l-258 -1216q-67 -305 -267 -305zM362 1823h164l25 -185h-131z" />
    <glyph glyph-name="Uacute" unicode="&#xda;" horiz-adv-x="512" 
d="M118 -16q-200 0 -134 305l256 1216h170l-258 -1216q-18 -90 14 -90t49 90l258 1216h170l-258 -1216q-67 -305 -267 -305zM520 1823h164l-135 -185h-131z" />
    <glyph glyph-name="Ucircumflex" unicode="&#xdb;" horiz-adv-x="512" 
d="M118 -16q-200 0 -134 305l256 1216h170l-258 -1216q-18 -90 14 -90t49 90l258 1216h170l-258 -1216q-67 -305 -267 -305zM422 1823h166l45 -185h-133l-19 80l-51 -80h-133z" />
    <glyph glyph-name="Udieresis" unicode="&#xdc;" horiz-adv-x="512" 
d="M118 -16q-202 0 -136 305l256 1216h170l-258 -1216q-18 -90 14 -90t49 90l258 1216h170l-258 -1216q-63 -305 -265 -305zM492 1638l43 201h149l-43 -201h-149zM293 1638l43 201h151l-43 -201h-151z" />
    <glyph glyph-name="Yacute" unicode="&#xdd;" horiz-adv-x="483" 
d="M350 1067q132 380 152 438h168l-324 -864l-137 -641h-170l137 641l41 864h168zM487 1823h164l-137 -185h-131z" />
    <glyph glyph-name="Thorn" unicode="&#xde;" horiz-adv-x="495" 
d="M340 1038l-96 -452q39 8 57 41q25 35 57 179t19 185q-6 41 -37 47zM-49 0l319 1505h168l-49 -241q96 -6 137 -95q49 -125 -1 -359t-150 -351q-80 -88 -178 -99l-78 -360h-168z" />
    <glyph glyph-name="germandbls" unicode="&#xdf;" horiz-adv-x="514" 
d="M450 1522q89 0 128 -45q38 -45 38 -109t-12 -131q-23 -102 -96 -174q41 -55 41 -157q1 -102 -61 -394t-132 -402t-215 -110l41 193q43 1 77 75t84 312t50 318q0 81 -43 81l29 141q23 0 45 33t33 79q10 46 1 76t-34 29q-43 0 -68 -102l-262 -1235h-160l261 1235
q25 119 95 203q71 84 160 84z" />
    <glyph glyph-name="agrave" unicode="&#xe0;" horiz-adv-x="471" 
d="M205 254l55 260q-37 -37 -74 -112q-37 -74 -45 -110q-25 -111 4 -114q18 0 36 22t24 54zM369 1137q89 0 117 -81t6 -173l-146 -688q-27 -117 -33 -195h-137q-10 25 -10 68q-47 -84 -121 -84q-115 0 -59 272t241 408q66 44 84 79l25 121q8 27 7 61t-13 33q-29 0 -49 -94
l-17 -73h-155l14 67q23 109 89 194q67 85 157 85zM303 1489h164l25 -184h-132z" />
    <glyph glyph-name="aacute" unicode="&#xe1;" horiz-adv-x="471" 
d="M205 254l55 260q-37 -37 -74 -112q-37 -74 -45 -110q-25 -111 4 -114q18 0 36 22t24 54zM369 1137q89 0 117 -81t6 -173l-146 -688q-27 -117 -33 -195h-137q-10 25 -10 68q-47 -84 -121 -84q-115 0 -59 272t241 408q66 44 84 79l25 121q8 27 7 61t-13 33q-29 0 -49 -94
l-17 -73h-155l14 67q23 109 89 194q67 85 157 85zM424 1489h164l-137 -184h-132z" />
    <glyph glyph-name="acircumflex" unicode="&#xe2;" horiz-adv-x="471" 
d="M205 254l55 260q-37 -37 -74 -112q-37 -74 -45 -110q-25 -111 4 -114q18 0 36 22t24 54zM369 1137q89 0 117 -81t6 -173l-146 -688q-27 -117 -33 -195h-137q-10 25 -10 68q-47 -84 -121 -84q-115 0 -59 272t241 408q66 44 84 79l25 121q8 27 7 61t-13 33q-29 0 -49 -94
l-17 -73h-155l14 67q23 109 89 194q67 85 157 85zM360 1489h166l45 -184h-133l-18 79l-51 -79h-133z" />
    <glyph glyph-name="atilde" unicode="&#xe3;" horiz-adv-x="471" 
d="M203 254l55 260q-37 -37 -74 -112q-37 -74 -45 -110q-25 -111 4 -114q18 0 36 22t24 54zM42 -16q-74 0 -73 103t19 173q53 270 239 404q68 50 82 79l25 121q8 27 7 61t-13 33q-29 0 -49 -94l-15 -73h-155l14 67q23 109 89 194q67 85 157 85q91 0 117 -81t3 -173
l-145 -688q-23 -102 -31 -195h-137q-14 39 -10 68q-50 -84 -124 -84zM385 1487q25 1 53 -17t47 -18q17 0 49 20t48 39l-37 -170q-43 -51 -92 -51q-25 0 -54 20t-57 19q-28 0 -88 -61l39 176q37 43 92 43z" />
    <glyph glyph-name="adieresis" unicode="&#xe4;" horiz-adv-x="471" 
d="M203 254l55 260q-37 -37 -74 -112q-37 -74 -45 -110q-25 -111 4 -114q18 0 36 22t24 54zM326 958q-26 0 -45 -94l-17 -73h-155l14 67q23 109 89 194q67 85 161 85q59 0 92 -43q53 -69 27 -211l-148 -688q-25 -121 -31 -195h-137q-10 25 -10 68q-51 -84 -123 -84
q-113 0 -57 272t241 408q68 50 82 79l27 121q16 94 -10 94zM430 1305l43 200h150l-43 -200h-150zM231 1305l43 200h152l-43 -200h-152z" />
    <glyph glyph-name="aring" unicode="&#xe5;" horiz-adv-x="471" 
d="M201 254l55 260q-37 -37 -74 -112q-37 -74 -45 -110q-25 -111 4 -114q18 0 36 22t24 54zM365 1137q89 0 117 -81t5 -173l-145 -688q-27 -117 -33 -195h-137q-10 25 -10 68q-47 -84 -121 -84q-115 0 -59 272t241 408q66 44 82 79l27 121q8 27 7 61t-13 33q-29 0 -50 -94
l-16 -73h-156l15 67q23 109 89 194q67 85 157 85zM410 1356q12 0 26 19q36 49 20 91q-7 18 -18 19q-29 -1 -43 -64q-6 -29 -1 -47q4 -18 16 -18zM456 1565q46 0 70 -41q24 -40 9 -102t-55 -103t-86 -41t-70 41t-9 102t55 103t86 41z" />
    <glyph glyph-name="ae" unicode="&#xe6;" horiz-adv-x="681" 
d="M227 254l56 260q-37 -37 -74 -112q-37 -74 -45 -110q-25 -111 4 -114q18 0 36 22t23 54zM516 842l-35 -158h70l35 158q25 115 -17 114q-33 1 -53 -114zM104 -16q-115 0 -104 201q2 38 8 75q61 272 242 404q66 45 84 79l24 121q8 27 8 61q-1 34 -14 33q-29 0 -49 -94
l-14 -73h-156l14 67q23 109 89 194t159 85q59 0 94 -45q59 45 129 45t107 -44q37 -45 33 -107t-17 -130l-69 -334h-223l-54 -243q-20 -113 8 -113q37 0 62 113l27 122h153l-31 -141q-59 -276 -260 -276q-80 0 -108 55q-55 -55 -142 -55z" />
    <glyph glyph-name="ccedilla" unicode="&#xe7;" horiz-adv-x="448" 
d="M201 -111l-31 -141l-55 -133h-101l54 133h-37l30 141h140zM210 170q32 0 50 88l33 156h156l-27 -129q-51 -228 -150 -279q-45 -22 -106 -22t-93 30q-72 68 -30 281l113 530q29 125 90 218t166 94q131 0 143 -100q9 -77 -16 -201l-23 -109h-156l31 147q16 82 -14 82
q-14 0 -29 -25q-14 -26 -20 -57l-131 -616q-19 -88 13 -88z" />
    <glyph glyph-name="egrave" unicode="&#xe8;" horiz-adv-x="456" 
d="M279 842l-35 -158h69l35 158q20 115 -16 114q-33 1 -53 -114zM117 -16q-174 0 -117 282l123 584q23 115 88 201q66 86 153 86q88 0 124 -44q36 -45 32 -107t-16 -130l-70 -334h-223l-53 -243q-20 -113 8 -113q37 0 61 113l27 122h154l-31 -141q-59 -276 -260 -276z
M283 1489h163l25 -184h-131z" />
    <glyph glyph-name="eacute" unicode="&#xe9;" horiz-adv-x="456" 
d="M279 842l-35 -158h69l35 158q20 115 -16 114q-33 1 -53 -114zM117 -16q-174 0 -117 282l123 584q23 115 88 201q66 86 153 86q88 0 124 -44q36 -45 32 -107t-16 -130l-70 -334h-223l-53 -243q-20 -113 8 -113q37 0 61 113l27 122h154l-31 -141q-59 -276 -260 -276z
M442 1489h164l-137 -184h-131z" />
    <glyph glyph-name="ecircumflex" unicode="&#xea;" horiz-adv-x="456" 
d="M279 842l-35 -158h69l35 158q20 115 -16 114q-33 1 -53 -114zM117 -16q-174 0 -117 282l123 584q23 115 88 201q66 86 153 86q88 0 124 -44q36 -45 32 -107t-16 -130l-70 -334h-223l-53 -243q-20 -113 8 -113q37 0 61 113l27 122h154l-31 -141q-59 -276 -260 -276z
M365 1489h165l45 -184h-133l-18 79l-51 -79h-133z" />
    <glyph glyph-name="edieresis" unicode="&#xeb;" horiz-adv-x="456" 
d="M276 842l-32 -158h69l33 158q25 115 -16 114q-25 1 -54 -114zM115 -16q-66 0 -99 45t-30 107q2 62 14 130l121 584q25 115 90 201q66 86 153 86q88 0 124 -44q36 -45 31 -107t-15 -130l-72 -334h-223l-51 -243q-27 -113 6 -113q39 0 63 113l27 122h154l-31 -141
q-59 -276 -262 -276zM432 1305l43 200h150l-43 -200h-150zM233 1305l43 200h152l-43 -200h-152z" />
    <glyph glyph-name="igrave" unicode="&#xec;" horiz-adv-x="284" 
d="M113 0h-160l235 1120h162zM199 1489h163l27 -184h-131z" />
    <glyph glyph-name="iacute" unicode="&#xed;" horiz-adv-x="284" 
d="M113 0h-160l235 1120h162zM330 1489h164l-136 -184h-131z" />
    <glyph glyph-name="icircumflex" unicode="&#xee;" horiz-adv-x="284" 
d="M113 0h-160l235 1120h162zM266 1489h166l45 -184h-133l-16 79l-54 -79h-133z" />
    <glyph glyph-name="idieresis" unicode="&#xef;" horiz-adv-x="284" 
d="M111 0h-160l237 1120h162zM334 1305l43 200h149l-43 -200h-149zM135 1305l43 200h152l-43 -200h-152z" />
    <glyph glyph-name="eth" unicode="&#xf0;" horiz-adv-x="464" 
d="M326 956q-14 0 -32 -36t-24 -58l-129 -604q-16 -92 17 -92q12 0 30 32t23 60l129 604q18 94 -14 94zM119 -16q-70 0 -104 49q-33 49 -31 115t12 131l121 579q63 279 192 279q33 0 64 -35q6 66 6 127l-55 -64l-27 88l84 93l-19 61l113 131l19 -68l73 82l25 -90l-76 -88
q39 -231 -8 -446l-139 -656q-23 -106 -89 -197t-161 -91z" />
    <glyph glyph-name="ntilde" unicode="&#xf1;" 
d="M461 1137q111 0 63 -219l-194 -918h-160l188 885q14 72 -16 71q-29 1 -43 -73l-188 -883h-160l235 1120h162l-12 -57q24 27 62 51t63 23zM375 1495q39 0 69 -17q30 -18 48 -18t49 20t45 40l-37 -170q-71 -84 -146 -32q-29 19 -57 19t-88 -61l39 176q39 43 78 43z" />
    <glyph glyph-name="ograve" unicode="&#xf2;" horiz-adv-x="456" 
d="M336 956q-37 0 -57 -94l-129 -604q-25 -92 16 -92q20 0 36 34t19 58l129 604q23 94 -14 94zM375 1137q79 0 113 -40q34 -41 31 -105t-19 -144l-121 -576q-31 -139 -89 -214t-163 -74q-184 0 -127 295l121 563q61 295 254 295zM281 1489h163l25 -184h-131z" />
    <glyph glyph-name="oacute" unicode="&#xf3;" horiz-adv-x="456" 
d="M336 956q-37 0 -57 -94l-129 -604q-25 -92 16 -92q20 0 36 34t19 58l129 604q23 94 -14 94zM375 1137q79 0 113 -40q34 -41 31 -105t-19 -144l-121 -576q-31 -139 -89 -214t-163 -74q-184 0 -127 295l121 563q61 295 254 295zM438 1489h164l-135 -184h-131z" />
    <glyph glyph-name="ocircumflex" unicode="&#xf4;" horiz-adv-x="456" 
d="M336 956q-37 0 -57 -94l-129 -604q-25 -92 16 -92q20 0 36 34t19 58l129 604q23 94 -14 94zM375 1137q79 0 113 -40q34 -41 31 -105t-19 -144l-121 -576q-31 -139 -89 -214t-163 -74q-184 0 -127 295l121 563q61 295 254 295zM365 1489h165l45 -184h-133l-18 79l-51 -79
h-133z" />
    <glyph glyph-name="otilde" unicode="&#xf5;" horiz-adv-x="456" 
d="M334 956q-37 0 -58 -94l-129 -604q-20 -92 17 -92q20 0 36 34t19 58l129 604q23 94 -14 94zM375 1137q79 0 113 -40q34 -41 30 -105t-18 -144l-123 -576q-31 -139 -89 -214t-163 -74q-186 0 -125 295l119 563q61 295 256 295zM381 1493q25 0 53 -17q28 -18 47 -18
q18 0 49 20t45 40l-36 -170q-39 -51 -93 -52q-26 0 -54 20t-46 19q-18 1 -51 -23t-45 -38l37 176q39 43 94 43z" />
    <glyph glyph-name="odieresis" unicode="&#xf6;" horiz-adv-x="456" 
d="M336 956q-39 0 -60 -94l-126 -604q-25 -92 14 -92q20 0 38 34t19 58l127 604q27 94 -12 94zM375 1137q79 0 113 -40q34 -41 30 -105t-18 -144l-123 -576q-31 -139 -89 -214t-163 -74q-186 0 -125 295l119 563q61 295 256 295zM432 1305l43 200h150l-43 -200h-150z
M233 1305l43 200h152l-43 -200h-152z" />
    <glyph glyph-name="oslash" unicode="&#xf8;" horiz-adv-x="468" 
d="M190 166q20 0 37 35q16 35 19 57l49 229l-127 -307q8 -14 22 -14zM244 580l139 344q0 33 -23 32q-37 0 -57 -94zM467 1126l31 70h88l-56 -129q29 -59 -6 -219l-121 -576q-31 -139 -89 -214t-162 -74q-33 0 -60 10l-26 -70h-91l50 129q-31 72 0 226l120 563
q61 295 254 295q37 -1 68 -11z" />
    <glyph glyph-name="ugrave" unicode="&#xf9;" 
d="M168 164q30 0 45 74l188 882h162l-239 -1120h-162l12 57q-22 -25 -60 -49t-63 -24q-111 0 -63 219l194 917h160l-188 -884q-16 -72 14 -72zM289 1489h164l24 -184h-131z" />
    <glyph glyph-name="uacute" unicode="&#xfa;" 
d="M168 164q30 0 45 74l188 882h162l-239 -1120h-162l12 57q-22 -25 -60 -49t-63 -24q-111 0 -63 219l194 917h160l-188 -884q-16 -72 14 -72zM449 1489h163l-137 -184h-131z" />
    <glyph glyph-name="ucircumflex" unicode="&#xfb;" 
d="M168 164q30 0 45 74l188 882h162l-239 -1120h-162l12 57q-22 -25 -60 -49t-63 -24q-111 0 -63 219l194 917h160l-188 -884q-16 -72 14 -72zM365 1489h165l45 -184h-133l-18 79l-51 -79h-133z" />
    <glyph glyph-name="udieresis" unicode="&#xfc;" 
d="M166 164q28 0 47 74l186 882h162l-237 -1120h-162l12 57q-24 -25 -62 -49t-63 -24q-109 0 -61 219l192 917h160l-188 -884q-14 -72 14 -72zM430 1305l43 200h150l-43 -200h-150zM231 1305l43 200h152l-43 -200h-152z" />
    <glyph glyph-name="yacute" unicode="&#xfd;" horiz-adv-x="462" 
d="M252 459l194 661h160l-395 -1204q-79 -252 -215 -308q-62 -26 -115 -3l39 182q45 -18 74 10q49 55 72 170l110 1153h158zM453 1489h163l-135 -184h-131z" />
    <glyph glyph-name="thorn" unicode="&#xfe;" horiz-adv-x="473" 
d="M197 178q29 0 45 78l133 627q16 74 -13 73q-31 1 -45 -73l-133 -627q-16 -78 13 -78zM455 1137q123 0 80 -219l-152 -715q-2 -8 -14 -66q-17 -79 -50 -116q-32 -37 -72 -37t-70 27q-30 28 -34 50l-94 -446h-160l400 1890h162l-93 -432q10 20 43 42t54 22z" />
    <glyph glyph-name="ydieresis" unicode="&#xff;" horiz-adv-x="442" 
d="M252 459l192 661h160l-395 -1204q-37 -135 -103 -217q-48 -65 -110 -91t-115 -3l39 182q45 -18 74 10q43 51 72 170l108 1153h158zM451 1305l43 200h149l-43 -200h-149zM252 1305l43 200h151l-43 -200h-151z" />
    <glyph glyph-name="Amacron" unicode="&#x100;" horiz-adv-x="520" 
d="M276 541l95 598l-158 -598h63zM59 0h-163l454 1505h199l-184 -1505h-166l43 307h-95zM356 1700l33 162h275l-33 -162h-275z" />
    <glyph glyph-name="amacron" unicode="&#x101;" horiz-adv-x="471" 
d="M205 254l55 260q-37 -37 -74 -112q-37 -74 -45 -110q-25 -111 4 -114q18 0 36 22t24 54zM44 -16q-74 0 -73 103t19 173q53 270 239 404q64 46 82 79l25 121q8 27 7 61t-13 33q-29 0 -49 -94l-15 -73h-155l14 67q23 109 89 194q67 85 157 85q91 0 117 -81t4 -173
l-146 -688q-23 -102 -31 -195h-137q-14 39 -10 68q-50 -84 -124 -84zM270 1315l35 162h275l-35 -162h-275z" />
    <glyph glyph-name="Abreve" unicode="&#x102;" horiz-adv-x="520" 
d="M274 541l95 598l-158 -598h63zM57 0h-163l456 1505h199l-187 -1505h-165l43 307h-95zM520 1831q23 0 86 63l56 -114q-84 -98 -173 -99q-47 0 -83 29t-48 70l109 116q16 -66 53 -65z" />
    <glyph glyph-name="abreve" unicode="&#x103;" horiz-adv-x="471" 
d="M203 254l55 260q-37 -37 -74 -112q-37 -74 -45 -110q-25 -111 4 -114q18 0 36 22t24 54zM42 -16q-74 0 -73 103t19 173q53 270 237 404q66 44 84 79l25 121q8 27 7 61t-13 33q-29 0 -49 -94l-15 -73h-155l14 67q23 109 89 194q67 85 157 85q91 0 117 -81t3 -173
l-145 -688q-23 -102 -31 -195h-137q-14 39 -10 68q-50 -84 -124 -84zM436 1450q23 0 86 63l56 -114q-84 -98 -172 -99q-47 0 -84 29t-48 70l109 117q16 -66 53 -66z" />
    <glyph glyph-name="Aogonek" unicode="&#x104;" horiz-adv-x="520" 
d="M317 541l95 598l-158 -598h63zM283 -248q14 0 77 41l-41 -153q-49 -25 -86 -25q-67 0 -95 51q-59 105 63 271l53 63h-16l43 307h-95l-88 -307h-164l457 1505h199l-187 -1505h-59q-73 -94 -88 -171q-16 -77 27 -77z" />
    <glyph glyph-name="aogonek" unicode="&#x105;" horiz-adv-x="471" 
d="M168 205q0 -27 16 -27q42 0 58 76l55 260q-35 -37 -73 -112t-52 -140v-10q-4 -20 -4 -47zM369 958q-29 0 -50 -94l-16 -73h-156l15 67q23 109 89 194q67 85 157 85t118 -81t4 -173l-147 -688q-25 -121 -31 -195h-63q-71 -84 -88 -166q-18 -82 24 -82q12 0 80 41l-43 -153
q-47 -25 -86 -25q-66 0 -94 50t-12 125t71 147q51 59 74 63q-10 25 -10 68q-20 -35 -54 -60t-69 -24q-116 0 -58 272t242 408q68 50 82 79l27 121q16 94 -6 94z" />
    <glyph glyph-name="Cacute" unicode="&#x106;" horiz-adv-x="487" 
d="M117 -16q-74 0 -111 49t-36 118t12 138l196 928q24 119 92 211t158 94q90 0 128 -56t36 -123q-2 -68 -10 -126l-50 -228h-165l49 228q14 90 -15 90t-49 -82l-198 -936q-18 -90 10 -90q35 0 53 90l49 227h166l-49 -227q-63 -305 -266 -305zM463 1874h164l-138 -184h-129z
" />
    <glyph glyph-name="cacute" unicode="&#x107;" horiz-adv-x="448" 
d="M172 170q32 0 49 88l33 156h156l-27 -129q-30 -135 -67 -196q-36 -60 -80 -83t-111 -22q-180 0 -121 311l113 530q29 125 90 218t166 94q131 0 143 -100q9 -77 -16 -201l-23 -109h-155l30 147q16 82 -12 82q-14 0 -30 -25q-15 -26 -21 -57l-131 -616q-18 -88 14 -88z
M381 1489h164l-135 -184h-131z" />
    <glyph glyph-name="Ccircumflex" unicode="&#x108;" horiz-adv-x="487" 
d="M119 -16q-74 0 -111 49t-36 118t14 138l194 928q27 121 94 213q68 92 172 92q76 0 114 -56t35 -123q-3 -68 -11 -126l-49 -228h-166l49 228q20 90 -17 90q-29 0 -45 -82l-198 -936q-18 -90 8 -90q37 0 55 90l47 227h166l-47 -227q-68 -305 -268 -305zM422 1823h166
l45 -185h-133l-19 80l-51 -80h-133z" />
    <glyph glyph-name="ccircumflex" unicode="&#x109;" horiz-adv-x="448" 
d="M172 170q32 0 49 88l33 156h156l-27 -129q-30 -135 -67 -196q-36 -60 -80 -83t-111 -22q-180 0 -121 311l113 530q29 125 90 218t166 94q131 0 143 -100q9 -77 -16 -201l-23 -109h-155l30 147q16 82 -12 82q-14 0 -30 -25q-15 -26 -21 -57l-131 -616q-18 -88 14 -88z
M367 1489h165l46 -184h-134l-18 79l-51 -79h-133z" />
    <glyph glyph-name="Cdotaccent" unicode="&#x10a;" horiz-adv-x="487" 
d="M115 -16q-74 0 -111 49t-36 118t14 138l194 928q27 121 94 213q68 92 172 92q76 0 114 -56t35 -123q-3 -68 -11 -126l-48 -228h-165l47 228q20 90 -13 90t-49 -82l-198 -936q-18 -90 10 -90q35 0 53 90l47 227h166l-47 -227q-29 -133 -95 -219t-173 -86zM391 1683l43 207
h162l-43 -207h-162z" />
    <glyph glyph-name="cdotaccent" unicode="&#x10b;" horiz-adv-x="448" 
d="M338 956q-14 0 -29 -25q-14 -26 -20 -57l-131 -616q-8 -32 -5 -60t17 -28q33 0 51 88l33 156h156l-29 -129q-30 -135 -67 -196q-36 -60 -81 -83t-110 -22q-145 0 -132 212q3 48 13 99l113 530q29 125 90 218t166 94q131 0 143 -100q9 -77 -16 -201l-25 -109h-156l33 147
q16 82 -14 82zM332 1298l43 207h160l-43 -207h-160z" />
    <glyph glyph-name="Ccaron" unicode="&#x10c;" horiz-adv-x="487" 
d="M117 -16q-74 0 -111 49t-36 118t12 138l196 928q24 119 92 211t158 94q90 0 128 -56t36 -123q-2 -68 -10 -126l-50 -228h-165l49 228q14 90 -15 90t-49 -82l-198 -936q-18 -90 10 -90q35 0 53 90l49 227h166l-49 -227q-63 -305 -266 -305zM561 1690h-166l-47 184h133
l19 -80l51 80h133z" />
    <glyph glyph-name="ccaron" unicode="&#x10d;" horiz-adv-x="448" 
d="M172 170q32 0 49 88l33 156h156l-27 -129q-30 -135 -67 -196q-36 -60 -80 -83t-111 -22q-180 0 -121 311l113 530q29 125 90 218t166 94q131 0 143 -100q9 -77 -16 -201l-23 -109h-155l30 147q16 82 -12 82q-14 0 -30 -25q-15 -26 -21 -57l-131 -616q-18 -88 14 -88z
M481 1305h-166l-47 184h133l19 -80l51 80h133z" />
    <glyph glyph-name="Dcaron" unicode="&#x10e;" horiz-adv-x="518" 
d="M165 221q7 0 14 1q25 4 44 60t63 275t70 330q25 111 35 161t21 102q10 52 12 85q6 12 0 21q-6 8 -5 14q2 11 -21 12l-25 2l-226 -1063h18zM94 0h-162l318 1505h141q100 0 141 -35t52 -120q12 -134 -96 -632t-149 -574q-43 -76 -97 -110t-148 -34zM565 1690h-166l-47 184
h133l19 -80l51 80h133z" />
    <glyph glyph-name="dcaron" unicode="&#x10f;" horiz-adv-x="659" 
d="M323 942q-15 0 -30 -68l-135 -628q-14 -68 2 -68t30 68l136 628q12 68 -3 68zM831 1505l-47 -227l-125 -266h-98l109 266h-52l48 227h165zM55 -16q-59 0 -71 75q-10 55 8 144l149 715q19 84 59 152t101 67q35 0 72 -41l86 409h162l-320 -1505h-162l6 27q-43 -43 -90 -43z
" />
    <glyph glyph-name="Dcroat" unicode="&#x110;" horiz-adv-x="518" 
d="M184 221q6 0 14 1q23 3 39 43q15 41 108 479t99 491q0 47 -25 47l-26 2l-94 -444h33l-35 -162h-33l-98 -457h18zM113 0h-162l143 678h-71l34 162h72l141 665h142q100 0 141 -34t51 -121q10 -123 -88 -598q-115 -532 -164 -619q-71 -133 -239 -133z" />
    <glyph glyph-name="dcroat" unicode="&#x111;" horiz-adv-x="473" 
d="M323 942q-15 0 -30 -68l-135 -628q-14 -68 2 -68t30 68l136 628q12 68 -3 68zM55 -16q-59 0 -71 75q-10 55 8 144l149 715q19 84 59 152t101 67q35 0 72 -41l26 127h-24l41 194h24l19 88h162l-19 -88h29l-41 -194h-29l-260 -1223h-162l6 27q-43 -43 -90 -43z" />
    <glyph glyph-name="Emacron" unicode="&#x112;" horiz-adv-x="438" 
d="M-68 0l318 1505h340l-47 -227h-170l-84 -395h123l-52 -242h-122l-88 -414h169l-49 -227h-338zM315 1700l33 162h275l-33 -162h-275z" />
    <glyph glyph-name="emacron" unicode="&#x113;" horiz-adv-x="456" 
d="M279 842l-33 -158h69l33 158q25 115 -16 114q-33 1 -53 -114zM117 -16q-174 0 -117 282l123 584q25 115 90 201q66 86 153 86q88 0 124 -44q36 -45 31 -107t-15 -130l-72 -334h-223l-51 -243q-25 -113 6 -113q39 0 63 113l25 122h154l-29 -141q-59 -276 -262 -276z
M276 1315l35 162h275l-35 -162h-275z" />
    <glyph glyph-name="Ebreve" unicode="&#x114;" horiz-adv-x="438" 
d="M-70 0l318 1505h340l-47 -227h-170l-84 -395h123l-52 -242h-122l-89 -414h170l-49 -227h-338zM446 1688q-66 0 -104 47q-23 33 -27 47l111 121q20 -61 30 -67t24 -5q13 0 44 22l39 48l55 -119q-73 -94 -172 -94z" />
    <glyph glyph-name="ebreve" unicode="&#x115;" horiz-adv-x="456" 
d="M276 842l-32 -158h69l33 158q25 115 -16 114q-31 1 -54 -114zM115 -16q-174 0 -117 282l123 584q25 115 90 201q66 86 153 86q88 0 124 -44q36 -45 31 -107t-17 -130l-70 -334h-223l-51 -243q-27 -113 7 -113t62 113l25 122h154l-29 -141q-59 -276 -262 -276zM410 1303
q-47 1 -84 29t-47 69l108 117q16 -66 53 -66q14 0 36 15t36 32l14 17l56 -115q-84 -98 -172 -98z" />
    <glyph glyph-name="Edotaccent" unicode="&#x116;" horiz-adv-x="438" 
d="M-68 0l318 1505h340l-49 -227h-170l-84 -395h123l-52 -242h-122l-89 -414h170l-47 -227h-338zM365 1683l45 207h161l-45 -207h-161z" />
    <glyph glyph-name="edotaccent" unicode="&#x117;" horiz-adv-x="456" 
d="M276 842l-32 -158h69l33 158q25 115 -16 114q-25 1 -54 -114zM115 -16q-66 0 -99 45t-30 107q2 62 14 130l121 584q25 115 90 201q66 86 153 86q88 0 124 -44q36 -45 31 -107t-15 -130l-72 -334h-223l-51 -243q-27 -113 6 -113q39 0 63 113l27 122h154l-31 -141
q-59 -276 -262 -276zM330 1298l43 207h162l-43 -207h-162z" />
    <glyph glyph-name="Eogonek" unicode="&#x118;" horiz-adv-x="438" 
d="M190 -248q14 0 78 41l-43 -153q-49 -25 -86 -25q-67 0 -95 51t-11 123q10 61 73 148l58 63h-193l320 1505h340l-49 -227h-170l-84 -395h123l-52 -242h-123l-88 -414h170l-49 -227h-59q-28 -31 -54 -83t-32 -87q-16 -78 26 -78z" />
    <glyph glyph-name="eogonek" unicode="&#x119;" horiz-adv-x="456" 
d="M315 842l-32 -158h69l33 158q25 115 -16 114q-25 1 -54 -114zM403 1137q87 0 123 -44q36 -45 32 -107q-5 -62 -15 -130l-72 -334h-223l-51 -243q-25 -113 6 -113q39 0 63 113l27 122h153l-30 -141q-45 -209 -172 -260h37q-69 -79 -88 -164q-19 -84 24 -84q12 0 80 41
l-43 -153q-47 -25 -86 -25q-66 0 -94 50q-61 107 59 272q2 2 39 47h-27q-166 8 -108 282l123 584q25 115 90 201q66 86 153 86z" />
    <glyph glyph-name="Ecaron" unicode="&#x11a;" horiz-adv-x="438" 
d="M-68 0l318 1505h340l-47 -227h-170l-84 -395h123l-54 -242h-122l-86 -414h169l-49 -227h-338zM541 1690h-166l-47 184h133l18 -80l51 80h134z" />
    <glyph glyph-name="ecaron" unicode="&#x11b;" horiz-adv-x="456" 
d="M279 842l-35 -158h69l35 158q20 115 -16 114q-33 1 -53 -114zM117 -16q-174 0 -117 282l123 584q23 115 88 201q66 86 153 86q88 0 124 -44q36 -45 32 -107t-16 -130l-70 -334h-223l-53 -243q-20 -113 8 -113q37 0 61 113l27 122h154l-31 -141q-59 -276 -260 -276z
M492 1305h-166l-47 184h133l18 -80l51 80h133z" />
    <glyph glyph-name="Gcircumflex" unicode="&#x11c;" horiz-adv-x="503" 
d="M403 1307q-31 0 -51 -90l-200 -947q-20 -90 14 -90q41 0 61 90l62 293h-37l39 187h194l-157 -750h-88l-9 55q-18 -27 -58 -49t-69 -22q-70 0 -102 55t-29 123q4 68 13 127l194 928q25 121 94 213q70 92 175 92q75 0 113 -52t35 -120t-11 -133l-54 -252h-170l54 252
q18 90 -13 90zM428 1823h166l45 -185h-133l-19 80l-51 -80h-133z" />
    <glyph glyph-name="gcircumflex" unicode="&#x11d;" horiz-adv-x="481" 
d="M158 -72l-45 17q-47 -39 -58 -95q-18 -78 47 -77q33 -1 59 21t34 54q12 60 -37 80zM349 956q-30 0 -50 -102l-68 -317q-20 -100 7 -101q28 1 51 101l67 317q23 102 -7 102zM190 264h-10q-16 -20 -22 -49q-12 -47 68 -71t108 -62q47 -80 21 -200q-25 -120 -99 -202
t-184 -81q-110 0 -155 58q-45 57 -25 153t143 176h2q-76 41 -55 149q23 94 118 168q-53 119 -26 244l65 305q25 109 88 197t155 88t116 -70q74 70 143 70l-39 -185q-59 0 -80 -24q4 -14 -2 -49l-74 -338q-29 -106 -95 -192q-67 -85 -161 -85zM385 1489h166l45 -184h-133
l-19 79l-51 -79h-133z" />
    <glyph glyph-name="Gbreve" unicode="&#x11e;" horiz-adv-x="503" 
d="M399 1307q-31 0 -51 -90l-201 -947q-20 -90 15 -90q41 0 61 90l62 293h-37l39 187h194l-157 -750h-88l-9 55q-18 -27 -58 -49t-69 -22q-70 0 -102 55t-29 123q4 68 13 127l194 928q25 121 94 213q70 92 174 92q76 0 114 -52t35 -120t-11 -133l-54 -252h-170l54 252
q18 90 -13 90zM512 1835q23 0 86 63l55 -114q-84 -98 -172 -98q-47 0 -84 28t-47 70l109 117q16 -66 53 -66z" />
    <glyph glyph-name="gbreve" unicode="&#x11f;" horiz-adv-x="481" 
d="M156 -72l-45 17q-45 -41 -58 -95q-14 -78 47 -77q33 1 60 23t33 52q12 60 -37 80zM347 956q-30 0 -50 -102l-68 -317q-20 -100 7 -101q31 1 51 101l67 317q23 102 -7 102zM188 264h-10q-16 -20 -22 -49q-10 -47 70 -71t106 -62q47 -78 21 -200q-25 -122 -99 -203
t-184 -81t-155 59q-44 58 -24 159q23 92 142 170h2q-75 43 -55 143t118 174q-51 115 -26 244l65 305q25 109 89 197q65 88 156 88t114 -70q76 70 145 70l-41 -185q-59 0 -80 -24q4 -14 -2 -49l-72 -338q-32 -109 -98 -193t-160 -84zM436 1303q-47 1 -84 29t-47 69l109 117
q16 -66 53 -66q14 0 36 15t36 32l14 17l55 -115q-84 -98 -172 -98z" />
    <glyph glyph-name="Gdotaccent" unicode="&#x120;" horiz-adv-x="503" 
d="M399 1307q-31 0 -51 -90l-201 -947q-20 -90 18 -90t58 90l62 293h-37l41 187h194l-159 -750h-88l-7 55q-20 -27 -60 -49t-69 -22q-70 0 -102 55t-29 123q4 68 13 127l194 928q25 121 94 213q70 92 174 92q76 0 115 -52t36 -120t-13 -133l-54 -252h-170l54 252
q18 90 -13 90zM401 1683l43 207h160l-43 -207h-160z" />
    <glyph glyph-name="gdotaccent" unicode="&#x121;" horiz-adv-x="481" 
d="M156 -72l-45 17q-45 -41 -58 -95q-14 -78 47 -77q33 1 60 23t33 52q12 60 -37 80zM346 956q-28 0 -47 -102l-68 -317q-20 -100 5 -101q30 1 53 101l67 317q18 102 -10 102zM188 264h-10q-16 -20 -22 -49q-10 -47 67 -70q82 -23 109 -63q49 -78 22 -200
q-26 -122 -100 -203t-184 -81t-155 59q-43 59 -23 155t141 174h2q-75 45 -55 144t118 173q-51 117 -24 244l63 305q27 109 91 197q65 88 155 88t115 -70q74 70 143 70l-39 -185q-57 0 -82 -24q4 -14 -2 -49l-72 -338q-27 -106 -95 -192q-69 -85 -163 -85zM348 1298l43 207
h162l-43 -207h-162z" />
    <glyph glyph-name="Gcommaaccent" unicode="&#x122;" horiz-adv-x="503" 
d="M199 -111l-31 -141l-55 -133h-101l62 133h-45l30 141h140zM483 1522q76 0 115 -52t36 -120t-13 -133l-54 -252h-170l54 252q25 90 -13 90q-31 0 -51 -90l-201 -947q-20 -90 18 -90t58 90l64 293h-37l39 187h194l-160 -750h-88l-6 55q-20 -27 -60 -49t-69 -22
q-140 0 -131 211q2 47 10 94l197 928q25 121 94 213q70 92 174 92z" />
    <glyph glyph-name="gcommaaccent" unicode="&#x123;" horiz-adv-x="481" 
d="M135 -72l-45 17q-45 -41 -57 -95q-14 -78 47 -77q34 1 60 23t32 52q12 60 -37 80zM326 956q-28 0 -47 -102l-68 -317q-20 -100 4 -101q30 1 53 101l68 317q18 102 -10 102zM168 264h-10q-16 -20 -23 -49q-10 -47 70 -70t106 -63q49 -78 23 -199t-100 -203
q-75 -82 -185 -81q-110 0 -154 58q-44 59 -24 155t141 174h2q-76 45 -56 144t120 173q-51 117 -25 244l64 305q27 109 91 197q65 88 155 88t114 -70q74 70 144 70l-39 -185q-57 0 -82 -24q4 -14 -2 -49l-72 -338q-27 -106 -95 -192q-69 -85 -163 -85zM348 1397l47 227
l125 266h98l-100 -266h43l-47 -227h-166z" />
    <glyph glyph-name="Hcircumflex" unicode="&#x124;" horiz-adv-x="528" 
d="M168 0l139 655h-65l-140 -655h-168l318 1505h170l-131 -622h65l131 622h170l-319 -1505h-170zM442 1823h166l45 -185h-133l-16 80l-53 -80h-134z" />
    <glyph glyph-name="hcircumflex" unicode="&#x125;" 
d="M412 1346l-23 -37l-49 -234q10 21 43 41q73 45 109 3q50 -59 22 -201l-197 -918h-153l188 883q18 74 -10 73q-27 0 -43 -73l-188 -883h-160l319 1505h162l-4 -16h100l45 -184h-147z" />
    <glyph glyph-name="Hbar" unicode="&#x126;" horiz-adv-x="528" 
d="M373 883l51 239h-66l-51 -239h66zM678 1284l-35 -162h-49l-240 -1122h-170l142 655h-66l-141 -655h-168l237 1122h-47l35 162h47l47 221h170l-47 -221h66l47 221h170l-47 -221h49z" />
    <glyph glyph-name="hbar" unicode="&#x127;" 
d="M299 883l-188 -883h-160l266 1253h-47l33 162h47l20 90h162l-20 -90h67l-33 -162h-67l-39 -178q10 21 43 41q73 45 109 3q50 -59 22 -201l-197 -918h-153l188 883q18 74 -10 73q-27 1 -43 -73z" />
    <glyph glyph-name="Itilde" unicode="&#x128;" horiz-adv-x="292" 
d="M-70 0l318 1505h170l-320 -1505h-168zM360 1878q25 0 54 -17t47 -17t50 20t46 39l-37 -170q-71 -85 -145 -32q-29 19 -57 19t-89 -61l39 176q37 43 92 43z" />
    <glyph glyph-name="itilde" unicode="&#x129;" horiz-adv-x="284" 
d="M111 0h-160l235 1120h162zM281 1495q39 0 69 -17q30 -18 47 -18q18 0 49 20t46 40l-37 -170q-72 -85 -146 -32q-29 19 -57 19t-88 -61l39 176q39 43 78 43z" />
    <glyph glyph-name="Imacron" unicode="&#x12a;" horiz-adv-x="292" 
d="M-68 0l318 1505h170l-320 -1505h-168zM242 1700l32 162h275l-33 -162h-274z" />
    <glyph glyph-name="imacron" unicode="&#x12b;" horiz-adv-x="284" 
d="M113 0h-160l237 1120h162zM176 1315l33 162h274l-32 -162h-275z" />
    <glyph glyph-name="Ibreve" unicode="&#x12c;" horiz-adv-x="292" 
d="M-70 0l318 1505h170l-320 -1505h-168zM373 1688q-47 0 -83 28t-46 70l108 117q16 -66 54 -66q14 0 36 15t33 32l14 17l58 -115q-84 -98 -174 -98z" />
    <glyph glyph-name="ibreve" unicode="&#x12d;" horiz-adv-x="284" 
d="M111 0h-160l235 1120h162zM313 1303q-47 1 -83 29t-46 69l109 117q16 -66 53 -66q14 0 36 15t36 32l12 17l57 -115q-84 -98 -174 -98z" />
    <glyph glyph-name="Iogonek" unicode="&#x12e;" horiz-adv-x="292" 
d="M18 -248q14 0 78 41l-41 -153q-49 -25 -84 -25q-67 0 -95 51q-59 105 63 271l53 63h-21l320 1505h170l-322 -1505h-59q-75 -97 -88 -172q-14 -76 26 -76z" />
    <glyph glyph-name="iogonek" unicode="&#x12f;" horiz-adv-x="284" 
d="M47 -248q14 0 78 41l-43 -153q-47 -25 -82 -25q-66 0 -94 51q-60 107 59 271q32 39 55 63h-49l238 1120h162l-240 -1120h-22q-74 -96 -90 -172q-15 -76 28 -76zM453 1505l-45 -207h-162l45 207h162z" />
    <glyph glyph-name="Idotaccent" unicode="&#x130;" horiz-adv-x="292" 
d="M-68 0l318 1505h170l-320 -1505h-168zM293 1683l45 207h162l-45 -207h-162z" />
    <glyph glyph-name="dotlessi" unicode="&#x131;" horiz-adv-x="284" 
d="M131 0h-160l238 1120h162z" />
    <glyph glyph-name="IJ" unicode="&#x132;" horiz-adv-x="546" 
d="M156 -12l45 221q43 -9 67 25t31 79l254 1192h170l-260 -1226q-67 -314 -307 -291zM-47 0l317 1505h170l-319 -1505h-168z" />
    <glyph glyph-name="ij" unicode="&#x133;" horiz-adv-x="501" 
d="M111 -385q-37 0 -70 16l45 187q59 -23 84 76q0 2 6 32l254 1194h162l-244 -1149q-31 -143 -65 -221q-66 -135 -172 -135zM131 0h-160l238 1120h162zM467 1298l45 207h162l-45 -207h-162zM246 1298l45 207h162l-45 -207h-162z" />
    <glyph glyph-name="Jcircumflex" unicode="&#x134;" horiz-adv-x="315" 
d="M-113 -12l47 221q31 -6 53 13t29 41q8 22 15 50l254 1192h170l-260 -1226q-70 -314 -308 -291zM348 1823h166l45 -185h-133l-18 80l-52 -80h-133z" />
    <glyph glyph-name="jcircumflex" unicode="&#x135;" horiz-adv-x="280" 
d="M-111 -385q-37 0 -69 16l45 187q27 -10 49 4t41 104l252 1194h162l-244 -1149q-31 -143 -66 -221q-66 -135 -170 -135zM500 1321h-90l-7 -23h-161l6 23h-84l123 184h166z" />
    <glyph glyph-name="Kcommaaccent" unicode="&#x136;" horiz-adv-x="522" 
d="M199 -111l-31 -141l-53 -133h-101l52 133h-37l30 141h140zM291 1505h164l-93 -432l203 432h166l-266 -551l-59 -954h-166l47 717l-154 -717h-162z" />
    <glyph glyph-name="kcommaaccent" unicode="&#x137;" horiz-adv-x="446" 
d="M199 -111l-31 -141l-53 -133h-101l52 133h-37l30 141h140zM291 1505h155l-131 -618l125 233h156l-219 -385l-25 -735h-155l30 475l-102 -475h-154z" />
    <glyph glyph-name="kgreenlandic" unicode="&#x138;" horiz-adv-x="446" 
d="M270 1505h156l-131 -618l125 233h155l-219 -385l-24 -735h-156l31 475l-103 -475h-153z" />
    <glyph glyph-name="Lacute" unicode="&#x139;" horiz-adv-x="423" 
d="M-68 0l318 1505h170l-277 -1300h176l-43 -205h-344zM428 1874h164l-135 -184h-131z" />
    <glyph glyph-name="lacute" unicode="&#x13a;" horiz-adv-x="284" 
d="M100 0h-159l317 1505h162zM334 1716h164l-136 -184h-131z" />
    <glyph glyph-name="Lcommaaccent" unicode="&#x13b;" horiz-adv-x="423" 
d="M199 -111l-31 -141l-53 -133h-101l52 133h-37l30 141h140zM-29 0l320 1505h170l-277 -1300h176l-45 -205h-344z" />
    <glyph glyph-name="lcommaaccent" unicode="&#x13c;" horiz-adv-x="284" 
d="M102 -96l-30 -142l-54 -133h-98l51 133h-37l31 142h137zM131 0h-160l318 1505h162z" />
    <glyph glyph-name="Lcaron" unicode="&#x13d;" horiz-adv-x="485" 
d="M-61 0l319 1505h170l-276 -1300h176l-45 -205h-344zM711 1737l-49 -228l-125 -266h-99l101 266h-43l49 228h166z" />
    <glyph glyph-name="lcaron" unicode="&#x13e;" horiz-adv-x="468" 
d="M674 1505l-49 -227l-125 -266h-99l101 266h-43l49 227h166zM111 0h-160l319 1505h162z" />
    <glyph glyph-name="Ldot" unicode="&#x13f;" horiz-adv-x="456" 
d="M313 674l49 227h166l-49 -227h-166zM-49 0l319 1505h170l-276 -1300h176l-45 -205h-344z" />
    <glyph glyph-name="ldot" unicode="&#x140;" horiz-adv-x="456" 
d="M311 649l47 228h166l-47 -228h-166zM111 0h-160l319 1505h162z" />
    <glyph glyph-name="Lslash" unicode="&#x141;" horiz-adv-x="438" 
d="M27 512l57 270l61 62h-2l142 661h170l-97 -454l91 94l-56 -262l-94 -99h2l-123 -579h176l-45 -205h-344l123 580z" />
    <glyph glyph-name="lslash" unicode="&#x142;" horiz-adv-x="342" 
d="M139 0h-159l124 594q-63 -63 -75 -78l55 262l80 82h-2l137 645h162l-94 -438q57 57 75 78l-55 -262l-78 -82h2z" />
    <glyph glyph-name="Nacute" unicode="&#x143;" horiz-adv-x="546" 
d="M211 0l33 731l-156 -731h-156l318 1505h143l-28 -710l151 710h158l-320 -1505h-143zM489 1874h164l-135 -184h-131z" />
    <glyph glyph-name="nacute" unicode="&#x144;" 
d="M463 1137q111 0 63 -219l-194 -918h-160l188 885q14 72 -16 71q-29 1 -43 -73l-188 -883h-160l235 1120h162l-12 -57q24 25 62 49t63 25zM393 1489h164l-137 -184h-129z" />
    <glyph glyph-name="Ncommaaccent" unicode="&#x145;" horiz-adv-x="546" 
d="M199 -111l-31 -141l-53 -133h-101l52 133h-37l30 141h140zM250 0l33 731l-156 -731h-156l320 1505h143l-28 -710l151 710h158l-322 -1505h-143z" />
    <glyph glyph-name="ncommaaccent" unicode="&#x146;" 
d="M219 -111l-31 -141l-55 -133h-100l53 133h-37l31 141h139zM502 1137q111 0 63 -219l-194 -918h-160l188 885q14 72 -16 71q-29 1 -43 -73l-188 -883h-160l235 1120h162l-12 -57q25 27 63 51t62 23z" />
    <glyph glyph-name="Ncaron" unicode="&#x147;" horiz-adv-x="546" 
d="M211 0l33 731l-156 -731h-156l318 1505h143l-28 -710l151 710h158l-320 -1505h-143zM586 1690h-166l-47 184h133l18 -80l51 80h134z" />
    <glyph glyph-name="ncaron" unicode="&#x148;" 
d="M463 1137q111 0 63 -219l-194 -918h-160l188 885q14 72 -16 71q-29 1 -43 -73l-188 -883h-160l235 1120h162l-12 -57q24 25 62 49t63 25zM485 1305h-166l-47 184h134l18 -80l51 80h133z" />
    <glyph glyph-name="napostrophe" unicode="&#x149;" 
d="M465 1137q111 0 63 -219l-194 -918h-160l188 885q14 72 -16 71q-29 1 -43 -73l-188 -883h-160l235 1120h162l-12 -57q24 27 62 51t63 23zM354 1442l-30 -142l-58 -133h-98l53 133h-39l31 142h141z" />
    <glyph glyph-name="Eng" unicode="&#x14a;" horiz-adv-x="546" 
d="M549 1505h158l-320 -1505q-27 -104 -74 -172q-63 -92 -186 -74l47 213q29 -10 57 33l43 721l-153 -721h-156l318 1505h145l-31 -714z" />
    <glyph glyph-name="eng" unicode="&#x14b;" 
d="M496 1137q111 0 63 -219l-203 -957q-23 -100 -77 -166q-70 -78 -197 -65l39 178q37 -10 63 20h-2q10 18 21 60l190 899q14 70 -16 69q-29 1 -43 -73l-189 -883h-159l235 1120h162l-12 -57q25 27 63 51t62 23z" />
    <glyph glyph-name="Omacron" unicode="&#x14c;" horiz-adv-x="495" 
d="M406 1307q-34 0 -54 -90l-196 -928q-20 -90 14 -90t53 90l197 928q20 90 -14 90zM123 -16q-74 0 -113 47t-39 115t13 143l194 928q27 131 96 218q70 87 177 87q77 0 115 -52t36 -120q-2 -67 -12 -133l-197 -928q-31 -133 -97 -219t-173 -86zM344 1700l35 162h274
l-35 -162h-274z" />
    <glyph glyph-name="omacron" unicode="&#x14d;" horiz-adv-x="456" 
d="M336 956q-37 0 -57 -94l-129 -604q-20 -92 16 -92q23 0 39 36t16 56l129 604q23 94 -14 94zM377 1137q79 0 113 -40q34 -41 30 -105t-18 -144l-123 -576q-31 -139 -89 -214t-163 -74q-186 0 -125 295l119 563q61 295 256 295zM262 1315l35 162h274l-34 -162h-275z" />
    <glyph glyph-name="Obreve" unicode="&#x14e;" horiz-adv-x="495" 
d="M403 1307q-35 0 -53 -90l-196 -928q-20 -90 14 -90t53 90l197 928q20 90 -15 90zM121 -16q-74 0 -113 47t-39 115t13 143l194 928q27 131 96 218q70 87 177 87q77 0 115 -52t36 -120q-2 -67 -12 -133l-197 -928q-31 -133 -97 -219t-173 -86zM477 1688q-47 0 -84 28
t-47 70l109 117q16 -66 53 -66q14 0 36 15t36 32l14 17l55 -115q-84 -98 -172 -98z" />
    <glyph glyph-name="obreve" unicode="&#x14f;" horiz-adv-x="456" 
d="M334 956q-37 0 -58 -94l-129 -604q-20 -92 17 -92q20 0 36 34t19 58l129 604q23 94 -14 94zM375 1137q79 0 113 -40q34 -41 30 -105t-18 -144l-123 -576q-31 -139 -89 -214t-163 -74q-186 0 -125 295l119 563q61 295 256 295zM395 1303q-47 1 -84 29t-47 69l109 117
q16 -66 53 -66q14 0 36 15t36 32l14 17l55 -115q-84 -98 -172 -98z" />
    <glyph glyph-name="Ohungarumlaut" unicode="&#x150;" horiz-adv-x="495" 
d="M406 1307q-34 0 -54 -90l-198 -928q-16 -90 16 -90t51 90l199 928q20 90 -14 90zM122 -16q-108 0 -138 90t-2 215l196 928q27 131 95 218q69 87 176 87q77 0 115 -52t36 -120q-2 -67 -10 -133l-199 -928q-29 -133 -95 -219t-174 -86zM600 1874h164l-137 -184h-131z
M377 1874h164l-138 -184h-129z" />
    <glyph glyph-name="ohungarumlaut" unicode="&#x151;" horiz-adv-x="456" 
d="M336 956q-37 0 -57 -94l-129 -604q-25 -92 16 -92q20 0 36 34t19 58l129 604q23 94 -14 94zM375 1137q79 0 113 -40q34 -41 31 -105t-19 -144l-121 -576q-31 -139 -89 -214t-163 -74q-184 0 -127 295l121 563q61 295 254 295zM516 1489h164l-135 -184h-131zM295 1489h164
l-137 -184h-132z" />
    <glyph glyph-name="OE" unicode="&#x152;" horiz-adv-x="651" 
d="M425 1307q-15 0 -33 -41t-25 -70l-189 -887q-10 -41 -7 -76t17 -34q33 -1 62 110l188 887q6 16 4 64t-17 47zM467 1505h377l-49 -227h-170l-84 -395h123l-52 -242h-123l-88 -414h170l-49 -227h-377q-197 10 -137 309l189 887q63 309 270 309z" />
    <glyph glyph-name="oe" unicode="&#x153;" horiz-adv-x="659" 
d="M528 842l-34 -158h69l35 158q25 115 -16 114q-34 1 -54 -114zM356 956q-38 0 -57 -94l-129 -604q-20 -92 16 -92q20 0 37 34t19 58l129 604q23 94 -15 94zM367 -16q-63 0 -95 36q-57 -37 -125 -36q-184 0 -127 295l121 563q61 295 254 295q78 0 113 -41q55 41 124 41
q70 0 106 -44q36 -45 32 -107t-16 -130l-70 -334h-223l-53 -243q-20 -113 8 -113q37 0 61 113l27 122h153l-30 -141q-59 -276 -260 -276z" />
    <glyph glyph-name="Racute" unicode="&#x154;" horiz-adv-x="505" 
d="M373 1286l-97 -457q33 0 50 23q29 31 65 211q39 174 25 203q-8 20 -43 20zM422 1505q227 0 133 -434q-53 -250 -149 -342l-52 -729h-166l52 655l-140 -655h-168l318 1505h172zM469 1874h164l-135 -184h-131z" />
    <glyph glyph-name="racute" unicode="&#x155;" horiz-adv-x="364" 
d="M487 1137l-53 -246q-57 39 -100 1t-60 -114l-165 -778h-156l235 1120h158l-12 -61q61 78 153 78zM338 1489h164l-137 -184h-129z" />
    <glyph glyph-name="Rcommaaccent" unicode="&#x156;" horiz-adv-x="505" 
d="M199 -111l-31 -141l-53 -133h-101l52 133h-37l30 141h140zM414 1286l-97 -457q29 0 54 27t61 205t25 205q-10 20 -43 20zM463 1505q229 0 133 -434q-53 -250 -152 -342l-51 -729h-166l54 655l-142 -655h-168l320 1505h172z" />
    <glyph glyph-name="rcommaaccent" unicode="&#x157;" horiz-adv-x="364" 
d="M121 -98l-31 -142l-55 -133h-98l53 133h-39l31 142h139zM526 1137l-53 -246q-57 39 -100 1t-60 -114l-166 -778h-155l235 1120h158l-12 -61q61 78 153 78z" />
    <glyph glyph-name="Rcaron" unicode="&#x158;" horiz-adv-x="505" 
d="M373 1286l-97 -457q33 0 50 23q29 31 65 211q39 174 25 203q-8 20 -43 20zM422 1505q227 0 133 -434q-53 -250 -149 -342l-52 -729h-166l52 655l-140 -655h-168l318 1505h172zM565 1690h-166l-47 184h133l19 -80l51 80h133z" />
    <glyph glyph-name="rcaron" unicode="&#x159;" horiz-adv-x="364" 
d="M487 1137l-53 -246q-57 39 -100 1t-60 -114l-165 -778h-156l235 1120h158l-12 -61q61 78 153 78zM434 1305h-166l-47 184h133l19 -80l51 80h133z" />
    <glyph glyph-name="Sacute" unicode="&#x15a;" horiz-adv-x="483" 
d="M397 1319q-29 1 -55 -129t21 -381q48 -251 44 -331q-3 -80 -16 -136q-76 -358 -278 -358q-83 0 -112 50q-15 26 -27 50t-11 68v68q1 52 13 104t20 96l168 24q0 -4 -5 -28t-8 -44q-3 -19 -7 -48q-21 -135 12 -138q24 0 36 33t26 97t16 135q3 72 -52 331q-41 242 -10 387
q16 80 43 151q27 72 86 136t135 66q207 3 121 -398l-174 -24q32 155 30 187q-3 32 -16 32zM461 1874h164l-138 -184h-131z" />
    <glyph glyph-name="sacute" unicode="&#x15b;" horiz-adv-x="440" 
d="M330 965q-25 0 -54 -117q-16 -74 31 -223q122 -307 -23 -541q-28 -45 -74 -73q-46 -27 -98 -27q-98 1 -124 71q-26 71 -16 144q11 73 24 127h145q-35 -170 4 -170q33 0 62 135q16 87 -37 256t-50 226q10 181 95 289q59 75 147 75q178 0 117 -303h-139q23 131 -10 131z
M377 1489h164l-135 -184h-132z" />
    <glyph glyph-name="Scircumflex" unicode="&#x15c;" horiz-adv-x="483" 
d="M401 1319q-31 0 -61 -150q-20 -100 25 -354q37 -168 42 -291q5 -122 -14 -182q-78 -358 -278 -358q-83 0 -112 50q-15 26 -27 50t-11 68v68q1 52 13 104t20 96l170 24q-6 -32 -12 -62q-40 -196 2 -196q23 0 36 33q59 149 35 309q-15 113 -45 254q-41 242 -14 373t72 213
t92 117t106 37q205 3 119 -398l-172 -24q0 6 4 21t9 46q4 31 12 80q12 72 -11 72zM422 1823h166l45 -185h-133l-19 80l-51 -80h-133z" />
    <glyph glyph-name="scircumflex" unicode="&#x15d;" horiz-adv-x="440" 
d="M330 965q-25 0 -54 -117q-16 -74 31 -223q122 -307 -23 -541q-28 -45 -74 -73q-46 -27 -98 -27q-98 1 -124 71q-26 71 -16 144q11 73 24 127h145q-35 -170 4 -170q33 0 62 135q16 87 -37 256t-50 226q10 181 95 289q59 75 147 75q178 0 117 -303h-139q23 131 -10 131z
M348 1489h166l45 -184h-133l-18 79l-52 -79h-133z" />
    <glyph glyph-name="Scedilla" unicode="&#x15e;" horiz-adv-x="483" 
d="M197 -111l-29 -141l-55 -133h-101l54 133h-37l28 141h140zM436 1319q-32 0 -58 -126t23 -378q19 -109 29 -169t13 -153t-15 -151q-47 -240 -166 -324q-51 -34 -107 -34q-109 1 -138 84q-28 87 -15 178q12 91 31 174l170 24q-7 -32 -13 -62t-13 -81q-16 -115 16 -115
q23 0 35 33t31 118q18 85 7 176q-11 90 -47 269q-39 252 -13 378t71 208t92 117t106 37q207 3 121 -398l-174 -24q31 149 29 184t-15 35z" />
    <glyph glyph-name="scedilla" unicode="&#x15f;" horiz-adv-x="440" 
d="M197 -111l-31 -141l-55 -133h-101l53 133h-36l30 141h140zM369 965q-25 0 -54 -117q-16 -74 31 -223q121 -307 -25 -541q-28 -45 -74 -73q-47 -27 -99 -27q-98 1 -123 71q-26 71 -16 144q11 73 24 127h147q-34 -154 2 -170q33 0 62 135q8 27 5 56t-5 49t-18 82
q-16 61 -32 110q-24 76 -33 137q-10 61 11 161q21 99 81 175t148 76q178 0 117 -303h-139q23 131 -10 131z" />
    <glyph glyph-name="Scaron" unicode="&#x160;" horiz-adv-x="483" 
d="M401 1319q-31 0 -61 -150q-20 -100 25 -354q37 -168 42 -291q5 -122 -14 -182q-78 -358 -278 -358q-83 0 -112 50q-15 26 -27 50t-11 68v68q1 52 13 104t20 96l170 24q-6 -32 -12 -62q-40 -196 2 -196q23 0 36 33q59 149 35 309q-15 113 -45 254q-41 242 -14 373t72 213
t92 117t106 37q205 3 119 -398l-172 -24q0 6 4 21t9 46q4 31 12 80q12 72 -11 72zM547 1638h-166l-47 185h133l18 -80l52 80h133z" />
    <glyph glyph-name="scaron" unicode="&#x161;" horiz-adv-x="440" 
d="M330 965q-25 0 -54 -117q-16 -74 31 -223q122 -307 -23 -541q-28 -45 -74 -73q-46 -27 -98 -27q-98 1 -124 71q-26 71 -16 144q11 73 24 127h145q-35 -170 4 -170q33 0 62 135q16 87 -37 256t-50 226q10 181 95 289q59 75 147 75q178 0 117 -303h-139q23 131 -10 131z
M469 1305h-166l-47 184h133l19 -80l51 80h133z" />
    <glyph glyph-name="Tcaron" unicode="&#x164;" horiz-adv-x="450" 
d="M281 1278h-125l47 227h420l-48 -227h-124l-273 -1278h-170zM539 1690h-166l-47 184h133l18 -80l51 80h134z" />
    <glyph glyph-name="tcaron" unicode="&#x165;" horiz-adv-x="575" 
d="M287 1397h157l-57 -277h86l-41 -186h-86l-199 -934h-155l196 934h-67l41 186h67zM770 1505l-49 -227l-125 -266h-98l108 266h-51l49 227h166z" />
    <glyph glyph-name="Tbar" unicode="&#x166;" horiz-adv-x="450" 
d="M594 1278h-125l-33 -152h58l-33 -161h-58l-206 -965h-170l206 965h-47l33 161h47l33 152h-125l49 227h420z" />
    <glyph glyph-name="tbar" unicode="&#x167;" horiz-adv-x="362" 
d="M492 1315h-62l-41 -195h86l-41 -186h-86l-198 -934h-156l196 934h-67l41 186h67l41 195h-57l33 162h276z" />
    <glyph glyph-name="Utilde" unicode="&#x168;" horiz-adv-x="512" 
d="M116 -16q-200 0 -139 305l259 1216h170l-261 -1216q-16 -90 15 -90t49 90l260 1216h170l-260 -1216q-63 -305 -263 -305zM471 1880q25 0 53 -17t47 -17q17 0 49 20t46 39l-35 -170q-43 -51 -94 -52q-25 -1 -54 19t-47 20t-51 -24t-45 -37l37 176q39 43 94 43z" />
    <glyph glyph-name="utilde" unicode="&#x169;" 
d="M166 164q30 0 45 74l188 882h162l-239 -1120h-162l12 57q-22 -25 -60 -49t-63 -24q-109 0 -61 219l192 917h160l-188 -884q-16 -72 14 -72zM389 1495q25 0 53 -17q28 -18 47 -18q17 0 49 20t46 40l-35 -170q-43 -51 -94 -52q-25 0 -54 20t-47 19q-18 1 -51 -23t-45 -38
l37 176q39 43 94 43z" />
    <glyph glyph-name="Umacron" unicode="&#x16a;" horiz-adv-x="512" 
d="M116 -16q-200 0 -134 305l256 1216h170l-258 -1216q-18 -90 14 -90t49 90l258 1216h170l-258 -1216q-67 -305 -267 -305zM350 1700l35 162h277l-35 -162h-277z" />
    <glyph glyph-name="umacron" unicode="&#x16b;" 
d="M170 164q30 0 43 74l188 882h162l-237 -1120h-162l12 57q-24 -27 -62 -51t-63 -22q-109 0 -61 219l192 917h160l-188 -884q-14 -72 16 -72zM272 1315l35 162h275l-35 -162h-275z" />
    <glyph glyph-name="Ubreve" unicode="&#x16c;" horiz-adv-x="512" 
d="M114 -16q-200 0 -134 305l256 1216h170l-259 -1216q-18 -90 12 -90t52 90l258 1216h170l-258 -1216q-67 -305 -267 -305zM483 1688q-47 0 -84 28t-47 70l109 117q16 -66 53 -66q14 0 36 15t36 32l14 17l55 -115q-84 -98 -172 -98z" />
    <glyph glyph-name="ubreve" unicode="&#x16d;" 
d="M168 164q30 0 43 74l188 882h162l-237 -1120h-162l12 57q-24 -27 -62 -51t-63 -22q-109 0 -61 219l192 917h160l-188 -884q-14 -72 16 -72zM406 1303q-47 1 -84 29t-48 69l109 117q16 -66 53 -66q14 0 36 15t36 32l14 17l56 -115q-84 -98 -172 -98z" />
    <glyph glyph-name="Uring" unicode="&#x16e;" horiz-adv-x="512" 
d="M112 -16q-202 0 -137 305l258 1216h170l-260 -1216q-18 -90 14 -90t50 90l260 1216h170l-260 -1216q-63 -305 -265 -305zM481 1806q-14 -72 11 -71q10 -1 23 21t19 50t3 51q-4 22 -15 21q-27 0 -41 -72zM539 1950q47 0 69 -41t8 -103t-53 -103q-39 -40 -86 -40t-71 41
t-9 102q15 60 55 102t87 42z" />
    <glyph glyph-name="uring" unicode="&#x16f;" 
d="M164 164q30 0 45 74l188 882h162l-240 -1120h-161l12 57q-22 -25 -60 -49t-63 -24q-111 0 -63 219l194 917h160l-188 -884q-16 -72 14 -72zM442 1493q-27 0 -41 -72t11 -71q10 0 32 37t16 71q-7 35 -18 35zM459 1565q47 0 69 -41q22 -42 9 -104t-53 -102t-87 -40t-71 41
t-9 102t55 103t87 41z" />
    <glyph glyph-name="Uhungarumlaut" unicode="&#x170;" horiz-adv-x="512" 
d="M116 -16q-202 0 -136 305l258 1216h170l-261 -1216q-18 -90 14 -90t50 90l260 1216h170l-260 -1216q-63 -305 -265 -305zM606 1874h164l-135 -184h-131zM383 1874h164l-135 -184h-131z" />
    <glyph glyph-name="uhungarumlaut" unicode="&#x171;" 
d="M168 164q30 0 45 74l188 882h162l-239 -1120h-162l12 57q-22 -25 -60 -49t-63 -24q-111 0 -63 219l194 917h160l-188 -884q-16 -72 14 -72zM526 1489h164l-135 -184h-131zM303 1489h164l-135 -184h-131z" />
    <glyph glyph-name="Uogonek" unicode="&#x172;" horiz-adv-x="512" 
d="M240 -248q14 0 77 41l-41 -153q-49 -25 -86 -25q-66 0 -94 51q-59 105 62 271q6 10 41 49q-10 -2 -37 -2h-8q-195 2 -138 305l260 1216h170l-260 -1216q-16 -82 11 -90q13 -1 30 25q16 26 25 69l258 1212h170l-260 -1216q-49 -233 -180 -289h59q-68 -82 -85 -165t26 -83z
" />
    <glyph glyph-name="uogonek" unicode="&#x173;" 
d="M242 -248q14 0 77 41l-43 -153q-49 -25 -86 -25q-66 0 -94 51t-12 123q10 61 74 148l57 63h-14l12 57q-23 -25 -61 -49t-62 -24q-111 0 -63 219l194 917h160l-188 -884q-15 -72 15 -72t44 74l188 882h162l-240 -1120h-61q-27 -31 -53 -83t-33 -87q-16 -78 27 -78z" />
    <glyph glyph-name="Wcircumflex" unicode="&#x174;" horiz-adv-x="684" 
d="M494 801l190 704h160l-430 -1505h-146l97 721l-211 -721h-144l205 1505h160l-107 -706l199 706h125zM512 1823h166l45 -185h-133l-17 80l-53 -80h-133z" />
    <glyph glyph-name="wcircumflex" unicode="&#x175;" horiz-adv-x="604" 
d="M371 0h-133l65 532l-158 -532h-131l138 1120h145l-70 -514l154 514h98l-65 -514l147 514h146zM422 1489h166l45 -184h-133l-17 79l-53 -79h-133z" />
    <glyph glyph-name="Ycircumflex" unicode="&#x176;" horiz-adv-x="481" 
d="M350 1067q132 380 152 438h168l-324 -864l-137 -641h-170l137 641l41 864h168zM426 1823h166l45 -185h-133l-17 80l-53 -80h-133z" />
    <glyph glyph-name="ycircumflex" unicode="&#x177;" horiz-adv-x="442" 
d="M252 459l194 661h160l-395 -1204q-79 -252 -215 -308q-62 -26 -115 -3l39 182q45 -18 74 10q49 55 72 170l110 1153h158zM389 1489h166l45 -184h-133l-18 79l-52 -79h-133z" />
    <glyph glyph-name="Ydieresis" unicode="&#x178;" horiz-adv-x="483" 
d="M350 1067q132 380 152 438h168l-326 -864l-135 -641h-170l135 641l43 864h168zM496 1638l43 201h149l-43 -201h-149zM297 1638l43 201h152l-43 -201h-152z" />
    <glyph glyph-name="Zacute" unicode="&#x179;" horiz-adv-x="438" 
d="M-104 0l51 238l426 1048h-178l47 219h360l-47 -219l-438 -1067h213l-47 -219h-387zM436 1874h164l-137 -184h-129z" />
    <glyph glyph-name="zacute" unicode="&#x17a;" horiz-adv-x="380" 
d="M-88 0l35 168l332 764h-144l39 188h311l-34 -168l-334 -764h170l-39 -188h-336zM346 1489h164l-135 -184h-131z" />
    <glyph glyph-name="Zdotaccent" unicode="&#x17b;" horiz-adv-x="438" 
d="M-104 0l49 238l428 1048h-178l47 219h360l-47 -219l-440 -1067h213l-45 -219h-387zM377 1683l45 207h162l-45 -207h-162z" />
    <glyph glyph-name="zdotaccent" unicode="&#x17c;" horiz-adv-x="380" 
d="M-90 0l37 168l329 764h-143l41 188h311l-36 -168l-332 -764h170l-41 -188h-336zM289 1298l45 207h160l-45 -207h-160z" />
    <glyph glyph-name="Zcaron" unicode="&#x17d;" horiz-adv-x="438" 
d="M-102 0l51 238l428 1048h-178l45 219h360l-45 -219l-440 -1067h213l-47 -219h-387zM537 1638h-166l-47 185h133l18 -80l51 80h133z" />
    <glyph glyph-name="zcaron" unicode="&#x17e;" horiz-adv-x="380" 
d="M-88 0l35 168l332 764h-144l39 188h311l-34 -168l-334 -764h170l-39 -188h-336zM444 1305h-165l-48 184h134l18 -80l51 80h133z" />
    <glyph glyph-name="longs" unicode="&#x17f;" horiz-adv-x="346" 
d="M414 1489q49 0 102 -21l-51 -163q-35 16 -69 16t-54 -35t-41 -129l-246 -1157h-129l248 1174q37 176 95 246t145 69z" />
    <glyph glyph-name="uni021A" unicode="&#x21a;" horiz-adv-x="450" 
d="M199 -111l-31 -141l-53 -133h-101l52 133h-37l30 141h140zM319 1278h-124l49 227h420l-50 -227h-125l-272 -1278h-170z" />
    <glyph glyph-name="uni021B" unicode="&#x21b;" horiz-adv-x="362" 
d="M205 -111l-31 -141l-55 -133h-101l54 133h-37l31 141h139zM313 1397h158l-57 -277h86l-41 -186h-86l-199 -934h-158l199 934h-68l41 186h68z" />
    <glyph glyph-name="circumflex" unicode="&#x2c6;" horiz-adv-x="673" 
d="M393 1489h166l43 -184h-133l-16 79l-54 -79h-133z" />
    <glyph glyph-name="caron" unicode="&#x2c7;" horiz-adv-x="673" 
d="M518 1305h-166l-45 184h133l17 -80l53 80h133z" />
    <glyph glyph-name="breve" unicode="&#x2d8;" horiz-adv-x="675" 
d="M434 1303q-47 1 -84 29t-47 69l109 117q16 -66 53 -66q14 0 36 15t36 32l14 17l55 -115q-84 -98 -172 -98z" />
    <glyph glyph-name="dotaccent" unicode="&#x2d9;" horiz-adv-x="673" 
d="M352 1298l43 207h162l-43 -207h-162z" />
    <glyph glyph-name="ring" unicode="&#x2da;" horiz-adv-x="673" 
d="M441 1356q11 0 26 19q14 19 20 46t0 45t-16 19q-11 -1 -25 -19t-20 -46t-1 -46t16 -18zM486 1565q46 0 70 -41q24 -40 10 -102t-54 -103q-41 -41 -87 -41t-69 40q-22 40 -9 102t53 104t86 41z" />
    <glyph glyph-name="ogonek" unicode="&#x2db;" horiz-adv-x="675" 
d="M322 -248q12 0 79 37l-43 -149q-49 -25 -86 -25q-66 0 -94 51t-12 123q10 61 74 148l57 63h84q-35 -43 -59 -93t-27 -77q-16 -78 27 -78z" />
    <glyph glyph-name="tilde" unicode="&#x2dc;" horiz-adv-x="675" 
d="M422 1495q24 0 54 -17q30 -18 48 -18t49 20t45 40l-36 -170q-72 -85 -146 -32q-28 19 -56 19t-89 -61l39 176q37 43 92 43z" />
    <glyph glyph-name="hungarumlaut" unicode="&#x2dd;" horiz-adv-x="675" 
d="M565 1489h164l-137 -184h-131zM342 1489h164l-137 -184h-131z" />
    <glyph glyph-name="endash" unicode="&#x2013;" horiz-adv-x="544" 
d="M84 649l41 195h432l-41 -195h-432z" />
    <glyph glyph-name="emdash" unicode="&#x2014;" horiz-adv-x="645" 
d="M84 649l41 195h530l-41 -195h-530z" />
    <glyph glyph-name="quoteleft" unicode="&#x2018;" horiz-adv-x="247" 
d="M90 1012l49 227l123 266h98l-98 -266h43l-49 -227h-166z" />
    <glyph glyph-name="quoteright" unicode="&#x2019;" horiz-adv-x="247" 
d="M358 1505l-47 -227l-125 -266h-98l100 266h-43l48 227h165z" />
    <glyph glyph-name="quotesinglbase" unicode="&#x201a;" horiz-adv-x="247" 
d="M223 227l-49 -227l-123 -266h-96l96 266h-43l49 227h166z" />
    <glyph glyph-name="quotedblleft" unicode="&#x201c;" 
d="M315 1012l50 227l122 266h99l-99 -266h43l-49 -227h-166zM94 1012l49 227l123 266h99l-99 -266h43l-49 -227h-166z" />
    <glyph glyph-name="quotedblright" unicode="&#x201d;" horiz-adv-x="466" 
d="M586 1505l-47 -227l-125 -266h-99l101 266h-43l47 227h166zM365 1505l-48 -227l-124 -266h-99l101 266h-43l47 227h166z" />
    <glyph glyph-name="quotedblbase" unicode="&#x201e;" horiz-adv-x="436" 
d="M410 227l-50 -227l-122 -266h-99l99 266h-43l49 227h166zM229 227l-49 -227l-123 -266h-96l96 266h-43l49 227h166z" />
    <glyph glyph-name="uni201F" unicode="&#x201f;" horiz-adv-x="466" 
d="M440 1505h166l-47 -227h-51l-6 -266h-99l-10 266zM199 1505h166l-48 -227h-51l-6 -266h-98l-10 266z" />
    <glyph glyph-name="bullet" unicode="&#x2022;" horiz-adv-x="458" 
d="M322 993q72 0 110 -51t24 -122t-76 -121t-133 -50t-110 51q-38 51 -23 122t76 121q60 50 132 50z" />
    <glyph glyph-name="ellipsis" unicode="&#x2026;" horiz-adv-x="651" 
d="M428 0l47 227h166l-47 -227h-166zM215 0l47 227h166l-47 -227h-166zM2 0l47 227h166l-47 -227h-166z" />
    <glyph glyph-name="perthousand" unicode="&#x2030;" horiz-adv-x="1705" 
 />
    <glyph glyph-name="Euro" unicode="&#x20ac;" horiz-adv-x="548" 
d="M188 -16q-76 0 -106 51q-31 61 -31 110q-10 72 12 164l50 238h-64l29 137h63l31 137h-63l28 137h64l51 238q16 82 54 157t85 121t123 48q76 0 104 -48q56 -95 25 -278l-18 -84h-162l18 84q10 55 0 94h2q-8 16 -12 17q-9 1 -27 -43t-22 -68l-51 -238h139l-29 -137h-139
l-31 -137h140l-29 -137h-139l-50 -238q-12 -57 -2 -94h-2l7 -16q16 0 40 55q0 2 8 24q7 22 9 31l16 84h162l-16 -84q-23 -82 -58 -164q-37 -63 -85 -112t-124 -49z" />
    <glyph glyph-name="trademark" unicode="&#x2122;" horiz-adv-x="624" 
d="M567 1225l107 280h94l-145 -684h-88l77 361q-51 -148 -114 -361h-39l41 361l-78 -361h-86l145 684h103zM262 1401h-61l20 104h230l-21 -104h-63l-125 -580h-105z" />
    <glyph glyph-name="minus" unicode="&#x2212;" horiz-adv-x="526" 
d="M86 649l37 172h414l-37 -172h-414z" />
    <glyph glyph-name="fi" unicode="&#xfb01;" horiz-adv-x="524" 
d="M135 0h-158l197 934h-63l41 186h63l12 66q40 183 95 256t135 71q43 0 71 -20l-34 -170q-33 23 -58 1t-45 -126l-16 -78h223l-240 -1120h-159l198 934h-63z" />
    <glyph glyph-name="fl" unicode="&#xfb02;" horiz-adv-x="524" 
d="M438 1120l43 209q-27 9 -49 -9t-41 -122l-16 -78h63zM360 0h-161l198 934h-63l-199 -934h-158l197 934h-63l41 186h63l12 66q40 183 95 256t135 71l63 -8h162z" />
    </font>
</defs>
</svg>
