<svg xmlns="http://www.w3.org/2000/svg" xmlns:xlink="http://www.w3.org/1999/xlink" preserveAspectRatio="xMidYMid" width="190" height="55.969" viewBox="0 0 190 55.969">
  <defs>
    <style>
      .cls-1 {
        fill: #fff;
        fill-rule: evenodd;
      }
    </style>
  </defs>
  <path d="M170.033,42.486 L190.000,42.582 L190.000,55.973 C190.000,55.973 187.578,55.973 169.795,55.973 C146.754,55.973 140.255,38.658 140.255,27.692 C140.255,17.765 145.809,-0.011 168.141,-0.011 C184.447,-0.011 190.000,-0.011 190.000,-0.011 L190.000,12.455 C190.000,12.455 180.193,12.340 170.032,12.340 C159.870,12.340 154.316,20.614 154.316,26.847 C154.316,33.080 156.916,42.486 170.033,42.486 ZM110.693,34.496 C105.796,34.496 93.675,34.503 93.675,34.503 L93.675,22.036 C93.675,22.036 104.571,22.151 110.597,22.151 C116.623,22.151 116.978,12.571 109.888,12.571 C106.343,12.571 87.320,12.571 87.320,12.571 L87.320,55.395 L73.377,55.395 L73.377,-0.011 C73.377,-0.011 100.081,-0.011 109.888,-0.011 C119.695,-0.011 128.085,7.146 128.085,15.687 C128.085,26.847 121.704,34.496 110.693,34.496 ZM27.413,43.160 L40.765,43.044 L31.785,20.651 L16.543,55.395 L-0.000,55.395 L25.522,-0.011 L36.748,-0.011 L61.679,55.395 L22.687,55.395 L27.413,43.160 Z" class="cls-1"/>
</svg>
